<svg width="auto" height="auto" viewBox="0 0 1491 1209" fill="none" xmlns="http://www.w3.org/2000/svg">
<g clip-path="url(#clip0_708_2)">
<path d="M8.70795 909.067C6.50259 909.069 4.38831 909.946 2.82888 911.506C1.26946 913.066 0.392231 915.181 0.389648 917.387V1201.16C0.392231 1203.36 1.26946 1205.48 2.82888 1207.04C4.38831 1208.6 6.5026 1209.47 8.70795 1209.48H976.112C978.318 1209.47 980.432 1208.6 981.991 1207.04C983.551 1205.48 984.428 1203.36 984.431 1201.16V917.386C984.428 915.181 983.551 913.066 981.991 911.506C980.432 909.946 978.318 909.069 976.112 909.066L8.70795 909.067Z" fill="#E6E6E6"/>
<path d="M21.2349 1188.63H963.585V929.916H21.2349V1188.63Z" fill="#E6E6E6"/>
<path d="M844.637 1134.96C842.826 1134.95 841.033 1135.31 839.359 1136C837.686 1136.69 836.165 1137.71 834.883 1138.99C833.602 1140.27 832.586 1141.79 831.892 1143.46C831.199 1145.13 830.842 1146.93 830.842 1148.74C830.842 1150.55 831.199 1152.34 831.892 1154.01C832.586 1155.69 833.602 1157.21 834.883 1158.49C836.165 1159.77 837.686 1160.78 839.359 1161.47C841.033 1162.17 842.826 1162.52 844.637 1162.52H899.753C903.407 1162.52 906.912 1161.07 909.496 1158.48C912.08 1155.9 913.532 1152.39 913.532 1148.74C913.532 1145.08 912.08 1141.58 909.496 1138.99C906.912 1136.41 903.407 1134.96 899.753 1134.96H844.637Z" fill="#3F3D56"/>
<path d="M913.532 1108.22H277.287V1111.85H913.532V1108.22Z" fill="#E6E6E6"/>
<path d="M278.293 1087.98L276.283 1084.96L342.397 1040.87L387.734 1062.64L452.946 1020.97L582.669 1076.31L685.972 1025.56L786.284 1066.23L912.33 954.57L914.734 957.285L787.006 1070.44L686.114 1029.53L582.773 1080.3L453.284 1025.05L387.986 1066.78L342.69 1045.04L278.293 1087.98Z" fill="#3F3D56"/>
<path d="M134.68 0.123106C132.475 0.125684 130.361 1.0031 128.801 2.56285C127.242 4.1226 126.365 6.23733 126.362 8.44315V292.213C126.365 294.419 127.242 296.534 128.801 298.094C130.361 299.653 132.475 300.531 134.68 300.533H1102.08C1104.29 300.531 1106.4 299.653 1107.96 298.094C1109.52 296.534 1110.4 294.419 1110.4 292.213V8.44309C1110.4 6.23729 1109.52 4.12257 1107.96 2.56282C1106.4 1.00307 1104.29 0.12564 1102.08 0.123047L134.68 0.123106Z" fill="#E6E6E6"/>
<path d="M147.207 279.683H1089.56V20.9727H147.207V279.683Z" fill="#E6E6E6"/>
<path d="M970.61 226.014C966.955 226.014 963.45 227.466 960.866 230.05C958.282 232.635 956.831 236.14 956.831 239.796C956.831 243.451 958.282 246.956 960.866 249.541C963.45 252.125 966.955 253.577 970.61 253.577H1025.73C1029.38 253.577 1032.88 252.125 1035.47 249.541C1038.05 246.956 1039.5 243.451 1039.5 239.796C1039.5 236.14 1038.05 232.635 1035.47 230.05C1032.88 227.466 1029.38 226.014 1025.73 226.014H970.61Z" fill="#3F3D56"/>
<path d="M1039.5 199.281H403.26V202.907H1039.5V199.281Z" fill="#E6E6E6"/>
<path d="M270.265 230.6C314.588 230.6 350.52 194.661 350.52 150.329C350.52 105.996 314.588 70.0566 270.265 70.0566C225.941 70.0566 190.01 105.996 190.01 150.329C190.01 194.661 225.941 230.6 270.265 230.6Z" fill="#3F3D56"/>
<path d="M404.265 179.032L402.255 176.015L468.369 131.929L513.706 153.696L578.919 112.025L579.799 112.399L708.641 167.372L811.944 116.616L912.257 157.292L1038.3 45.627L1040.71 48.3415L912.978 161.497L812.086 120.586L708.747 171.36L579.258 116.111L513.959 157.839L468.662 136.091L404.265 179.032Z" fill="#3F3D56"/>
<path d="M515.277 454.596C513.072 454.598 510.958 455.476 509.398 457.035C507.839 458.595 506.962 460.71 506.959 462.916V746.686C506.962 748.892 507.839 751.006 509.398 752.566C510.958 754.126 513.072 755.003 515.277 755.006H1482.68C1484.89 755.003 1487 754.126 1488.56 752.566C1490.12 751.006 1491 748.892 1491 746.686V462.916C1491 460.71 1490.12 458.595 1488.56 457.035C1487 455.476 1484.89 454.598 1482.68 454.596L515.277 454.596Z" fill="#E6E6E6"/>
<path d="M527.804 734.156H1470.15V475.445H527.804V734.156Z" fill="#E6E6E6"/>
<path d="M1351.21 680.484C1347.55 680.484 1344.05 681.936 1341.46 684.521C1338.88 687.106 1337.43 690.611 1337.43 694.266C1337.43 697.921 1338.88 701.427 1341.46 704.011C1344.05 706.596 1347.55 708.048 1351.21 708.048H1406.32C1409.98 708.048 1413.48 706.596 1416.07 704.011C1418.65 701.427 1420.1 697.921 1420.1 694.266C1420.1 690.611 1418.65 687.106 1416.07 684.521C1413.48 681.936 1409.98 680.484 1406.32 680.484H1351.21Z" fill="#3F3D56"/>
<path d="M1420.1 653.752H783.857V657.378H1420.1V653.752Z" fill="#E6E6E6"/>
<path d="M650.862 685.071C695.185 685.071 731.117 649.132 731.117 604.799C731.117 560.466 695.185 524.527 650.862 524.527C606.538 524.527 570.607 560.466 570.607 604.799C570.607 649.132 606.538 685.071 650.862 685.071Z" fill="#3F3D56"/>
<path d="M784.862 633.505L782.851 630.487L848.965 586.402L894.304 608.169L959.514 566.497L960.397 566.872L1089.24 621.845L1192.54 571.088L1292.85 611.763L1418.9 500.1L1421.3 502.816L1293.58 615.969L1192.68 575.058L1089.34 625.832L959.856 570.584L894.554 612.312L849.26 590.566L784.862 633.505Z" fill="#3F3D56"/>
<path d="M650.556 657.959C679.709 657.959 703.342 634.331 703.342 605.184C703.342 576.037 679.709 552.408 650.556 552.408C621.402 552.408 597.769 576.037 597.769 605.184C597.769 634.331 621.402 657.959 650.556 657.959Z" fill="#E6E6E6"/>
<path d="M645.277 577.036C648.192 577.036 650.555 574.673 650.555 571.758C650.555 568.843 648.192 566.48 645.277 566.48C642.362 566.48 639.998 568.843 639.998 571.758C639.998 574.673 642.362 577.036 645.277 577.036Z" fill="#CBCBCB"/>
<path d="M655.834 636.848C658.75 636.848 661.113 634.485 661.113 631.571C661.113 628.656 658.75 626.293 655.834 626.293C652.919 626.293 650.556 628.656 650.556 631.571C650.556 634.485 652.919 636.848 655.834 636.848Z" fill="#CBCBCB"/>
<path d="M678.708 601.664C680.652 601.664 682.227 600.088 682.227 598.145C682.227 596.202 680.652 594.627 678.708 594.627C676.765 594.627 675.189 596.202 675.189 598.145C675.189 600.088 676.765 601.664 678.708 601.664Z" fill="#CBCBCB"/>
<path d="M629.441 626.293C637.215 626.293 643.517 619.992 643.517 612.22C643.517 604.447 637.215 598.146 629.441 598.146C621.667 598.146 615.364 604.447 615.364 612.22C615.364 619.992 621.667 626.293 629.441 626.293Z" fill="#CBCBCB"/>
<g clip-path="url(#clip1_708_2)">
<path d="M239.52 189.189L251.538 168.456L263.555 147.797L275.499 127.064L277.478 123.779L278.357 127.064L282.021 140.715L277.917 147.797L265.9 168.456L253.956 189.189H268.318L280.335 168.456L286.564 157.725L289.495 168.456L295.064 189.189H307.961L302.391 168.456L296.823 147.797L295.357 142.468L304.297 127.064H291.254L290.814 125.531L286.271 108.594L285.685 106.404H273.154L272.861 106.842L261.137 127.064L249.12 147.797L237.176 168.456L225.158 189.189H239.52Z" fill="#E6E6E6"/>
</g>
<circle cx="147" cy="1073" r="80" fill="#3F3D56"/>
<circle cx="147" cy="1073" r="77.5" stroke="#6C63FF" stroke-width="5"/>
<g clip-path="url(#clip2_708_2)">
<path d="M181.016 1105.26V1111.16C181.016 1111.38 180.927 1111.6 180.77 1111.75C180.613 1111.91 180.399 1112 180.177 1112H113.525C113.303 1112 113.09 1111.91 112.932 1111.75C112.775 1111.6 112.687 1111.38 112.686 1111.16V1103.69C112.765 1103.61 112.844 1103.53 112.926 1103.44C117.353 1098.84 122.684 1095.21 128.581 1092.78C134.478 1090.34 140.814 1089.16 147.189 1089.31C153.565 1089.45 159.84 1090.92 165.621 1093.62C171.402 1096.32 176.562 1100.19 180.776 1104.99C180.858 1105.08 180.937 1105.17 181.016 1105.26Z" fill="#6C63FF"/>
<path d="M140.321 1102.55L137.944 1102.62C137.583 1102.64 137.225 1102.54 136.927 1102.33C136.668 1102.14 136.55 1101.88 136.602 1101.62L137.07 1099.26C137.158 1098.82 137.701 1098.48 138.362 1098.46L139.675 1098.43C140.335 1098.41 140.897 1098.71 141.009 1099.15L141.606 1101.48C141.672 1101.74 141.568 1102.01 141.321 1102.21C141.034 1102.43 140.683 1102.55 140.321 1102.55V1102.55Z" fill="#3F3D56"/>
<path d="M154.782 1102.49L152.405 1102.55C152.043 1102.57 151.686 1102.47 151.387 1102.27C151.129 1102.07 151.011 1101.81 151.063 1101.55L151.53 1099.2C151.619 1098.75 152.162 1098.41 152.823 1098.4L154.136 1098.36C154.796 1098.34 155.357 1098.65 155.47 1099.09L156.067 1101.41C156.133 1101.67 156.029 1101.94 155.782 1102.15C155.495 1102.37 155.144 1102.49 154.782 1102.49V1102.49Z" fill="#3F3D56"/>
<path d="M132.066 1082.48C131.957 1082.43 131.868 1082.35 131.813 1082.24C131.757 1082.14 131.739 1082.02 131.761 1081.9C131.784 1081.78 131.845 1081.68 131.935 1081.6C132.025 1081.52 132.139 1081.48 132.257 1081.48L159.285 1080.73C159.354 1080.73 159.421 1080.74 159.485 1080.76C159.549 1080.79 159.607 1080.82 159.657 1080.87C159.706 1080.92 159.746 1080.97 159.774 1081.04C159.802 1081.1 159.817 1081.17 159.819 1081.23V1081.23C159.822 1081.37 159.771 1081.51 159.677 1081.61C159.582 1081.71 159.452 1081.77 159.314 1081.77L159.314 1081.77L132.286 1082.52C132.21 1082.52 132.135 1082.51 132.066 1082.48Z" fill="#3F3D56"/>
<path d="M142.041 1073.5L134.315 1073.72L135.035 1099.87L142.761 1099.66L142.041 1073.5Z" fill="#E6E6E6"/>
<path d="M142.237 1073.04L140.752 1077.09L140.753 1095.57L142.563 1096.09L142.237 1073.04Z" fill="#E6E6E6"/>
<path d="M138.137 1066.67C136.692 1066.71 135.589 1069.22 135.616 1070.2L135.665 1071.97L140.898 1071.82L140.85 1070.05C140.822 1069.07 139.583 1066.63 138.137 1066.67Z" fill="#3F3D56"/>
<path d="M134.415 1084.55C134.145 1084.55 133.883 1084.45 133.687 1084.27C133.491 1084.08 133.376 1083.83 133.368 1083.55L133.289 1080.67C133.281 1080.4 133.382 1080.14 133.567 1079.94C133.753 1079.74 134.009 1079.63 134.279 1079.62C134.549 1079.61 134.812 1079.71 135.008 1079.9C135.204 1080.09 135.319 1080.34 135.326 1080.61L135.405 1083.5C135.413 1083.77 135.312 1084.03 135.127 1084.23C134.941 1084.42 134.685 1084.54 134.415 1084.55V1084.55Z" fill="#3F3D56"/>
<path d="M136.376 1073.78L136.339 1071.87L136.837 1071.86L136.874 1073.76L137.326 1101.45L136.827 1101.46" fill="#3F3D56"/>
<path d="M142.927 1078.24L133.967 1078.48C133.111 1077.44 133.034 1072.98 134.82 1072.13L135.52 1070.94L140.92 1070.68L141.551 1071.93C142.439 1072.69 142.897 1077.12 142.927 1078.24Z" fill="#E6E6E6"/>
<path d="M139.554 1076.1L137.289 1076.16C136.852 1076.17 136.48 1075.6 136.46 1074.89C136.441 1074.18 136.781 1073.59 137.218 1073.58L139.483 1073.52C139.921 1073.51 140.292 1074.07 140.312 1074.79C140.332 1075.5 139.992 1076.08 139.554 1076.1Z" fill="#6C63FF"/>
<path d="M135.167 1088.96L130.497 1092.26L129.681 1099.72L135.129 1097.9L135.167 1088.96Z" fill="#E6E6E6"/>
<path d="M156.955 1073.18L149.229 1073.4L149.949 1099.55L157.675 1099.34L156.955 1073.18Z" fill="#E6E6E6"/>
<path d="M149.414 1073.12L151.003 1077.14L151.48 1095.61L149.685 1096.18L149.414 1073.12Z" fill="#E6E6E6"/>
<path d="M160.818 1065.92C161.378 1065.92 161.831 1065.31 161.831 1064.56C161.831 1063.81 161.378 1063.2 160.818 1063.2C160.259 1063.2 159.806 1063.81 159.806 1064.56C159.806 1065.31 160.259 1065.92 160.818 1065.92Z" fill="#E6E6E6"/>
<path d="M166.112 1085.91C166.671 1085.91 167.125 1085.3 167.125 1084.55C167.125 1083.8 166.671 1083.19 166.112 1083.19C165.553 1083.19 165.099 1083.8 165.099 1084.55C165.099 1085.3 165.553 1085.91 166.112 1085.91Z" fill="#E6E6E6"/>
<path d="M126.707 1082.09C127.266 1082.09 127.72 1081.48 127.72 1080.73C127.72 1079.98 127.266 1079.37 126.707 1079.37C126.148 1079.37 125.694 1079.98 125.694 1080.73C125.694 1081.48 126.148 1082.09 126.707 1082.09Z" fill="#E6E6E6"/>
<path d="M152.901 1066.35C151.455 1066.39 150.352 1068.9 150.379 1069.88L150.428 1071.65L155.661 1071.51L155.613 1069.74C155.585 1068.76 154.346 1066.31 152.901 1066.35Z" fill="#3F3D56"/>
<path d="M154.397 1074.38L154.361 1072.47L154.859 1072.46L154.896 1074.36L155.347 1102.04L154.849 1102.06" fill="#3F3D56"/>
<path d="M157.69 1077.92L148.73 1078.17C148.574 1077.22 148.776 1072.8 149.583 1071.82L150.283 1070.62L155.683 1070.36L156.314 1071.61C157.908 1071.75 158.466 1076.09 157.69 1077.92Z" fill="#E6E6E6"/>
<path d="M154.329 1076.18L152.063 1076.24C151.626 1076.26 151.251 1075.6 151.229 1074.78C151.206 1073.96 151.544 1073.28 151.981 1073.27L154.247 1073.2C154.684 1073.19 155.058 1073.85 155.081 1074.67C155.103 1075.49 154.766 1076.17 154.329 1076.18Z" fill="#6C63FF"/>
<path d="M157.336 1087.05L161.851 1090.56L162.327 1098.05L156.968 1095.98L157.336 1087.05Z" fill="#E6E6E6"/>
<path d="M125.694 1052.46C126.254 1052.46 126.707 1051.85 126.707 1051.1C126.707 1050.35 126.254 1049.74 125.694 1049.74C125.135 1049.74 124.682 1050.35 124.682 1051.1C124.682 1051.85 125.135 1052.46 125.694 1052.46Z" fill="#E6E6E6"/>
<path d="M157.102 1041.4C157.661 1041.4 158.115 1040.79 158.115 1040.04C158.115 1039.29 157.661 1038.68 157.102 1038.68C156.543 1038.68 156.09 1039.29 156.09 1040.04C156.09 1040.79 156.543 1041.4 157.102 1041.4Z" fill="#E6E6E6"/>
<path d="M124.682 1069.94C125.241 1069.94 125.694 1069.33 125.694 1068.58C125.694 1067.82 125.241 1067.21 124.682 1067.21C124.123 1067.21 123.669 1067.82 123.669 1068.58C123.669 1069.33 124.123 1069.94 124.682 1069.94Z" fill="#E6E6E6"/>
<path d="M134.966 1057.96C134.503 1058.27 134.029 1057.53 134.501 1057.23C134.964 1056.93 135.437 1057.66 134.966 1057.96Z" fill="#E6E6E6"/>
<path d="M152.108 1033.8C151.645 1034.11 151.171 1033.37 151.643 1033.07C152.106 1032.77 152.58 1033.5 152.108 1033.8Z" fill="#E6E6E6"/>
<path d="M162.211 1048.12L161.916 1048.06L161.981 1047.76L161.785 1047.72L161.72 1048.01L161.425 1047.95L161.382 1048.14L161.677 1048.21L161.612 1048.5L161.809 1048.55L161.873 1048.25L162.168 1048.32L162.211 1048.12Z" fill="#E6E6E6"/>
<path d="M144.597 1035.31C143.152 1035.35 142.049 1037.86 142.075 1038.83L142.124 1040.61L147.358 1040.46L147.309 1038.69C147.282 1037.71 146.043 1035.27 144.597 1035.31Z" fill="#3F3D56"/>
<path d="M147.713 1102.4L145.336 1102.47C144.975 1102.49 144.618 1102.39 144.319 1102.18C144.061 1101.99 143.942 1101.73 143.994 1101.47L144.462 1099.11C144.55 1098.67 145.094 1098.33 145.754 1098.31L147.067 1098.27C147.728 1098.26 148.289 1098.56 148.401 1099L148.998 1101.33C149.065 1101.59 148.961 1101.85 148.713 1102.06C148.426 1102.28 148.075 1102.4 147.713 1102.4V1102.4Z" fill="#3F3D56"/>
<path d="M148.774 1046.59L141.048 1046.8L142.504 1099.67L150.23 1099.45L148.774 1046.59Z" fill="#E6E6E6"/>
<path d="M145.682 1072.18L145.646 1070.27L146.144 1070.26L146.181 1072.16L146.632 1099.84L146.134 1099.86" fill="#3F3D56"/>
<path d="M150.295 1051.42L139.826 1051.71C139.644 1050.61 139.88 1045.45 140.822 1044.29L141.081 1042.91L148.309 1042.71L148.687 1044.06C149.725 1044.94 150.26 1050.12 150.295 1051.42Z" fill="#E6E6E6"/>
<path d="M148.537 1042.88L141.078 1043.08C140.803 1043.09 140.576 1042.95 140.57 1042.76C140.57 1042.73 140.574 1042.71 140.582 1042.68L141.741 1039.1C141.79 1038.95 141.988 1038.84 142.218 1038.83L147.165 1038.69C147.395 1038.69 147.599 1038.79 147.657 1038.94L149.011 1042.45C149.08 1042.63 148.92 1042.81 148.653 1042.87C148.615 1042.87 148.576 1042.88 148.537 1042.88V1042.88Z" fill="#E6E6E6"/>
<path d="M141.814 1071.93C141.747 1071.9 141.683 1071.87 141.625 1071.82C141.541 1071.76 141.471 1071.69 141.422 1071.6C141.372 1071.51 141.344 1071.41 141.339 1071.3L141.068 1061.46C141.057 1061.06 141.455 1060.71 141.955 1060.7L148.633 1060.51C149.133 1060.5 149.549 1060.82 149.56 1061.23L149.831 1071.07C149.832 1071.17 149.809 1071.27 149.765 1071.37C149.72 1071.46 149.656 1071.54 149.575 1071.6C149.397 1071.75 149.174 1071.83 148.944 1071.83L142.267 1072.02C142.112 1072.02 141.957 1071.99 141.814 1071.93Z" fill="#3F3D56"/>
<path d="M146.088 1042.24L143.822 1042.3C143.385 1042.32 143.015 1041.82 142.998 1041.2C142.981 1040.58 143.323 1040.07 143.76 1040.05L146.026 1039.99C146.463 1039.98 146.833 1040.47 146.85 1041.09C146.867 1041.72 146.525 1042.23 146.088 1042.24Z" fill="#6C63FF"/>
<path d="M157.146 1083.91C156.876 1083.92 156.614 1083.82 156.418 1083.63C156.222 1083.44 156.107 1083.19 156.099 1082.92L156.02 1080.03C156.013 1079.76 156.113 1079.5 156.299 1079.3C156.484 1079.11 156.74 1078.99 157.01 1078.98C157.28 1078.98 157.542 1079.08 157.739 1079.26C157.935 1079.45 158.049 1079.71 158.057 1079.98L158.136 1082.86C158.144 1083.13 158.043 1083.39 157.858 1083.59C157.672 1083.79 157.416 1083.9 157.146 1083.91Z" fill="#3F3D56"/>
<path d="M119.932 1092.09C118.703 1092.09 117.905 1091.78 117.551 1091.17C116.854 1089.97 118.022 1087.87 121.021 1084.92L121.273 1085.17C118.487 1087.91 117.276 1089.98 117.862 1090.99C118.233 1091.63 119.338 1091.86 121.057 1091.65C122.763 1091.45 125.025 1090.84 127.778 1089.84C133.447 1087.79 140.56 1084.33 147.805 1080.1C155.051 1075.87 161.561 1071.37 166.138 1067.44C167.017 1066.68 167.815 1065.96 168.509 1065.28C169.42 1064.41 170.261 1063.47 171.023 1062.47C172.05 1061.07 172.396 1059.99 172.025 1059.36C171.406 1058.29 168.802 1058.39 164.694 1059.64L164.59 1059.29C168.997 1057.95 171.604 1057.91 172.336 1059.17C172.791 1059.96 172.447 1061.14 171.313 1062.68C170.539 1063.7 169.685 1064.65 168.76 1065.54C168.06 1066.22 167.257 1066.95 166.372 1067.71C161.779 1071.66 155.25 1076.17 147.986 1080.41C140.723 1084.65 133.589 1088.12 127.9 1090.18C125.121 1091.19 122.833 1091.8 121.099 1092.01C120.712 1092.06 120.322 1092.08 119.932 1092.09V1092.09Z" fill="#FF6584"/>
<path d="M148.74 1049.74L153.255 1053.25L153.73 1060.74L148.371 1058.67L148.74 1049.74Z" fill="#E6E6E6"/>
<path d="M141.919 1049.74L137.405 1053.25L136.929 1060.74L142.288 1058.67L141.919 1049.74Z" fill="#E6E6E6"/>
<path d="M121.723 1059.39C122.189 1059.21 122.466 1058.8 122.34 1058.48C122.214 1058.15 121.734 1058.03 121.268 1058.22C120.801 1058.4 120.525 1058.81 120.651 1059.13C120.776 1059.46 121.256 1059.57 121.723 1059.39Z" fill="#E6E6E6"/>
<path d="M127.597 1058.64C128.064 1058.46 128.34 1058.05 128.214 1057.72C128.089 1057.4 127.609 1057.28 127.142 1057.46C126.676 1057.64 126.399 1058.05 126.525 1058.38C126.651 1058.7 127.131 1058.82 127.597 1058.64Z" fill="#E6E6E6"/>
<path d="M121.213 1064.42C121.68 1064.24 121.956 1063.83 121.831 1063.5C121.705 1063.18 121.225 1063.06 120.758 1063.24C120.292 1063.42 120.015 1063.83 120.141 1064.16C120.267 1064.48 120.747 1064.6 121.213 1064.42Z" fill="#E6E6E6"/>
<path d="M119.514 1066.63C119.728 1066.58 119.842 1066.29 119.77 1065.98C119.697 1065.68 119.464 1065.47 119.25 1065.52C119.036 1065.57 118.922 1065.86 118.995 1066.17C119.067 1066.48 119.3 1066.69 119.514 1066.63Z" fill="#E6E6E6"/>
<path d="M119.479 1070.39C119.693 1070.34 119.808 1070.05 119.735 1069.74C119.662 1069.43 119.429 1069.22 119.215 1069.27C119.001 1069.32 118.887 1069.61 118.96 1069.92C119.032 1070.23 119.265 1070.44 119.479 1070.39Z" fill="#E6E6E6"/>
<path d="M124.635 1062.62C124.849 1062.56 124.963 1062.27 124.89 1061.96C124.818 1061.66 124.585 1061.45 124.371 1061.5C124.157 1061.55 124.042 1061.84 124.115 1062.15C124.188 1062.46 124.421 1062.67 124.635 1062.62Z" fill="#E6E6E6"/>
<path d="M121.541 1061.86C121.755 1061.81 121.869 1061.52 121.797 1061.21C121.724 1060.9 121.491 1060.7 121.277 1060.75C121.063 1060.8 120.949 1061.09 121.021 1061.4C121.094 1061.7 121.327 1061.91 121.541 1061.86Z" fill="#E6E6E6"/>
<path d="M124.82 1058.41C125.034 1058.36 125.149 1058.06 125.076 1057.76C125.003 1057.45 124.77 1057.24 124.556 1057.29C124.342 1057.34 124.228 1057.63 124.301 1057.94C124.374 1058.25 124.606 1058.46 124.82 1058.41Z" fill="#E6E6E6"/>
<path d="M173.086 1076.35C173.57 1076.22 173.889 1075.84 173.799 1075.5C173.71 1075.17 173.245 1075 172.762 1075.13C172.278 1075.25 171.959 1075.63 172.049 1075.97C172.138 1076.31 172.603 1076.48 173.086 1076.35Z" fill="#E6E6E6"/>
<path d="M167.165 1076.46C167.648 1076.33 167.967 1075.95 167.878 1075.61C167.788 1075.28 167.324 1075.11 166.84 1075.24C166.357 1075.37 166.038 1075.74 166.127 1076.08C166.217 1076.42 166.681 1076.59 167.165 1076.46Z" fill="#E6E6E6"/>
<path d="M174.138 1071.41C174.622 1071.28 174.941 1070.9 174.851 1070.56C174.762 1070.23 174.297 1070.06 173.814 1070.19C173.33 1070.32 173.011 1070.69 173.101 1071.03C173.19 1071.37 173.655 1071.54 174.138 1071.41Z" fill="#E6E6E6"/>
<path d="M175.885 1069.31C176.103 1069.28 176.248 1069 176.209 1068.69C176.17 1068.38 175.962 1068.14 175.744 1068.17C175.525 1068.2 175.38 1068.47 175.419 1068.79C175.458 1069.1 175.666 1069.34 175.885 1069.31Z" fill="#E6E6E6"/>
<path d="M176.327 1065.58C176.545 1065.55 176.69 1065.28 176.652 1064.96C176.613 1064.65 176.404 1064.41 176.186 1064.44C175.968 1064.47 175.822 1064.75 175.861 1065.06C175.9 1065.37 176.108 1065.61 176.327 1065.58Z" fill="#E6E6E6"/>
<path d="M170.358 1072.75C170.576 1072.72 170.721 1072.44 170.683 1072.13C170.644 1071.81 170.435 1071.58 170.217 1071.61C169.999 1071.63 169.853 1071.91 169.892 1072.23C169.931 1072.54 170.139 1072.77 170.358 1072.75Z" fill="#E6E6E6"/>
<path d="M173.351 1073.83C173.57 1073.81 173.715 1073.53 173.676 1073.21C173.637 1072.9 173.429 1072.67 173.211 1072.69C172.992 1072.72 172.847 1073 172.886 1073.31C172.925 1073.63 173.133 1073.86 173.351 1073.83Z" fill="#E6E6E6"/>
<path d="M169.717 1076.91C169.935 1076.88 170.08 1076.6 170.041 1076.29C170.002 1075.98 169.794 1075.74 169.576 1075.77C169.357 1075.8 169.212 1076.07 169.251 1076.39C169.29 1076.7 169.498 1076.94 169.717 1076.91Z" fill="#E6E6E6"/>
<path d="M184.15 1095.89C182.602 1095.89 180.905 1095.83 179.06 1095.71C169.516 1095.11 157.154 1092.99 144.251 1089.76C131.347 1086.54 119.445 1082.58 110.735 1078.62C106.492 1076.69 103.236 1074.86 101.057 1073.19C98.7493 1071.42 97.7401 1069.88 98.0568 1068.61C98.6739 1066.13 104.138 1065.58 108.614 1065.57L108.615 1065.93C102.469 1065.95 98.8435 1066.94 98.4058 1068.69C97.8481 1070.93 102.396 1074.43 110.883 1078.29C119.574 1082.24 131.455 1086.19 144.338 1089.42C157.221 1092.64 169.56 1094.75 179.083 1095.35C188.383 1095.95 194.037 1095 194.594 1092.76C195.057 1090.9 192.005 1088.16 186 1085.04L186.166 1084.72C190.529 1086.99 195.593 1090.23 194.943 1092.85C194.627 1094.12 193.013 1095.01 190.146 1095.48C188.513 1095.75 186.506 1095.89 184.15 1095.89Z" fill="#6C63FF"/>
</g>
</g>
<defs>
<clipPath id="clip0_708_2">
<rect width="1491" height="1209" fill="white"/>
</clipPath>
<clipPath id="clip1_708_2">
<rect width="82.8024" height="82.7848" fill="white" transform="translate(225.158 106.404)"/>
</clipPath>
<clipPath id="clip2_708_2">
<rect width="97" height="79" fill="white" transform="translate(98 1033)"/>
</clipPath>
</defs>
</svg>
