<svg width="70" height="70" viewBox="0 0 70 70" fill="none" xmlns="http://www.w3.org/2000/svg">
<path fill-rule="evenodd" clip-rule="evenodd" d="M33.2681 14.0491C33.2486 14.1078 32.9244 14.1632 32.563 14.1695C32.4128 14.1721 32.1388 14.2002 31.954 14.2317C31.7692 14.2633 31.4668 14.3114 31.282 14.3386C31.0973 14.3658 30.8232 14.4232 30.6731 14.466C30.5229 14.5088 30.2966 14.5566 30.1702 14.572C30.0436 14.5874 29.9019 14.6241 29.8552 14.6534C29.8083 14.6826 29.6756 14.7198 29.5601 14.736C29.4446 14.7523 29.2709 14.8015 29.174 14.8456C29.0771 14.8896 28.9488 14.9256 28.8888 14.9256C28.8289 14.9256 28.7089 14.9618 28.622 15.0061C28.5353 15.0503 28.3896 15.1002 28.2982 15.1168C28.207 15.1334 28.0621 15.1822 27.9764 15.2252C27.8907 15.2683 27.789 15.3035 27.7504 15.3035C27.7117 15.3035 27.6212 15.3393 27.5492 15.383C27.4772 15.4267 27.3521 15.4763 27.2713 15.4932C27.1904 15.5101 27.0581 15.557 26.9773 15.5973C26.8964 15.6375 26.7358 15.7121 26.6203 15.763C26.5048 15.8139 26.3158 15.8995 26.2003 15.9532C26.0848 16.0068 25.9431 16.0725 25.8853 16.0991C25.7361 16.1678 25.5392 16.2674 25.4654 16.3111C25.4307 16.3317 25.2512 16.4266 25.0664 16.522C24.8816 16.6174 24.6359 16.7509 24.5204 16.8186C24.4049 16.8863 24.2821 16.9543 24.2474 16.9696C24.2128 16.9849 24.131 17.0416 24.0657 17.0953C24.0004 17.1492 23.9304 17.1932 23.9101 17.1932C23.8898 17.1932 23.8015 17.2407 23.7139 17.2989C23.6262 17.3571 23.519 17.4279 23.4756 17.4564C23.4323 17.4848 23.2716 17.5967 23.1186 17.7051C22.9657 17.8134 22.7776 17.9457 22.7009 17.999C22.624 18.0524 22.4067 18.219 22.2179 18.3693C22.029 18.5195 21.8273 18.6734 21.7696 18.7112C21.7118 18.749 21.5984 18.8399 21.5176 18.9132C21.4367 18.9865 21.2775 19.1255 21.1637 19.2222C20.8541 19.4848 19.4705 20.87 19.2069 21.181C19.0803 21.3303 18.9477 21.4822 18.9123 21.5184C18.8768 21.5548 18.7921 21.6593 18.7242 21.7509C18.6563 21.8424 18.4956 22.0496 18.3672 22.2113C18.1484 22.4868 18.0262 22.6544 17.9268 22.8153C17.9037 22.8526 17.8091 22.9871 17.7166 23.1142C17.6241 23.2412 17.5296 23.3763 17.5066 23.4143C17.4836 23.4524 17.4034 23.5714 17.3283 23.6788C17.2532 23.7863 17.1918 23.8907 17.1918 23.9109C17.1918 23.931 17.1486 24.0009 17.0956 24.0662C17.0428 24.1315 16.9763 24.2322 16.9478 24.2899C16.9195 24.3477 16.8514 24.4705 16.7966 24.5629C16.7033 24.7205 16.3981 25.2956 16.2762 25.5434C16.2461 25.6046 16.2034 25.683 16.1814 25.7177C16.1593 25.7523 16.1206 25.8279 16.0953 25.8857C16.07 25.9434 16.0011 26.0946 15.9422 26.2216C15.8833 26.3486 15.803 26.5281 15.7636 26.6205C15.7243 26.7129 15.653 26.8735 15.6053 26.9775C15.5574 27.0814 15.5053 27.2137 15.4894 27.2714C15.4736 27.3292 15.4352 27.4331 15.4041 27.5024C15.322 27.6857 15.2213 27.97 15.1341 28.2641C15.0921 28.406 15.0397 28.5571 15.0174 28.6001C14.9952 28.643 14.9531 28.7821 14.9239 28.9091C14.8949 29.0362 14.8538 29.1618 14.8328 29.1884C14.8118 29.2149 14.7757 29.3545 14.7525 29.4984C14.7293 29.6424 14.6832 29.8127 14.6499 29.877C14.6167 29.9412 14.5779 30.104 14.5636 30.2388C14.5493 30.3735 14.5044 30.5783 14.4637 30.6938C14.4229 30.8093 14.3771 31.0441 14.3618 31.2157C14.3466 31.3871 14.3063 31.6233 14.2725 31.7406C14.2231 31.9112 14.1281 32.8625 14.1264 33.2029C14.1262 33.2433 14.0976 33.2764 14.063 33.2764C14.008 33.2764 14 33.4957 14 34.9981C14 36.5004 14.008 36.7198 14.063 36.7198C14.1003 36.7198 14.1261 36.7583 14.1262 36.8142C14.1268 37.1631 14.2219 38.1174 14.2716 38.275C14.3047 38.3797 14.3439 38.597 14.3586 38.7579C14.3733 38.9187 14.4198 39.1637 14.462 39.3023C14.5043 39.4409 14.5499 39.6487 14.5634 39.7642C14.5769 39.8797 14.6259 40.0736 14.6721 40.1952C14.7182 40.3166 14.7561 40.4678 14.7562 40.531C14.7564 40.5943 14.7822 40.6953 14.8136 40.7555C14.845 40.8156 14.893 40.9668 14.9203 41.0914C14.9475 41.216 14.9952 41.3746 15.0263 41.4439C15.0821 41.5682 15.2287 41.9964 15.2996 42.2418C15.3485 42.4112 15.5268 42.8493 15.7354 43.3126C15.7927 43.4396 15.853 43.5908 15.8696 43.6485C15.8862 43.7063 15.9236 43.7819 15.9526 43.8165C15.9816 43.8512 16.0275 43.9489 16.0547 44.0336C16.0819 44.1183 16.1297 44.2089 16.1609 44.2348C16.1921 44.2607 16.2301 44.3315 16.2454 44.3923C16.2606 44.453 16.3097 44.5493 16.3545 44.6062C16.3992 44.6631 16.4359 44.7436 16.4359 44.785C16.4359 44.8264 16.4628 44.8872 16.4957 44.9202C16.5287 44.9531 16.586 45.0443 16.6232 45.1227C16.6603 45.2011 16.737 45.3408 16.7935 45.4332C16.85 45.5256 16.9197 45.6484 16.9483 45.7062C16.977 45.7639 17.0908 45.9529 17.2012 46.1261C17.4545 46.524 17.4631 46.5369 17.5891 46.714C17.6466 46.7948 17.7126 46.9035 17.7357 46.9555C17.7588 47.0074 17.7975 47.0499 17.8218 47.0499C17.846 47.0499 17.8825 47.0937 17.9028 47.1472C17.9231 47.2006 18.0503 47.3848 18.1853 47.5566C18.3204 47.7283 18.509 47.9727 18.6045 48.0998C18.7001 48.2268 18.8324 48.3909 18.8985 48.4642C18.9647 48.5377 19.1035 48.6984 19.207 48.8212C19.3105 48.9441 19.747 49.3942 20.1768 49.8215C20.8893 50.5294 21.0635 50.6942 21.5176 51.0887C21.67 51.2211 22.1366 51.5801 22.6095 51.9286C22.7597 52.0393 22.91 52.1537 22.9436 52.1829C22.9772 52.2121 23.1001 52.2973 23.2166 52.3722C23.3331 52.447 23.4568 52.5273 23.4915 52.5507C23.9819 52.8806 24.5901 53.2429 24.8712 53.3726C24.9486 53.4084 25.0336 53.4555 25.0602 53.4774C25.1416 53.5447 25.5967 53.7688 25.6522 53.7688C25.6808 53.7688 25.7369 53.8047 25.7766 53.8485C25.8164 53.8925 25.9118 53.9402 25.9889 53.9547C26.0658 53.9692 26.1505 54.007 26.1768 54.0387C26.2032 54.0705 26.2759 54.109 26.3385 54.1243C26.4436 54.1502 26.8063 54.3063 26.9939 54.4064C27.0377 54.4298 27.17 54.4829 27.2879 54.5244C27.4058 54.5659 27.6345 54.6506 27.7962 54.7127C27.9579 54.7748 28.1658 54.8452 28.2582 54.8692C28.3506 54.8932 28.4759 54.9386 28.5366 54.9701C28.5972 55.0014 28.7484 55.0487 28.8725 55.0749C28.9966 55.1013 29.1492 55.1487 29.2116 55.1807C29.2739 55.2125 29.3632 55.2385 29.4098 55.2385C29.4564 55.2385 29.6393 55.2857 29.8162 55.3435C29.9931 55.4012 30.2008 55.4485 30.2779 55.4485C30.3549 55.4485 30.5179 55.485 30.64 55.5296C30.7621 55.5743 30.9944 55.6237 31.1561 55.6392C31.3177 55.6549 31.6012 55.7032 31.786 55.7467C31.9708 55.7902 32.2448 55.8269 32.395 55.8283C32.8156 55.8321 33.2491 55.89 33.2675 55.9449C33.2938 56.0241 36.6197 56.0151 36.6502 55.9359C36.6672 55.8916 36.8145 55.8707 37.2532 55.8503C37.5725 55.8354 38.0038 55.7873 38.2117 55.7432C38.4196 55.6993 38.7125 55.6514 38.8626 55.6369C39.0128 55.6223 39.2444 55.574 39.3773 55.5295C39.5101 55.4849 39.6731 55.4485 39.7394 55.4485C39.8057 55.4485 40.0045 55.4012 40.1815 55.3435C40.3584 55.2857 40.5451 55.2384 40.5963 55.2383C40.6476 55.2381 40.74 55.2116 40.8018 55.1794C40.8635 55.1473 41.0114 55.1 41.1305 55.0744C41.2496 55.0489 41.3846 55.0079 41.4307 54.9832C41.4768 54.9586 41.6123 54.9128 41.7319 54.8816C41.8516 54.8504 42.0062 54.7952 42.0755 54.7589C42.1448 54.7227 42.2335 54.693 42.2725 54.6928C42.3117 54.6927 42.4062 54.6562 42.4825 54.6117C42.559 54.5671 42.6917 54.518 42.7774 54.5023C42.8632 54.4866 42.9553 54.4475 42.9821 54.4152C43.0089 54.383 43.0633 54.3567 43.1032 54.3567C43.1432 54.3567 43.2647 54.3094 43.3734 54.2517C43.482 54.1939 43.5957 54.1467 43.6259 54.1467C43.6562 54.1467 43.7261 54.1113 43.7812 54.0682C43.8363 54.025 43.9415 53.9765 44.0149 53.9605C44.0884 53.9445 44.1703 53.9051 44.1968 53.8732C44.2233 53.8412 44.3145 53.7925 44.3992 53.7648C44.4839 53.7372 44.5984 53.6795 44.6535 53.6367C44.7086 53.5939 44.7878 53.5588 44.8295 53.5588C44.8712 53.5588 44.9151 53.543 44.927 53.5237C44.9552 53.4781 45.7738 53.0129 45.826 53.0129C45.8479 53.0129 45.889 52.9852 45.9171 52.9513C45.9452 52.9174 46.0893 52.822 46.2372 52.7393C46.3852 52.6566 46.5062 52.5727 46.5062 52.5531C46.5062 52.5333 46.5582 52.4963 46.6217 52.4708C46.6852 52.4451 46.8128 52.367 46.9052 52.2972C47.0864 52.1601 47.3589 51.9678 47.4676 51.9001C47.544 51.8526 47.6988 51.726 47.8144 51.6166C47.8572 51.5762 47.9018 51.5431 47.9137 51.5431C48.1007 51.5431 50.2772 49.4677 50.958 48.6402C51.0388 48.5419 51.1463 48.4131 51.1968 48.3541C51.462 48.0443 51.5459 47.9394 51.5459 47.9176C51.5459 47.9044 51.5885 47.8473 51.6404 47.7907C51.7952 47.6223 51.8529 47.5478 52.0188 47.3035C52.1057 47.1756 52.2285 46.997 52.2918 46.9067C52.4845 46.632 52.5261 46.5683 52.7148 46.26C52.8148 46.0965 52.9235 45.9405 52.9563 45.9133C52.9891 45.8861 53.0159 45.8417 53.0159 45.8146C53.0159 45.7874 53.0963 45.6338 53.1946 45.4733C53.2928 45.3127 53.3966 45.134 53.4252 45.0763C53.4538 45.0185 53.4963 44.943 53.5195 44.9083C53.5428 44.8737 53.5807 44.7981 53.6037 44.7403C53.6268 44.6826 53.6641 44.607 53.6867 44.5724C53.7093 44.5377 53.7562 44.4432 53.7909 44.3624C53.8257 44.2816 53.8722 44.1871 53.8942 44.1524C53.9163 44.1178 53.9809 43.9855 54.0377 43.8585C54.0946 43.7315 54.1903 43.5233 54.2504 43.3959C54.3105 43.2686 54.3598 43.1339 54.3598 43.0966C54.3598 43.0594 54.3861 43.0071 54.4184 42.9803C54.4506 42.9536 54.49 42.8615 54.5059 42.7757C54.5218 42.69 54.571 42.5608 54.6153 42.4888C54.6595 42.4168 54.6958 42.3263 54.6958 42.2877C54.6958 42.249 54.732 42.1465 54.7763 42.0596C54.8205 41.9729 54.8704 41.8272 54.887 41.7359C54.9035 41.6446 54.9497 41.5038 54.9895 41.4229C55.0293 41.3421 55.0749 41.1919 55.0906 41.0891C55.1065 40.9863 55.1381 40.8798 55.1609 40.8522C55.1837 40.8247 55.2309 40.6652 55.2659 40.4975C55.3008 40.3299 55.3467 40.1604 55.3678 40.1211C55.3889 40.0816 55.4265 39.9191 55.4513 39.7598C55.4761 39.6006 55.5231 39.3852 55.5558 39.2813C55.5884 39.1774 55.6275 38.979 55.6426 38.8404C55.6577 38.7018 55.706 38.4233 55.7499 38.2214C55.7938 38.0196 55.8303 37.7362 55.8311 37.5915C55.8331 37.2192 55.8997 36.7454 55.9528 36.7277C56.0157 36.7067 56.0157 33.2894 55.9528 33.2684C55.8997 33.2507 55.8331 32.777 55.8311 32.4046C55.8303 32.2599 55.7936 31.9765 55.7495 31.7747C55.7054 31.5728 55.656 31.2849 55.6399 31.1347C55.6237 30.9846 55.5852 30.8005 55.5544 30.7256C55.5235 30.6508 55.4784 30.4464 55.454 30.2716C55.4298 30.0967 55.3916 29.9195 55.3692 29.8777C55.3468 29.8359 55.3015 29.6812 55.2683 29.5339C55.2352 29.3866 55.1787 29.1905 55.1427 29.0981C55.1068 29.0057 55.0766 28.8829 55.0754 28.8251C55.0744 28.7674 55.0389 28.6635 54.9966 28.5942C54.9544 28.5249 54.9076 28.3926 54.8928 28.3002C54.8779 28.2079 54.8275 28.0574 54.7808 27.9659C54.734 27.8744 54.6957 27.7611 54.6954 27.7139C54.6953 27.6669 54.6576 27.5717 54.6118 27.5024C54.5659 27.4331 54.528 27.3481 54.5277 27.3134C54.5273 27.2788 54.4805 27.1559 54.4237 27.0405C54.3669 26.925 54.3198 26.8135 54.3191 26.7927C54.3184 26.7719 54.2683 26.6491 54.2079 26.5198C54.1473 26.3904 54.0593 26.1996 54.0122 26.0956C53.9651 25.9917 53.911 25.8783 53.8919 25.8437C53.8728 25.809 53.7725 25.6075 53.6691 25.3957C53.5656 25.184 53.4613 24.9986 53.4374 24.9838C53.4135 24.969 53.3938 24.9225 53.3938 24.8805C53.3938 24.8385 53.3653 24.7804 53.3303 24.7514C53.2955 24.7225 53.2287 24.6209 53.1821 24.5258C53.0482 24.2532 52.9636 24.1057 52.9102 24.0524C52.8831 24.0253 52.8368 23.9449 52.8073 23.8736C52.7778 23.8023 52.7401 23.744 52.7236 23.744C52.707 23.744 52.6715 23.6961 52.6448 23.6375C52.6181 23.5789 52.5768 23.508 52.5529 23.48C52.5291 23.452 52.4497 23.3346 52.3765 23.2191C52.3033 23.1037 52.2046 22.9598 52.1571 22.8996C52.1098 22.8392 52.0426 22.7465 52.0079 22.6935C51.9733 22.6404 51.8929 22.536 51.8294 22.4616C51.7659 22.3872 51.7139 22.3152 51.7139 22.3017C51.7139 22.2883 51.6749 22.2341 51.6271 22.1813C51.5793 22.1285 51.4423 21.9615 51.3226 21.8101C50.8481 21.21 49.5307 19.8291 48.8788 19.2484C48.5638 18.968 47.931 18.453 47.9011 18.4528C47.8846 18.4527 47.7968 18.3843 47.7059 18.3009C47.53 18.1394 47.1658 17.8758 46.7135 17.5827C46.6341 17.5312 46.5409 17.4701 46.5062 17.4469C46.2045 17.2447 46.1195 17.1932 46.0876 17.1932C46.0673 17.1932 45.9973 17.1499 45.932 17.097C45.8667 17.0442 45.766 16.9777 45.7083 16.9492C45.6505 16.9209 45.5277 16.8512 45.4353 16.7944C45.3429 16.7376 45.1964 16.6595 45.1098 16.6208C45.0232 16.5822 44.9523 16.536 44.9523 16.5182C44.9523 16.5004 44.8814 16.463 44.7948 16.4352C44.7082 16.4075 44.609 16.363 44.5743 16.3365C44.3785 16.1866 42.571 15.3877 42.2434 15.3063C42.1741 15.2889 42.0608 15.246 41.9915 15.2108C41.9222 15.1756 41.7919 15.1335 41.7019 15.1171C41.6118 15.1008 41.4969 15.0605 41.4465 15.0274C41.3962 14.9945 41.2431 14.9468 41.1063 14.9216C40.9694 14.8964 40.8374 14.8592 40.8127 14.8389C40.788 14.8186 40.6652 14.7816 40.5397 14.7565C40.4142 14.7315 40.2454 14.6848 40.1646 14.6525C40.0837 14.6204 39.8758 14.572 39.7026 14.5449C39.5293 14.5179 39.3512 14.4767 39.3067 14.4533C39.2621 14.4299 39.0826 14.3947 38.9077 14.3751C38.7328 14.3554 38.4763 14.3114 38.3377 14.2772C38.1991 14.243 37.8063 14.1945 37.4648 14.1695C36.8273 14.1228 36.7207 14.1042 36.7207 14.0392C36.7207 13.9808 33.2876 13.9906 33.2681 14.0491ZM32.038 27.0516C32.0923 27.0915 32.269 27.3433 32.269 27.3808C32.269 27.4622 32.5705 28.0212 32.626 28.0425C32.6614 28.056 32.9688 28.0484 33.3092 28.0255C34.5777 27.94 35.1529 27.9311 36.0641 27.9826C36.5754 28.0113 37.0535 28.0502 37.1264 28.0686C37.2982 28.1123 37.4958 27.9985 37.5374 27.8318C37.5538 27.7661 37.5915 27.684 37.6211 27.6494C37.6506 27.6147 37.6952 27.5254 37.7203 27.4508C37.7453 27.3762 37.7857 27.2912 37.8102 27.2619C37.8347 27.2325 37.8878 27.1662 37.9282 27.1147C38.0123 27.0073 38.6701 27.0622 38.9978 27.2039C39.0836 27.2411 39.2118 27.2714 39.2826 27.2714C39.3534 27.2714 39.4816 27.3009 39.5675 27.3369C39.6533 27.373 39.837 27.4283 39.9756 27.4599C40.2912 27.5316 40.6014 27.6361 40.8028 27.7384C40.8883 27.7818 40.9965 27.8173 41.0434 27.8173C41.0903 27.8173 41.2377 27.8672 41.371 27.9282C41.8519 28.148 41.9511 28.1899 42.0545 28.2159C42.181 28.248 42.2985 28.3428 42.4114 28.5041C42.5604 28.7168 42.8508 29.1785 42.9171 29.3081C42.9526 29.3773 43.0366 29.5191 43.1038 29.623C43.171 29.7269 43.2626 29.8899 43.3074 29.985C43.3522 30.0802 43.4099 30.1711 43.4357 30.187C43.4614 30.2028 43.4824 30.25 43.4824 30.2917C43.4824 30.3334 43.5176 30.4126 43.5606 30.4677C43.6036 30.5228 43.6533 30.6151 43.6711 30.6728C43.6889 30.7306 43.7364 30.825 43.7767 30.8828C43.817 30.9405 43.8632 31.0492 43.8795 31.1242C43.8957 31.1993 43.9259 31.2607 43.9466 31.2607C43.9671 31.2607 44.0142 31.3646 44.0511 31.4917C44.0881 31.6187 44.1344 31.7226 44.154 31.7226C44.1737 31.7226 44.2026 31.784 44.2186 31.8591C44.2345 31.9342 44.2802 32.0617 44.3202 32.1426C44.3996 32.303 44.5087 32.6024 44.5954 32.8984C44.6259 33.0024 44.6788 33.1535 44.7129 33.2344C44.747 33.3152 44.7886 33.4664 44.8053 33.5703C44.8221 33.6742 44.8531 33.7807 44.8742 33.8068C44.8952 33.8331 44.94 33.9937 44.9736 34.1638C45.0072 34.3339 45.0626 34.5487 45.0967 34.6411C45.1308 34.7335 45.1595 34.8835 45.1604 34.9743C45.1614 35.0652 45.1993 35.2731 45.2446 35.4363C45.2899 35.5995 45.347 35.9786 45.3714 36.2788C45.396 36.5791 45.4364 36.9476 45.4613 37.0977C45.6412 38.1817 45.4735 40.3926 45.205 40.4779C45.1587 40.4926 45.0971 40.5276 45.068 40.5558C44.9843 40.6371 44.3431 41.0614 43.9654 41.2855C43.6053 41.499 43.0549 41.8009 43.0257 41.8009C43.0059 41.8009 42.9447 41.8359 42.8896 41.8788C42.8345 41.9216 42.72 41.9792 42.6353 42.0068C42.5506 42.0346 42.4585 42.0845 42.4306 42.1179C42.4028 42.1514 42.3515 42.1788 42.3164 42.1788C42.2813 42.1788 42.175 42.2152 42.0801 42.2598C41.6395 42.4667 41.4252 42.5567 41.374 42.5567C41.3433 42.5567 41.2477 42.5945 41.1616 42.6407C41.0754 42.6869 40.9758 42.7247 40.9404 42.7247C40.905 42.7247 40.7638 42.7719 40.6265 42.8297C40.1512 43.0298 40.0359 42.9926 39.7854 42.5584C39.7501 42.4973 39.6967 42.4199 39.6666 42.3866C39.5893 42.3007 39.2995 41.813 39.2028 41.606C39.1581 41.5104 39.1011 41.4196 39.0761 41.404C38.9778 41.3434 39.0246 41.1292 39.1461 41.0837C39.2606 41.041 39.4835 40.9436 39.8076 40.7945C39.9 40.752 40.0228 40.6955 40.0806 40.669C40.3613 40.5398 40.4994 40.4508 40.5824 40.3453L40.6732 40.2299L40.5763 40.156C40.3781 40.0046 40.2514 39.9753 40.1227 40.0514C40.0577 40.0898 39.9726 40.1212 39.9336 40.1212C39.8945 40.1212 39.8105 40.1582 39.7469 40.2035C39.6833 40.2488 39.5523 40.3036 39.4561 40.3252C39.3597 40.3469 39.2387 40.3919 39.1873 40.4253C39.1357 40.4587 39.0119 40.4988 38.9122 40.5145C38.8123 40.5302 38.6895 40.5698 38.6392 40.6027C38.5888 40.6355 38.4276 40.6815 38.281 40.7051C38.1343 40.7285 37.9925 40.7655 37.966 40.7873C37.9394 40.809 37.7665 40.8495 37.5817 40.8772C37.3969 40.905 37.2098 40.9467 37.166 40.9701C37.0883 41.0115 36.8378 41.0369 35.5835 41.1302C34.9827 41.1749 34.7862 41.1672 33.4029 41.0451C33.0077 41.0102 32.4659 40.9066 32.08 40.7922C31.9414 40.7512 31.7596 40.7077 31.676 40.6958C31.5923 40.6839 31.4374 40.6347 31.3318 40.5866C31.2261 40.5385 31.0961 40.499 31.0429 40.499C30.9896 40.4989 30.8878 40.4633 30.8166 40.4198C30.7453 40.3764 30.6225 40.3272 30.5436 40.3104C30.4647 40.2937 30.3412 40.2443 30.2692 40.2006C30.1971 40.157 30.1056 40.1212 30.0657 40.1212C30.0257 40.1212 29.94 40.0898 29.875 40.0514C29.7463 39.9753 29.6196 40.0046 29.4213 40.156L29.3245 40.2299L29.4147 40.3446C29.4643 40.4076 29.5646 40.4861 29.6375 40.5188C29.7105 40.5517 29.8174 40.605 29.8751 40.6376C30.0412 40.731 30.6423 41.0056 30.8516 41.0837C30.9702 41.128 31.0207 41.3428 30.9262 41.4012C30.9039 41.4151 30.8471 41.506 30.8001 41.6032C30.7532 41.7003 30.6689 41.8555 30.6127 41.9478C30.5566 42.0402 30.4721 42.1849 30.425 42.2694C30.3779 42.3539 30.3247 42.4295 30.3068 42.4374C30.2888 42.4452 30.2458 42.5005 30.2111 42.56C29.9982 42.9256 29.9889 42.9341 29.8004 42.9343C29.7015 42.9346 29.5084 42.8874 29.3712 42.8297C29.2339 42.7719 29.0927 42.7247 29.0573 42.7247C29.0218 42.7247 28.9223 42.6869 28.8361 42.6407C28.75 42.5945 28.6529 42.5567 28.6204 42.5567C28.5643 42.5567 28.4498 42.5086 27.96 42.2792C27.8422 42.2239 27.7223 42.1788 27.6936 42.1788C27.6648 42.1788 27.5911 42.1435 27.5298 42.1003C27.4684 42.0571 27.371 42.0074 27.3133 41.9895C27.2555 41.9718 27.1632 41.9221 27.1081 41.8791C27.053 41.836 26.9738 41.8009 26.9321 41.8009C26.8904 41.8009 26.8454 41.7833 26.8322 41.7619C26.819 41.7406 26.6525 41.6361 26.4623 41.53C26.0592 41.305 26.0413 41.2943 25.6544 41.0499C25.2729 40.809 24.9957 40.62 24.9297 40.5558C24.9006 40.5276 24.839 40.4926 24.7927 40.4779C24.6633 40.4368 24.5893 40.2483 24.5427 39.8415C24.4873 39.3588 24.4886 37.4496 24.5445 37.0977C24.5683 36.9476 24.6136 36.5602 24.645 36.2368C24.6767 35.9135 24.7235 35.5828 24.7492 35.502C24.775 35.4211 24.8155 35.2048 24.8391 35.0213C24.8627 34.8376 24.9189 34.5784 24.9637 34.4452C25.0086 34.3119 25.0454 34.1404 25.0454 34.0639C25.0454 33.9875 25.0714 33.8877 25.1033 33.8421C25.1352 33.7965 25.1846 33.6466 25.2131 33.509C25.2416 33.3714 25.2891 33.2202 25.3185 33.1731C25.3479 33.1259 25.385 33.0126 25.4011 32.9214C25.4173 32.8301 25.4666 32.6844 25.5108 32.5977C25.5551 32.5108 25.5914 32.4055 25.5914 32.3635C25.5914 32.3216 25.6176 32.2497 25.6496 32.2041C25.6817 32.1583 25.7322 32.036 25.7619 31.9323C25.7916 31.8285 25.8387 31.7153 25.8667 31.6806C25.8946 31.646 25.9312 31.5704 25.9481 31.5127C25.965 31.4549 26.0125 31.351 26.0535 31.2817C26.0947 31.2124 26.141 31.0956 26.1565 31.0222C26.172 30.9487 26.2106 30.867 26.2423 30.8408C26.274 30.8145 26.3116 30.7396 26.326 30.6743C26.3404 30.609 26.3888 30.5223 26.4337 30.4816C26.4786 30.4411 26.5153 30.384 26.5153 30.3549C26.5153 30.2975 26.7769 29.8074 27.0292 29.392C27.0572 29.3459 27.1201 29.2419 27.1688 29.1611C27.555 28.521 27.8263 28.1953 27.9734 28.1953C28.0366 28.1953 28.0933 28.1721 28.6266 27.9282C28.76 27.8672 28.9117 27.8173 28.9638 27.8173C29.0159 27.8173 29.0963 27.7909 29.1426 27.7584C29.1888 27.7261 29.3111 27.6779 29.4144 27.6515C29.5176 27.625 29.6588 27.5772 29.7281 27.5452C29.7974 27.5132 29.9675 27.459 30.1061 27.4247C30.3805 27.3568 30.5689 27.3084 31.0511 27.1823C31.309 27.1148 31.5894 27.0661 31.954 27.0254C31.9771 27.0228 32.0149 27.0346 32.038 27.0516ZM31.0366 33.7649C30.9015 33.7976 30.7644 33.8509 30.7319 33.8835C30.6992 33.9161 30.6314 33.9558 30.5811 33.9718C30.389 34.0328 30.0327 34.436 29.8971 34.7461C29.8617 34.8269 29.8013 34.9498 29.7628 35.0191C29.6559 35.2113 29.6321 36.1698 29.7277 36.4258C29.8656 36.7943 29.8996 36.8686 30.0088 37.0381C31.0517 38.6569 33.4029 37.7931 33.4029 35.7911C33.4029 35.4147 33.2592 34.847 33.1269 34.7009C33.0939 34.6643 33.067 34.6131 33.067 34.5868C33.067 34.5198 32.5646 33.9902 32.5008 33.9902C32.4719 33.9902 32.3971 33.95 32.3346 33.9008C32.1081 33.7226 31.4823 33.6572 31.0366 33.7649ZM38.0647 33.7596C37.6513 33.8534 37.1566 34.2169 36.9873 34.5513C36.9507 34.6238 36.8964 34.7115 36.8669 34.7461C36.8186 34.8028 36.7702 34.954 36.6314 35.481C36.5752 35.6946 36.6046 36.0869 36.6991 36.3838C36.7858 36.6562 37.0218 37.1396 37.0682 37.1396C37.0859 37.1397 37.1205 37.1822 37.1449 37.2342C37.3658 37.7049 38.5335 38.0652 39.0252 37.8144C39.1187 37.7666 39.2208 37.7276 39.2521 37.7276C39.2832 37.7276 39.3494 37.6898 39.3989 37.6436C39.4485 37.5974 39.5048 37.5596 39.5239 37.5596C39.619 37.5596 40.1646 36.8884 40.1646 36.7713C40.1646 36.7443 40.2015 36.6509 40.2468 36.5635C40.4265 36.2162 40.3984 35.2743 40.1962 34.8721C39.7277 33.9403 38.9825 33.5514 38.0647 33.7596Z" fill="#FF6584"/>
<path opacity="0.1" d="M34.7966 4.37459e-06C27.9164 -0.0034565 21.1898 2.04666 15.4677 5.89097C9.74568 9.73528 5.28526 15.2011 2.65075 21.5968C0.0162404 27.9926 -0.673967 35.031 0.66744 41.8216C2.00885 48.6122 5.32159 54.8499 10.1866 59.7455C15.0516 64.6412 21.2503 67.9748 27.9984 69.3246C34.7465 70.6745 41.7409 69.9799 48.0966 67.3288C54.4524 64.6777 59.884 60.1892 63.7042 54.4311C67.5245 48.673 69.5618 41.9041 69.5583 34.9806C69.5537 25.7046 65.8899 16.8098 59.3718 10.2507C52.8537 3.69158 44.0145 0.00464122 34.7966 4.37459e-06ZM34.7966 65.3135C28.8348 65.3135 23.007 63.5345 18.0499 60.2015C13.0929 56.8685 9.22943 52.1311 6.94797 46.5885C4.66651 41.0459 4.06958 34.947 5.23266 29.063C6.39574 23.179 9.26658 17.7742 13.4822 13.532C17.6978 9.28992 23.0687 6.401 28.9159 5.2306C34.7631 4.0602 40.8239 4.66089 46.3318 6.95671C51.8398 9.25253 56.5475 13.1404 59.8596 18.1286C63.1718 23.1168 64.9397 28.9814 64.9397 34.9806C64.9397 43.0254 61.7639 50.7407 56.1109 56.4292C50.458 62.1177 42.791 65.3135 34.7966 65.3135Z" fill="black"/>
</svg>
