<svg width="70" height="70" viewBox="0 0 70 70" fill="none" xmlns="http://www.w3.org/2000/svg">
<path d="M55.0069 24.4148L44.5975 35.0718C44.5792 35.0894 44.5646 35.1106 44.5547 35.1341C44.5447 35.1575 44.5396 35.1828 44.5396 35.2083C44.5396 35.2338 44.5447 35.259 44.5547 35.2825C44.5646 35.3059 44.5792 35.3271 44.5975 35.3447L51.9011 43.1598C52.0758 43.337 52.1946 43.5621 52.2427 43.807C52.2907 44.0518 52.2658 44.3055 52.1711 44.5362C52.0763 44.7669 51.916 44.9642 51.7102 45.1035C51.5044 45.2428 51.2623 45.3179 51.0142 45.3192C50.6805 45.3185 50.3605 45.1852 50.1239 44.9482L42.8585 37.1611C42.8214 37.1244 42.7715 37.1038 42.7194 37.1038C42.6673 37.1038 42.6174 37.1244 42.5803 37.1611L40.81 38.9601C40.0852 39.7059 39.2196 40.2985 38.264 40.703C37.3084 41.1075 36.2821 41.3157 35.2454 41.3154C34.189 41.3105 33.1443 41.0938 32.1721 40.678C31.1999 40.2621 30.3199 39.6555 29.5833 38.8936L27.8826 37.1436C27.8455 37.1069 27.7955 37.0863 27.7435 37.0863C27.6914 37.0863 27.6415 37.1069 27.6044 37.1436L20.3564 44.9132C20.2398 45.0308 20.1013 45.1241 19.9488 45.1877C19.7963 45.2513 19.6329 45.2841 19.4678 45.2841C19.3027 45.2841 19.1393 45.2513 18.9868 45.1877C18.8343 45.1241 18.6958 45.0308 18.5792 44.9132C18.4619 44.7961 18.3689 44.6568 18.3054 44.5033C18.2419 44.3499 18.2092 44.1853 18.2092 44.019C18.2092 43.8528 18.2419 43.6882 18.3054 43.5347C18.3689 43.3812 18.4619 43.2419 18.5792 43.1248L25.855 35.3272C25.8873 35.2892 25.9051 35.2408 25.9051 35.1907C25.9051 35.1407 25.8873 35.0923 25.855 35.0543L15.4456 24.3973C15.4188 24.3703 15.3847 24.3518 15.3475 24.3443C15.3103 24.3368 15.2717 24.3406 15.2366 24.3553C15.2016 24.3699 15.1717 24.3947 15.1506 24.4265C15.1296 24.4583 15.1185 24.4957 15.1187 24.5338V45.8582C15.1214 46.6825 15.448 47.4723 16.0273 48.0552C16.6065 48.6381 17.3914 48.9667 18.2105 48.9695H52.2489C53.0681 48.9667 53.8529 48.6381 54.4321 48.0552C55.0114 47.4723 55.338 46.6825 55.3408 45.8582V24.5513C55.3425 24.5116 55.332 24.4724 55.3106 24.439C55.2893 24.4055 55.2582 24.3795 55.2217 24.3646C55.1851 24.3496 55.1448 24.3465 55.1063 24.3555C55.0679 24.3644 55.0331 24.3852 55.0069 24.4148Z" fill="#FF6584"/>
<path d="M35.2347 38.785C35.9404 38.792 36.6402 38.6561 37.2926 38.3856C37.945 38.115 38.5367 37.7153 39.0326 37.2101L54.1929 21.6814C53.6547 21.2328 52.9788 20.9855 52.28 20.9814H18.2173C17.5182 20.9837 16.8417 21.2313 16.3044 21.6814L31.4682 37.2101C31.9596 37.7124 32.5462 38.1106 33.1931 38.3811C33.84 38.6516 34.5342 38.7889 35.2347 38.785Z" fill="#FF6584"/>
<path opacity="0.1" d="M34.7966 0.00439891C27.9164 0.000938038 21.1898 2.05105 15.4677 5.89536C9.74568 9.73967 5.28526 15.2055 2.65075 21.6012C0.0162405 27.997 -0.673967 35.0354 0.66744 41.826C2.00885 48.6166 5.32159 54.8543 10.1866 59.7499C15.0516 64.6456 21.2503 67.9792 27.9984 69.329C34.7465 70.6789 41.7409 69.9843 48.0966 67.3332C54.4524 64.6821 59.884 60.1936 63.7042 54.4355C67.5245 48.6774 69.5618 41.9085 69.5583 34.985C69.5537 25.709 65.8899 16.8142 59.3718 10.2551C52.8537 3.69597 44.0145 0.00903576 34.7966 0.00439891ZM34.7966 65.3179C28.8348 65.3179 23.007 63.5389 18.0499 60.2059C13.0929 56.8729 9.22943 52.1355 6.94797 46.5929C4.66651 41.0503 4.06958 34.9514 5.23266 29.0674C6.39574 23.1834 9.26658 17.7786 13.4822 13.5364C17.6978 9.29431 23.0687 6.40539 28.9159 5.23499C34.7631 4.06459 40.8239 4.66528 46.3318 6.9611C51.8398 9.25692 56.5475 13.1448 59.8596 18.133C63.1718 23.1212 64.9397 28.9858 64.9397 34.985C64.9397 43.0298 61.7639 50.7451 56.1109 56.4336C50.458 62.1221 42.791 65.3179 34.7966 65.3179Z" fill="black"/>
</svg>
