<svg width="114" height="114" viewBox="0 0 114 114" fill="none" xmlns="http://www.w3.org/2000/svg">
<path d="M56.8767 114C45.6282 114.001 34.632 110.664 25.2787 104.41C15.9255 98.1576 8.63531 89.2691 4.33017 78.8698C0.0250455 68.4702 -1.10168 57.0271 1.09248 45.9865C3.28665 34.9464 8.70317 24.8053 16.657 16.8457C21.9296 11.523 28.2009 7.29482 35.1109 4.40396C42.0208 1.51313 49.4331 0.0165481 56.9226 0.000136459C64.4121 -0.0162752 71.8312 1.44781 78.7536 4.30834C85.676 7.16885 91.9658 11.3695 97.2617 16.6691C102.558 21.9687 106.755 28.2628 109.614 35.1902C112.472 42.1177 113.935 49.5415 113.919 57.0363C113.903 64.5311 112.407 71.949 109.518 78.8634C106.629 85.7782 102.404 92.0539 97.0851 97.3304C91.8174 102.631 85.5511 106.834 78.6493 109.695C71.7475 112.556 64.3474 114.02 56.8767 114ZM72.0046 39.9859L72.4652 41.7618L81.7896 75.5845H89.3763L76.6482 31.7225L76.3385 30.5301H69.7212L69.5677 30.7692L63.3773 41.7703L57.0305 53.0531L56.8767 53.3231L56.8059 53.0531L56.0237 50.1532L53.8567 41.7703L53.6236 40.9363L51.2238 31.7196L50.9137 30.5273H44.3081L44.1547 30.7663L37.967 41.7703L31.62 53.0531L25.3129 64.296L18.966 75.5845H26.547L32.8939 64.3017L39.2408 53.0617L45.5481 41.7789L46.5915 39.9916L47.055 41.7789L48.9888 49.2085L51.3914 58.4624L52.2273 61.6181L50.7204 64.3017L44.3651 75.5845H51.9461L54.6246 70.8236L59.2797 62.5571L64.6396 53.0617L70.9469 41.7789L71.9875 40.0001L72.0046 39.9859Z" fill="#245EC6"/>
</svg>
