<svg width="400" height="400" viewBox="0 0 400 400" fill="none" xmlns="http://www.w3.org/2000/svg">
<path fill-rule="evenodd" clip-rule="evenodd" d="M180.664 57.0088C172.335 60.4068 171.327 86.2098 178.542 111.316C190.597 153.265 212.374 162.103 212.26 125C212.158 91.6448 193.608 51.7278 180.664 57.0088ZM277.201 111.733C238.548 116.102 219.854 164.127 246.227 191.306C274.333 220.269 325.107 197.075 325.107 155.273C325.107 128.677 303.228 108.792 277.201 111.733ZM76.9761 131.688C54.9191 134.244 57.5601 147.373 82.2831 158.07C113.283 171.483 155.486 172.236 155.463 159.375C155.439 145.378 106.826 128.23 76.9761 131.688ZM135.632 204.505C108.282 213.821 68.2271 262.371 76.5701 276.091C83.2501 287.075 117.015 264.991 137.365 236.328C153.084 214.187 152.249 198.844 135.632 204.505ZM246.766 228.546C222.877 230.538 221.377 247.165 243.75 261.992C268.252 278.23 306.927 281.729 314.754 268.416C324.518 251.806 280.114 225.766 246.766 228.546ZM176.758 243.865C167.15 249.297 168.718 284.684 179.83 313.179C190.611 340.827 204.251 349.16 208.744 330.843C216.159 300.611 192.1 235.19 176.758 243.865Z" fill="#040404"/>
<path fill-rule="evenodd" clip-rule="evenodd" d="M0 200V400H200H400V200V0H200H0V200ZM187.016 57.437C199.636 63.743 212.534 98.289 212.532 125.781C212.53 150.174 201.986 156.165 190.158 138.493C169.771 108.031 167.431 47.65 187.016 57.437ZM293.077 112.635C326.73 121.419 336.5 164.109 310.784 190.002C283.391 217.584 238.341 203.264 233.961 165.584C230.167 132.952 261.928 104.505 293.077 112.635ZM96.484 131.679C130.349 135.311 162.367 152.405 154.536 162.672C145.38 174.677 94.107 168.093 70.455 151.876C56.964 142.625 59.389 133.754 75.977 131.676C82.637 130.842 88.687 130.842 96.484 131.679ZM144.799 203.542C158.125 208.591 137.041 244.954 108.008 266.997C73.991 292.822 63.365 275.092 91.586 239.597C109.153 217.501 135.151 199.886 144.799 203.542ZM264.844 229.25C303.337 236.19 330.256 263.672 308.591 273.915C285.476 284.843 231.667 264.553 227.74 243.429C225.575 231.784 242.667 225.253 264.844 229.25ZM184.727 244.83C201.445 256.244 215.989 312.777 207.802 334.522C204.224 344.026 196.191 342.469 188.361 330.756C166.542 298.113 163.681 230.46 184.727 244.83Z" fill="#FCEC54"/>
</svg>
