<svg width="70" height="70" viewBox="0 0 70 70" fill="none" xmlns="http://www.w3.org/2000/svg">
<path d="M50.0335 44.0067C48.8155 42.7887 45.8862 40.9513 44.4338 40.2653C42.7573 39.4604 42.1414 39.4744 40.9549 40.3318C39.968 41.0318 39.3275 41.7073 38.1936 41.4588C37.0596 41.2103 34.8127 39.5164 32.6393 37.35C30.4659 35.1836 28.779 32.9507 28.5375 31.7993C28.296 30.6478 28.961 30.0214 29.668 29.0344C30.5219 27.848 30.5464 27.232 29.7345 25.5556C29.0345 24.1032 27.2181 21.1808 25.9897 19.9559C24.7612 18.7309 24.4952 19.0004 23.8233 19.2559C23.1317 19.5458 22.4676 19.8972 21.8389 20.3058C20.6209 21.1213 19.9385 21.8003 19.459 22.8222C18.9795 23.8442 18.437 25.7411 21.2264 30.7073C23.2841 34.5065 25.8903 37.9818 28.961 41.0213C32.0109 44.099 35.4981 46.71 39.31 48.7699C44.2728 51.5698 46.1732 51.0133 47.1951 50.5373C48.2171 50.0613 48.896 49.3859 49.708 48.1574C50.1174 47.5292 50.4689 46.865 50.7579 46.173C50.9889 45.5011 51.2619 45.2281 50.0335 44.0067Z" fill="#FF6584"/>
<path opacity="0.1" d="M35.0157 0.00415477C28.0922 0.000693883 21.3233 2.05081 15.5652 5.89514C9.80707 9.73947 5.31855 15.2053 2.66744 21.6011C0.0163428 27.9969 -0.678212 35.0353 0.671644 41.826C2.0215 48.6166 5.35512 54.8543 10.2508 59.75C15.1464 64.6456 21.3841 67.9792 28.1747 69.3291C34.9653 70.6789 42.0037 69.9844 48.3996 67.3333C54.7954 64.6822 60.2612 60.1936 64.1055 54.4355C67.9498 48.6774 69.9999 41.9084 69.9965 34.9849C69.9918 25.7089 66.3049 16.8141 59.7457 10.2549C53.1866 3.69575 44.2918 0.00879163 35.0157 0.00415477ZM35.0157 65.3179C29.0164 65.3179 23.1519 63.5389 18.1636 60.2059C13.1754 56.8729 9.28755 52.1355 6.99172 46.5929C4.69589 41.0502 4.09521 34.9513 5.26561 29.0673C6.43601 23.1832 9.32495 17.7784 13.5671 13.5363C17.8092 9.29411 23.214 6.40517 29.0981 5.23477C34.9821 4.06436 41.081 4.66506 46.6236 6.9609C52.1663 9.25673 56.9036 13.1446 60.2367 18.1328C63.5697 23.1211 65.3487 28.9856 65.3487 34.9849C65.3487 38.9683 64.5641 42.9127 63.0397 46.5929C61.5153 50.273 59.2811 53.6169 56.4644 56.4336C53.6477 59.2503 50.3038 61.4846 46.6236 63.009C42.9435 64.5333 38.9991 65.3179 35.0157 65.3179Z" fill="black"/>
</svg>
