<svg width="356" height="114" viewBox="0 0 356 114" fill="none" xmlns="http://www.w3.org/2000/svg">
<g clip-path="url(#clip0_714_8)">
<path d="M56.8767 114C45.6282 114.001 34.632 110.664 25.2787 104.41C15.9255 98.1576 8.63531 89.2691 4.33017 78.8698C0.0250455 68.4702 -1.10168 57.0271 1.09248 45.9865C3.28665 34.9464 8.70317 24.8053 16.657 16.8457C21.9296 11.523 28.2009 7.29482 35.1109 4.40396C42.0208 1.51313 49.4331 0.0165481 56.9226 0.000136459C64.4121 -0.0162752 71.8312 1.44781 78.7536 4.30835C85.676 7.16885 91.9658 11.3695 97.2617 16.6691C102.558 21.9687 106.755 28.2628 109.614 35.1902C112.472 42.1177 113.935 49.5416 113.919 57.0363C113.903 64.5311 112.407 71.949 109.518 78.8634C106.629 85.7782 102.404 92.0539 97.0851 97.3304C91.8174 102.631 85.5511 106.834 78.6493 109.695C71.7475 112.556 64.3474 114.02 56.8767 114ZM72.0046 39.9859L72.4652 41.7618L81.7896 75.5845H89.3763L76.6482 31.7225L76.3385 30.5301H69.7212L69.5677 30.7692L63.3773 41.7703L57.0305 53.0531L56.8767 53.3231L56.8059 53.0531L56.0237 50.1532L53.8567 41.7703L53.6236 40.9363L51.2238 31.7196L50.9137 30.5273H44.3081L44.1547 30.7663L37.967 41.7703L31.62 53.0531L25.3129 64.296L18.966 75.5845H26.547L32.8939 64.3017L39.2408 53.0617L45.5481 41.7789L46.5915 39.9916L47.055 41.7789L48.9888 49.2085L51.3914 58.4624L52.2273 61.6181L50.7204 64.3017L44.3651 75.5845H51.9461L54.6246 70.8236L59.2797 62.5571L64.6396 53.0617L70.9469 41.7789L71.9875 40.0001L72.0046 39.9859Z" fill="#245EC6"/>
<path d="M146.925 78.9437L155.877 30.3974C155.953 30.1031 156.119 29.84 156.353 29.6455C156.586 29.451 156.875 29.3349 157.178 29.3135H158.336C158.592 29.3267 158.84 29.407 159.056 29.5463C159.272 29.6857 159.447 29.8792 159.564 30.1076L174.653 67.0236H174.942L189.952 30.1076C190.062 29.8731 190.235 29.6742 190.452 29.5337C190.669 29.3933 190.922 29.317 191.18 29.3135H192.339C192.642 29.3349 192.93 29.451 193.164 29.6455C193.397 29.84 193.563 30.1031 193.639 30.3974L202.518 78.9465C202.594 79.145 202.617 79.3594 202.585 79.5693C202.553 79.7791 202.468 79.9772 202.337 80.1443C202.206 80.3113 202.034 80.4417 201.838 80.5229C201.642 80.6038 201.429 80.633 201.218 80.607H196.518C196.213 80.5978 195.919 80.4962 195.674 80.3156C195.429 80.135 195.244 79.8838 195.145 79.5956L189.811 47.3019H189.593L176.599 80.5347C176.506 80.7812 176.337 80.9914 176.116 81.1346C175.895 81.2775 175.633 81.3455 175.371 81.3288H174.07C173.81 81.3352 173.553 81.2629 173.334 81.1211C173.115 80.9797 172.944 80.7752 172.842 80.5347L159.775 47.3019H159.486L154.29 79.5956C154.207 79.8799 154.037 80.1304 153.804 80.312C153.57 80.4937 153.285 80.597 152.99 80.607H148.298C148.086 80.6291 147.872 80.5985 147.674 80.5176C147.477 80.4367 147.302 80.3081 147.166 80.1435C147.03 79.979 146.937 79.783 146.895 79.5739C146.853 79.3644 146.864 79.1478 146.925 78.9437ZM216.255 79.5928L203.694 53.5851C203.585 53.3828 203.532 53.1548 203.542 52.925C203.551 52.6952 203.623 52.4722 203.748 52.2795C203.874 52.0871 204.05 51.9321 204.256 51.8316C204.463 51.7308 204.693 51.6877 204.922 51.7073H209.686C209.94 51.7298 210.184 51.8142 210.398 51.9524C210.612 52.0906 210.789 52.2791 210.914 52.5014L219.866 71.7186H219.938L228.6 52.5014C228.736 52.2253 228.956 51.9994 229.228 51.8566C229.5 51.7137 229.811 51.6614 230.115 51.7073H234.231C234.464 51.6731 234.702 51.7066 234.917 51.8039C235.131 51.9008 235.314 52.0568 235.443 52.2542C235.572 52.4515 235.642 52.6817 235.645 52.9175C235.647 53.1533 235.583 53.3849 235.458 53.5851L213.367 101.404C213.262 101.648 213.091 101.857 212.875 102.011C212.658 102.164 212.404 102.255 212.139 102.273H207.813C207.575 102.296 207.336 102.251 207.122 102.146C206.908 102.04 206.727 101.877 206.6 101.675C206.473 101.473 206.404 101.24 206.402 101.001C206.399 100.763 206.462 100.528 206.585 100.323L216.255 79.5928ZM233.156 80.6042C232.927 80.6238 232.697 80.5807 232.49 80.4798C232.284 80.379 232.108 80.2244 231.982 80.0317C231.856 79.8393 231.785 79.6163 231.776 79.3865C231.766 79.1567 231.819 78.9284 231.928 78.7264L254.095 30.1076C254.227 29.8916 254.406 29.7081 254.618 29.5706C254.831 29.4332 255.072 29.3453 255.323 29.3135H256.044C256.295 29.3453 256.536 29.4332 256.748 29.5706C256.961 29.7081 257.14 29.8916 257.272 30.1076L279.282 78.7292C279.391 78.9316 279.444 79.1596 279.435 79.3894C279.425 79.6191 279.354 79.8422 279.228 80.0345C279.102 80.2273 278.926 80.3819 278.72 80.4827C278.513 80.5835 278.283 80.6266 278.054 80.607H273.507C273.152 80.6255 272.799 80.5304 272.501 80.3356C272.203 80.1407 271.974 79.8564 271.848 79.5233L267.376 69.6263H243.77C242.322 72.9501 240.811 76.1991 239.366 79.5233C239.223 79.8454 238.991 80.1193 238.696 80.3117C238.402 80.5041 238.058 80.6067 237.706 80.607L233.156 80.6042ZM246.585 63.4098H264.639L255.754 43.6301H255.392L246.585 63.4098ZM282.207 79.2305V31.4088C282.219 31.0482 282.367 30.7055 282.622 30.4503C282.877 30.1952 283.219 30.0467 283.58 30.0351H287.695C288.056 30.0467 288.398 30.1952 288.653 30.4503C288.908 30.7055 289.056 31.0482 289.068 31.4088V79.2276C289.056 79.5882 288.908 79.9309 288.653 80.1863C288.398 80.4414 288.056 80.5896 287.695 80.6013H283.574C283.214 80.5899 282.873 80.4421 282.618 80.1881C282.363 79.9344 282.214 79.5931 282.201 79.2333L282.207 79.2305ZM293.855 78.8682C293.937 77.1717 294.45 75.5244 295.348 74.083C296.245 72.6413 297.496 71.4532 298.981 70.6317C297.494 68.601 296.709 66.1415 296.742 63.6242C296.707 61.9727 297.003 60.3303 297.612 58.7949C298.22 57.2595 299.13 55.8612 300.288 54.6831C301.445 53.5049 302.826 52.5705 304.35 51.935C305.874 51.2994 307.51 50.9756 309.161 50.9827H321.793C321.975 50.9763 322.157 51.0073 322.326 51.0739C322.496 51.1409 322.65 51.2417 322.778 51.3707C322.907 51.4996 323.008 51.6535 323.075 51.8231C323.142 51.9927 323.173 52.1744 323.166 52.3564V54.1619C323.166 54.666 322.877 55.3211 322.373 55.3906L318.402 56.4746C319.462 57.4511 320.289 58.652 320.825 59.9898C321.36 61.3278 321.59 62.7685 321.498 64.2067C321.495 65.7952 321.172 67.367 320.547 68.8276C319.923 70.2882 319.011 71.6078 317.865 72.7072C316.719 73.8066 315.363 74.6633 313.878 75.2259C312.394 75.7887 310.811 76.0456 309.224 75.9818C307.084 75.9145 304.966 75.5237 302.943 74.8226C302.143 75.0306 301.428 75.4834 300.897 76.1179C300.366 76.752 300.047 77.5365 299.983 78.3612C299.996 78.7912 300.099 79.2141 300.285 79.602C300.471 79.99 300.737 80.3345 301.064 80.6134C301.392 80.8924 301.774 81.0997 302.186 81.2219C302.599 81.3441 303.032 81.3787 303.458 81.3231H313.276C319.558 81.3231 324.611 84.7196 324.611 91.0028C324.611 97.3611 318.836 102.995 309.233 102.995C299.054 102.995 294.938 97.7929 294.938 93.0979C294.984 91.6903 295.403 90.3198 296.152 89.1271C296.9 87.934 297.951 86.9611 299.198 86.3077V86.0904C297.644 85.633 296.281 84.6811 295.316 83.379C294.35 82.0769 293.836 80.4952 293.849 78.8742L293.855 78.8682ZM309.306 70.4144C310.152 70.4158 310.99 70.2398 311.764 69.8985C312.539 69.5572 313.234 69.0581 313.805 68.4325C314.376 67.807 314.81 67.0692 315.079 66.2662C315.349 65.4632 315.448 64.6125 315.37 63.7692C315.448 62.9256 315.349 62.0753 315.079 61.2723C314.81 60.4689 314.376 59.7311 313.805 59.1056C313.234 58.4803 312.539 57.9809 311.764 57.6396C310.99 57.2983 310.152 57.1227 309.306 57.1237C308.443 57.1095 307.586 57.2737 306.79 57.6065C305.993 57.9388 305.274 58.433 304.677 59.0567C304.081 59.6809 303.619 60.4215 303.322 61.2324C303.025 62.0436 302.899 62.9071 302.952 63.7692C302.898 64.631 303.024 65.4949 303.32 66.3061C303.616 67.1173 304.077 67.8586 304.673 68.4831C305.269 69.1076 305.988 69.6021 306.784 69.9356C307.58 70.269 308.437 70.4339 309.3 70.4204L309.306 70.4144ZM301.654 91.9447C301.654 94.9065 304.759 97.0743 309.161 97.0743C313.563 97.0743 317.391 94.8339 317.391 91.3679C317.391 90.2087 316.67 87.2497 311.976 87.2497C309.882 87.2497 307.716 87.2497 305.622 87.3947C305.185 87.5421 301.646 88.6985 301.646 91.9504L301.654 91.9447ZM326.08 66.0816C326.205 63.2227 327.166 60.4636 328.844 58.1465C330.523 55.8295 332.844 54.0568 335.521 53.049C338.198 52.0411 341.111 51.842 343.899 52.4768C346.688 53.1113 349.229 54.552 351.206 56.6193C353.184 58.6866 354.511 61.2894 355.022 64.1052C355.534 66.9206 355.208 69.8248 354.085 72.4564C352.962 75.088 351.091 77.3317 348.704 78.9084C346.318 80.4855 343.521 81.3259 340.661 81.3259C336.709 81.2354 332.953 79.5803 330.218 76.7232C327.483 73.8661 325.992 70.0403 326.071 66.0848L326.08 66.0816ZM332.506 66.0816C332.392 67.2224 332.519 68.3741 332.877 69.4628C333.235 70.5512 333.817 71.5529 334.586 72.4026C335.355 73.2522 336.293 73.9316 337.339 74.3962C338.386 74.8611 339.519 75.1012 340.664 75.1012C341.809 75.1012 342.942 74.8611 343.989 74.3962C345.036 73.9316 345.974 73.2522 346.743 72.4026C347.512 71.5529 348.094 70.5512 348.452 69.4628C348.81 68.3741 348.936 67.2224 348.823 66.0816C348.907 64.958 348.759 63.8287 348.388 62.765C348.016 61.7008 347.429 60.7251 346.663 59.8989C345.897 59.0724 344.969 58.4134 343.937 57.9624C342.905 57.5117 341.791 57.2791 340.664 57.2791C339.538 57.2791 338.424 57.5117 337.392 57.9624C336.359 58.4134 335.431 59.0724 334.666 59.8989C333.9 60.7251 333.312 61.7008 332.941 62.765C332.569 63.8287 332.421 64.958 332.506 66.0816Z" fill="#245EC6"/>
</g>
<defs>
<clipPath id="clip0_714_8">
<rect width="356" height="114" fill="white"/>
</clipPath>
</defs>
</svg>
