<svg width="356" height="114" viewBox="0 0 356 114" fill="none" xmlns="http://www.w3.org/2000/svg">
<path fill-rule="evenodd" clip-rule="evenodd" d="M51.4892 16.2473C49.1154 17.2157 48.8281 24.5696 50.8844 31.7248C54.3201 43.6803 60.5265 46.1991 60.494 35.6247C60.4649 26.1186 55.1782 14.7422 51.4892 16.2473ZM79.0022 31.8436C67.9861 33.0888 62.6583 46.7759 70.1746 54.5219C78.1848 62.7764 92.6554 56.1661 92.6554 44.2525C92.6554 36.6727 86.4199 31.0055 79.0022 31.8436ZM21.9381 37.5308C15.6518 38.2593 16.4045 42.001 23.4506 45.0497C32.2856 48.8724 44.3134 49.087 44.3069 45.4216C44.3 41.4325 30.4453 36.5453 21.9381 37.5308ZM38.655 58.2837C30.8603 60.9387 19.4446 74.7755 21.8224 78.6857C23.7262 81.8161 33.3492 75.5222 39.1489 67.3532C43.6289 61.043 43.3909 56.6703 38.655 58.2837ZM70.3282 65.1353C63.5199 65.7031 63.0924 70.4418 69.4687 74.6675C76.4517 79.2953 87.4741 80.2925 89.7048 76.4983C92.4875 71.7644 79.8324 64.343 70.3282 65.1353ZM50.3759 69.5013C47.6377 71.0494 48.0845 81.1347 51.2515 89.2557C54.3241 97.1354 58.2115 99.5103 59.492 94.29C61.6052 85.6739 54.7484 67.0289 50.3759 69.5013Z" fill="#040404"/>
<path fill-rule="evenodd" clip-rule="evenodd" d="M0 57V114H57H114V57V0H57H0V57ZM53.2996 16.3695C56.8963 18.1668 60.5722 28.0124 60.5716 35.8476C60.571 42.7996 57.566 44.507 54.195 39.4705C48.3847 30.7888 47.7178 13.5802 53.2996 16.3695ZM83.5269 32.101C93.118 34.6044 95.9025 46.7711 88.5734 54.1506C80.7664 62.0114 67.9272 57.9302 66.6789 47.1914C65.5976 37.8913 74.6495 29.7839 83.5269 32.101ZM27.4979 37.5285C37.1495 38.5636 46.2746 43.4354 44.0428 46.3615C41.4333 49.7829 26.8205 47.9065 20.0797 43.2847C16.2347 40.6481 16.9259 38.1199 21.6534 37.5277C23.5515 37.29 25.2758 37.29 27.4979 37.5285ZM41.2677 58.0095C45.0656 59.4484 39.0567 69.8119 30.7823 76.0941C21.0874 83.4543 18.059 78.4012 26.102 68.2851C31.1086 61.9878 38.518 56.9675 41.2677 58.0095ZM75.4805 65.3362C86.451 67.3141 94.123 75.1465 87.9484 78.0658C81.3607 81.1803 66.0251 75.3976 64.9059 69.3773C64.2889 66.0584 69.1601 64.1971 75.4805 65.3362ZM52.6472 69.7765C57.4118 73.0295 61.5569 89.1414 59.2236 95.3388C58.2038 98.0474 55.9144 97.6037 53.6829 94.2655C47.4645 84.9622 46.6491 65.6811 52.6472 69.7765Z" fill="#FCEC54"/>
<path d="M156.013 43.0963V41.1521H148V93H156.013V79.0303C156.013 77.5184 156.013 76.2938 155.865 74.6369H156.013C158.924 79.3902 163.878 81.9091 169.707 81.9091C179.541 81.9091 188.134 74.4918 188.134 60.7369C188.134 47.2722 179.541 40 169.707 40C164.098 40 159.145 42.4492 156.013 47.2722H155.865C156.013 45.6877 156.013 44.5385 156.013 43.0963V43.0963ZM167.665 75.0693C160.235 74.9967 155.937 68.7316 155.937 60.6672C155.937 53.0352 160.235 46.9151 167.665 46.8398C174.95 46.7701 179.758 52.3853 179.758 60.7397C179.758 69.309 174.95 75.1418 167.665 75.0693ZM230.208 57.3561C230.211 47.4172 222.201 40 211.274 40C199.619 40 191.533 47.8496 191.533 60.9545C191.533 73.5574 199.474 81.9091 211.274 81.9091C220.963 81.9091 228.175 76.2938 229.849 68.5893H221.108C219.724 72.4778 215.934 75.0693 211.274 75.0693C205.3 75.0693 200.929 70.8209 199.984 63.7635H230.211V57.3561H230.208ZM211.271 46.8398C217.17 46.8398 221.25 50.8734 222.123 56.7062H200.054C201.072 51.0882 205.225 46.8398 211.271 46.8398V46.8398ZM236.099 80.7598H244.111V58.4356C244.111 50.8008 248.337 46.8398 254.894 46.8398H259.189V40H255.767C249.868 40 246.225 43.8885 244.111 47.2722H243.966V41.1521H236.101V80.757L236.099 80.7598ZM296.648 73.8447C295.554 73.8447 295.047 73.1975 295.047 71.9004V54.4774C295.047 46.1229 290.966 40.0028 278.949 40.0028C267.291 40.0028 261.975 45.7631 261.392 53.9725H269.405C269.915 49.5093 273.485 46.8426 278.949 46.8426C283.609 46.8426 286.814 48.8594 286.814 52.031C286.814 54.6224 284.992 56.2041 279.021 56.2041H275.814C266.276 56.2041 259.861 60.0228 259.861 68.7344C259.861 77.8811 266.638 82.0569 274.578 82.0569C280.477 82.0569 285.503 79.4627 287.469 73.92C287.689 77.9536 290.384 80.7598 295.482 80.7598H300V73.8475H296.645L296.648 73.8447ZM287.034 62.3242C287.034 71.2505 282.153 75.1418 275.889 75.1418C270.426 75.1418 268.239 71.9729 268.239 68.7316C268.239 65.6353 270.135 63.1164 275.962 63.1164H277.127C282.733 63.1164 286.231 61.1721 286.961 57.7885H287.034V62.3242V62.3242Z" fill="#FCEC54"/>
</svg>
