<svg width="auto" height="auto" viewBox="0 0 602 240" fill="none" xmlns="http://www.w3.org/2000/svg">
<g clip-path="url(#clip0_830_63)">
<path fill-rule="evenodd" clip-rule="evenodd" d="M34 1.39934C45.2 -3.70066 58.3 2.19934 62.2 13.9993L72.8 46.1993C79.7 52.1993 83.6 60.9993 83.6 70.2993V150.099C83.6 157.299 77.9 163.099 70.8 163.099C70.6 163.099 70.4 163.099 70.2 163.099V197.499C70.2 202.699 73.9 207.199 78.9 208.099L83.6 208.899C89 209.899 93 214.699 93 220.199C93 221.599 92.8 222.899 92.3 224.099C92.3 224.299 92.4 224.599 92.4 224.799C92.4 233.399 67.1 240.299 36 240.299C4.79998 240.299 -20.4 233.399 -20.4 224.799C-20.4 217.599 -2.30002 211.499 22.1 209.799L22.6 135.899C16.2 129.599 12.4 120.699 12.7 110.999L14.4 59.4993C14.5 56.5993 15.6 53.7994 17.5 51.5993L23 45.1993C23.3 44.8993 23.4 44.4993 23.4 43.9993L21.9 22.1993C21.1 13.2993 26 4.99934 34 1.39934ZM41.8 160.199V216.699C40.9 216.899 39.8 216.999 38.7 216.899C36.5 216.899 34.2 216.499 32.2 215.999C30.7 215.599 29.4 214.099 29.4 211.899L29.8 156.699C32.3 158.099 38.2 159.999 41.8 160.199ZM58 162.099C58 165.199 59.9 167.899 62.7 168.899V197.399C62.7 206.299 69 213.899 77.6 215.499L82.3 216.299C84.1 216.599 85.5 218.299 85.5 220.199C85.5 222.099 84.3 223.499 82.6 223.799C74.8 225.099 61.2 226.799 50.8 225.199C50.1 225.099 49.3 224.399 49.3 223.199V141.799C49.3 139.599 47.5 137.799 45.3 137.799C31 137.799 19.5 125.799 20 111.299L21.7 59.7993C21.7 58.5993 22.2 57.4993 22.9 56.5993L28.4 50.1993C30 48.3993 30.8 45.8993 30.6 43.4993L29.1 21.6993C28.7 15.9993 31.9 10.6993 37 8.39934C44.2 5.19934 52.5 8.89934 55 16.4993L65.8 49.4993C66.1 50.2993 66.5 50.9993 67.2 51.4993C72.8 56.0993 76 62.9993 76 70.2993V150.099C76 153.099 73.6 155.499 70.7 155.499C67.8 155.499 65.4 153.099 65.4 150.099V76.2993H58V150.099V150.199V162.099Z" fill="black"/>
<path fill-rule="evenodd" clip-rule="evenodd" d="M41.7 160.2V216.7C40.8 216.9 39.7 217 38.6 216.9C36.4 216.9 34.1 216.5 32.1 216C30.6 215.6 29.3 214.1 29.3 211.9L29.7 156.7C32.3 158.1 38.2 160 41.7 160.2ZM57.9 162.1C57.9 165.2 59.8 167.9 62.6 168.9V197.4C62.6 206.3 68.9 213.9 77.5 215.5L82.2 216.3C84 216.6 85.4 218.3 85.4 220.2C85.4 222.1 84.2 223.5 82.5 223.8C74.7 225.1 61.1 226.8 50.7 225.2C50 225.1 49.2 224.4 49.2 223.2V141.8C49.2 139.6 47.4 137.8 45.2 137.8C30.9 137.8 19.4 125.8 19.9 111.3L21.6 59.7997C21.6 58.5997 22.1 57.4997 22.8 56.5997L28.3 50.1997C29.9 48.3997 30.7 45.8997 30.5 43.4997L29 21.6997C28.6 15.9997 31.8 10.6997 36.9 8.39969C44.1 5.19969 52.4 8.8997 54.9 16.4997L65.7 49.4997C66 50.2997 66.4 50.9997 67.1 51.4997C72.7 56.0997 75.9 62.9997 75.9 70.2997V150C75.9 153 73.5 155.4 70.6 155.4C67.7 155.4 65.3 153 65.3 150V76.1997H57.8V150V150.1V162.1H57.9Z" fill="#F2FE67"/>
<path d="M154 190.199C150.4 188.299 147.7 185.799 145.9 182.299C144 178.799 143.1 174.799 143.1 170.199L142.9 147.599H132.9V131.899H143V116.299L163.7 111.699L163.5 131.899H185.1V147.599H163.3L163.5 166.699C163.5 168.799 163.8 170.699 164.6 171.899C165.4 173.299 166.3 174.399 167.6 175.099C168.9 175.899 170.3 176.199 171.8 176.199C174 176.199 176 175.699 177.7 174.799C179.4 173.799 181.1 172.299 182.9 170.299L187.9 183.799C185.6 186.699 182.4 188.899 178.7 190.499C174.9 192.099 170.9 192.899 166.8 192.899C161.8 193.099 157.6 192.099 154 190.199Z" fill="black"/>
<path d="M198 121.999C195.8 119.899 194.7 117.099 194.7 113.599C194.7 111.399 195.2 109.499 196.1 107.699C197 105.999 198.4 104.499 200.3 103.599C202.2 102.599 204.2 102.199 206.4 102.199C210 102.199 212.8 103.299 215 105.399C217.2 107.499 218.3 110.299 218.3 113.699C218.3 115.899 217.8 117.999 216.9 119.699C216 121.399 214.6 122.899 212.7 123.799C210.8 124.799 208.8 125.199 206.4 125.199C203 125.199 200.2 124.099 198 121.999ZM196.2 131.899H216.7V190.899H196.2V131.899Z" fill="black"/>
<path d="M277.5 132.7C280.2 134.1 282.2 136.4 283.8 139.2C285.2 142.1 286 145.4 286 149.4V190.9H265.3V156.1C265.3 153.4 264.7 151.3 263.3 149.7C262 148.3 260.2 147.5 257.8 147.5C255.9 147.5 254.4 148 252.9 148.8C251.5 149.6 250.4 150.9 249.5 152.5C248.7 154.1 248.2 156 248.2 158.2V190.8H227.7V132H244.8L248.1 143H248.3C250.3 139 253 136 256.3 133.8C259.6 131.6 263.5 130.5 267.7 130.5C271.6 130.5 274.8 131.3 277.5 132.7Z" fill="black"/>
<path d="M308.3 216C304.7 215.2 301.4 214.3 298.4 212.8C295.4 211.4 292.9 209.8 290.9 207.9L297.3 192.5C298.9 194.1 300.7 195.4 302.9 196.5C305.1 197.6 307.4 198.4 309.8 199C312.1 199.6 314.7 200 317.2 200C320.5 200 323.5 199.4 326 198.3C328.5 197.2 330.4 195.4 331.8 193.2C333.2 191 333.8 188.3 333.8 185.4V180.5H333.6C331.7 184.3 329.4 187.3 326.2 189.4C323.1 191.5 319.6 192.6 315.9 192.6C311.7 192.6 308.1 191.6 305.3 189.9C302.5 188.2 300.1 185.6 298.4 182.3C296.7 179 295.9 175.1 295.9 170.7V132.1H316.6V166.3C316.6 168.2 316.9 170 317.5 171.4C318.1 172.8 319.1 173.9 320.2 174.7C321.3 175.5 322.7 175.8 324.3 175.8C326 175.8 327.4 175.3 329 174.5C330.4 173.7 331.5 172.6 332.4 171C333.2 169.4 333.7 167.7 333.7 165.8V132.1H354.2V186.3C354.2 192.5 352.8 198.1 349.8 202.7C347 207.3 342.8 211 337.4 213.5C332.1 216 325.8 217.3 318.9 217.3C315.5 217.1 311.8 216.8 308.3 216Z" fill="black"/>
<path d="M365 131.9H381.3L384.4 143.2H384.6C386.2 139.2 388.7 136 392.3 133.8C395.9 131.6 399.8 130.5 404 130.5C408.4 130.5 412.1 131.6 415 133.8C417.8 136 420 139.2 421.1 143.5H421.3C423.2 139.2 426 136 429.6 133.8C433.2 131.6 437.1 130.5 441.5 130.5C445.1 130.5 448.2 131.3 450.9 132.9C453.6 134.5 455.6 136.9 456.8 140.1C458.2 143.3 458.8 146.9 458.8 151.1V191H438.4L438.2 156.2C438.2 153.5 437.6 151.4 436.2 150.2C434.9 148.8 433.1 148.1 430.9 148.1C429 148.1 427.6 148.6 426.2 149.4C424.9 150.2 423.8 151.5 423.2 153.1C422.6 154.7 422.3 156.6 422.3 158.7L422.1 191.1H401.6V156.3C401.6 153.6 401 151.5 399.7 150.3C398.4 148.9 396.6 148.2 394.2 148.2C391.4 148.2 389.2 149.2 387.8 151.1C386.2 153 385.5 155.5 385.5 158.7V191.1H364.8V132.1H365V131.9Z" fill="black"/>
<path d="M476.3 190.199C473.3 188.799 470.8 186.899 469.3 184.299C467.6 181.799 466.8 178.899 466.8 175.599C466.8 170.399 469 166.099 473.4 162.599C477.8 159.299 484 156.999 492.2 156.199L502.1 155.199C503.4 154.999 504.3 154.599 505.2 153.799C506.1 152.999 506.5 152.099 506.5 150.799C506.5 149.499 506.2 148.399 505.6 147.499C505 146.499 504 145.799 502.8 145.299C501.6 144.699 500.3 144.499 498.7 144.499C496.8 144.499 495.3 144.999 493.8 145.799C492.4 146.599 491.3 147.699 490.5 149.299C489.7 150.699 489.1 152.499 488.9 154.199L469 151.499C469.3 147.399 470.7 143.599 473.1 140.199C475.6 136.899 478.9 134.299 483.1 132.399C487.3 130.699 492.3 129.699 498 129.699C503.8 129.699 508.8 130.699 513.2 132.699C517.6 134.799 520.9 137.599 523.1 141.299C525.4 144.999 526.5 149.199 526.5 154.199V174.699C526.5 175.999 526.8 176.899 527.3 177.699C527.8 178.299 528.5 178.699 529.5 178.699C530.1 178.699 530.8 178.499 531.5 178.199C532.3 177.899 533.1 177.399 533.7 176.599L537.5 187.399C535.6 188.999 533.3 190.299 530.5 191.199C527.7 192.199 524.7 192.599 521.9 192.599C519.4 192.599 517 192.099 514.9 191.299C512.9 190.299 511 189.199 509.6 187.799C508.2 186.399 507.3 184.599 506.9 182.699L506.7 181.299H506.5C505.2 183.499 503.7 185.599 501.6 187.199C499.7 188.899 497.4 190.199 494.9 191.199C492.2 192.199 489.6 192.599 486.6 192.599C482.7 192.299 479.5 191.699 476.3 190.199ZM500.6 176.999C502.3 175.999 503.6 174.799 504.4 173.199C505.3 171.499 505.8 169.699 505.8 167.599V165.699L497.5 166.499C493.9 166.799 491.4 167.599 489.8 168.699C488.2 169.799 487.5 171.199 487.5 172.999C487.5 174.599 488.1 175.899 489.5 176.799C490.9 177.699 492.8 178.199 495.1 178.199C497.1 178.499 499 177.999 500.6 176.999Z" fill="black"/>
<path d="M593.9 132.7C596.6 134.1 598.6 136.4 600.2 139.2C601.6 142.1 602.4 145.4 602.4 149.4V190.9H581.7V156.1C581.7 153.4 581.1 151.3 579.7 149.7C578.4 148.3 576.6 147.5 574.2 147.5C572.3 147.5 570.8 148 569.3 148.8C567.9 149.6 566.8 150.9 565.9 152.5C565.1 154.1 564.6 156 564.6 158.2V190.8H544V132H561L564.3 143H564.5C566.5 139 569.2 136 572.5 133.8C575.8 131.6 579.7 130.5 583.9 130.5C588 130.5 591.1 131.3 593.9 132.7Z" fill="black"/>
</g>
<defs>
<clipPath id="clip0_830_63">
<rect width="602" height="240" fill="white"/>
</clipPath>
</defs>
</svg>
