<svg width="100%" height="100%" viewBox="0 0 1081 881" fill="none" xmlns="http://www.w3.org/2000/svg">
<g clip-path="url(#clip0_570_3)">
<path d="M925.158 805.886V871.618C925.155 874.105 924.169 876.49 922.416 878.249C920.663 880.008 918.286 880.998 915.806 881.001H173.02C170.541 880.995 168.166 880.005 166.413 878.246C164.66 876.488 163.673 874.105 163.668 871.618V788.353C164.55 787.415 165.431 786.49 166.34 785.566C215.68 734.251 275.084 693.752 340.805 666.624C406.526 639.496 477.137 626.328 548.184 627.95C619.231 629.572 689.171 645.949 753.594 676.049C818.017 706.148 875.524 749.316 922.486 802.83C923.394 803.835 924.276 804.867 925.158 805.886Z" fill="#6C63FF"/>
<path d="M471.642 775.669L445.147 776.403C441.123 776.611 437.141 775.491 433.811 773.214C430.933 771.067 429.613 768.164 430.192 765.249L435.406 738.96C436.388 734.001 442.446 730.252 449.807 730.048L464.439 729.642C471.801 729.439 478.055 732.847 479.309 737.744L485.961 763.704C486.699 766.583 485.54 769.554 482.786 771.857C479.586 774.315 475.672 775.653 471.642 775.669Z" fill="#3F3D56"/>
<path d="M632.798 774.918L606.303 775.652C602.279 775.86 598.297 774.74 594.967 772.463C592.09 770.316 590.77 767.413 591.348 764.498L596.562 738.21C597.545 733.25 603.602 729.501 610.963 729.297L625.595 728.891C632.957 728.688 639.211 732.096 640.465 736.993L647.117 762.953C647.855 765.832 646.697 768.803 643.942 771.107C640.742 773.564 636.828 774.902 632.798 774.918Z" fill="#3F3D56"/>
<path d="M379.641 551.739C378.431 551.216 377.435 550.294 376.818 549.125C376.201 547.957 376 546.612 376.248 545.313C376.497 544.014 377.18 542.84 378.184 541.983C379.189 541.127 380.454 540.64 381.772 540.604L682.985 532.259C683.744 532.238 684.5 532.367 685.21 532.639C685.92 532.911 686.569 533.32 687.121 533.844C687.673 534.368 688.117 534.996 688.427 535.692C688.737 536.387 688.907 537.138 688.928 537.899V537.9C688.969 539.438 688.4 540.93 687.345 542.048C686.291 543.166 684.838 543.818 683.305 543.863L683.304 543.862L382.091 552.207C381.25 552.233 380.414 552.073 379.641 551.739Z" fill="#3F3D56"/>
<path d="M490.804 451.693L404.703 454.078L412.73 745.741L498.831 743.356L490.804 451.693Z" fill="#E6E6E6"/>
<path d="M492.989 446.452L476.438 491.689L476.452 697.784L496.62 703.586L492.989 446.452Z" fill="#CCCCCC"/>
<path d="M447.305 375.469C431.197 375.928 418.907 403.897 419.202 414.812L419.746 434.571L478.073 432.955L477.529 413.196C477.223 402.282 463.414 375.035 447.305 375.469Z" fill="#3F3D56"/>
<path d="M405.82 574.863C402.81 574.943 399.892 573.822 397.705 571.745C395.518 569.669 394.242 566.808 394.155 563.788L393.27 531.632C393.187 528.611 394.303 525.681 396.373 523.486C398.443 521.291 401.297 520.012 404.308 519.928C407.318 519.845 410.238 520.965 412.426 523.042C414.614 525.118 415.889 527.982 415.972 531.003L416.857 563.159C416.937 566.179 415.82 569.107 413.75 571.301C411.681 573.495 408.829 574.776 405.82 574.863Z" fill="#3F3D56"/>
<path d="M427.669 454.769L427.262 433.517L432.817 433.379L433.224 454.562L438.259 763.313L432.703 763.467" fill="#3F3D56"/>
<path d="M500.678 504.466L400.831 507.232C391.294 495.564 390.428 445.853 410.331 436.392L418.136 423.095L478.31 420.147L485.343 434.148C495.243 442.6 500.348 492.001 500.678 504.466Z" fill="#E6E6E6"/>
<path d="M463.097 480.624L437.848 481.324C432.975 481.459 428.833 475.117 428.614 467.188C428.396 459.259 432.184 452.697 437.056 452.562L462.306 451.862C467.178 451.727 471.32 458.07 471.539 465.999C471.757 473.927 467.969 480.489 463.097 480.624Z" fill="#6C63FF"/>
<path d="M414.2 624.037L362.153 660.924L353.061 744.095L413.777 723.741L414.2 624.037Z" fill="#E6E6E6"/>
<path d="M657.011 448.12L570.91 450.506L578.937 742.169L665.038 739.783L657.011 448.12Z" fill="#E6E6E6"/>
<path d="M572.973 447.427L590.689 492.217L596.004 698.244L575.993 704.569L572.973 447.427Z" fill="#CCCCCC"/>
<path d="M700.068 367.145C706.301 367.145 711.354 360.347 711.354 351.961C711.354 343.576 706.301 336.778 700.068 336.778C693.836 336.778 688.783 343.576 688.783 351.961C688.783 360.347 693.836 367.145 700.068 367.145Z" fill="#E6E6E6"/>
<path d="M759.063 590.05C765.295 590.05 770.348 583.252 770.348 574.867C770.348 566.481 765.295 559.684 759.063 559.684C752.83 559.684 747.777 566.481 747.777 574.867C747.777 583.252 752.83 590.05 759.063 590.05Z" fill="#E6E6E6"/>
<path d="M319.922 547.439C326.155 547.439 331.207 540.642 331.207 532.256C331.207 523.871 326.155 517.073 319.922 517.073C313.689 517.073 308.637 523.871 308.637 532.256C308.637 540.642 313.689 547.439 319.922 547.439Z" fill="#E6E6E6"/>
<path d="M611.83 371.944C595.722 372.403 583.432 400.372 583.728 411.286L584.272 431.046L642.598 429.43L642.054 409.67C641.749 398.756 627.939 371.51 611.83 371.944Z" fill="#3F3D56"/>
<path d="M628.509 461.421L628.102 440.17L633.656 440.03L634.064 461.215L639.099 769.966L633.543 770.12" fill="#3F3D56"/>
<path d="M665.203 500.94L565.356 503.707C563.615 493.149 565.867 443.882 574.856 432.866L582.661 419.569L642.835 416.622L649.868 430.622C667.634 432.075 673.849 480.489 665.203 500.94Z" fill="#E6E6E6"/>
<path d="M627.743 481.536L602.494 482.236C597.621 482.371 593.451 475.033 593.199 465.881C592.948 456.729 596.708 449.171 601.58 449.036L626.829 448.337C631.702 448.202 635.872 455.54 636.124 464.692C636.375 473.844 632.615 481.401 627.743 481.536Z" fill="#6C63FF"/>
<path d="M661.265 602.717L711.581 641.947L716.879 725.449L657.154 702.335L661.265 602.717Z" fill="#E6E6E6"/>
<path d="M308.637 217.022C314.869 217.022 319.922 210.225 319.922 201.839C319.922 193.454 314.869 186.656 308.637 186.656C302.404 186.656 297.352 193.454 297.352 201.839C297.352 210.225 302.404 217.022 308.637 217.022Z" fill="#E6E6E6"/>
<path d="M658.654 93.707C664.887 93.707 669.94 86.9093 669.94 78.5239C669.94 70.1385 664.887 63.3408 658.654 63.3408C652.422 63.3408 647.369 70.1385 647.369 78.5239C647.369 86.9093 652.422 93.707 658.654 93.707Z" fill="#E6E6E6"/>
<path d="M297.352 411.944C303.584 411.944 308.637 405.147 308.637 396.761C308.637 388.376 303.584 381.578 297.352 381.578C291.119 381.578 286.066 388.376 286.066 396.761C286.066 405.147 291.119 411.944 297.352 411.944Z" fill="#E6E6E6"/>
<path d="M411.955 278.302C406.796 281.751 401.515 273.542 406.774 270.246C411.933 266.797 417.214 275.006 411.955 278.302Z" fill="#E6E6E6"/>
<path d="M602.996 8.88561C597.837 12.3347 592.556 4.1256 597.815 0.829707C602.974 -2.61917 608.255 5.5899 602.996 8.88561Z" fill="#E6E6E6"/>
<path d="M715.588 168.621L712.305 167.899L713.024 164.604L710.836 164.123L710.116 167.418L706.833 166.697L706.354 168.892L709.636 169.615L708.917 172.908L711.105 173.389L711.826 170.094L715.108 170.817L715.588 168.621Z" fill="#E6E6E6"/>
<path d="M519.293 25.7229C503.185 26.1819 490.895 54.1512 491.191 65.0655L491.735 84.8248L550.061 83.2089L549.517 63.4496C549.212 52.5355 535.402 25.2893 519.293 25.7229Z" fill="#3F3D56"/>
<path d="M554.023 773.947L527.528 774.681C523.503 774.889 519.522 773.769 516.191 771.493C513.314 769.345 511.994 766.442 512.573 763.527L517.787 737.239C518.769 732.279 524.827 728.53 532.188 728.326L546.82 727.921C554.182 727.717 560.436 731.125 561.69 736.022L568.341 761.982C569.079 764.861 567.921 767.832 565.167 770.136C561.966 772.593 558.052 773.932 554.023 773.947Z" fill="#3F3D56"/>
<path d="M565.839 151.511L479.738 153.896L495.965 743.459L582.065 741.074L565.839 151.511Z" fill="#E6E6E6"/>
<path d="M531.386 436.895L530.979 415.643L536.533 415.505L536.941 436.688L541.976 745.439L536.42 745.593" fill="#3F3D56"/>
<path d="M582.79 205.468L466.127 208.701C464.093 196.364 466.725 138.8 477.227 125.929L480.105 110.566L560.658 108.334L564.873 123.307C576.44 133.183 582.405 190.904 582.79 205.468Z" fill="#E6E6E6"/>
<path d="M563.204 110.147L480.078 112.45C477.009 112.535 474.476 110.919 474.419 108.84C474.411 108.54 474.455 108.242 474.548 107.957L487.46 68.0471C488.013 66.3381 490.214 65.083 492.782 65.0118L547.91 63.4846C550.478 63.4135 552.745 64.5448 553.391 66.2205L568.478 105.355C569.25 107.356 567.468 109.439 564.498 110.007C564.071 110.088 563.638 110.135 563.204 110.147Z" fill="#E6E6E6"/>
<path d="M488.278 434.184C487.528 433.862 486.819 433.45 486.166 432.958C485.231 432.3 484.458 431.435 483.908 430.431C483.357 429.427 483.042 428.31 482.988 427.165L479.967 317.418C479.843 312.875 484.276 309.054 489.85 308.899L564.267 306.837C569.842 306.681 574.477 310.253 574.603 314.796L577.623 424.544C577.632 425.69 577.38 426.823 576.885 427.856C576.39 428.889 575.666 429.794 574.769 430.503C572.781 432.128 570.304 433.03 567.74 433.063L493.325 435.124C491.594 435.182 489.872 434.862 488.278 434.184Z" fill="#3F3D56"/>
<path d="M535.908 103.084L510.658 103.784C505.786 103.919 501.666 98.3958 501.476 91.4737C501.285 84.5515 505.095 78.8087 509.967 78.6737L535.217 77.9741C540.089 77.8391 544.209 83.3623 544.4 90.2844C544.59 97.2066 540.78 102.949 535.908 103.084Z" fill="#6C63FF"/>
<path d="M659.144 567.739C656.134 567.819 653.216 566.698 651.029 564.622C648.842 562.546 647.566 559.684 647.479 556.665L646.594 524.508C646.513 521.488 647.63 518.56 649.7 516.367C651.77 514.174 654.623 512.895 657.632 512.812C660.641 512.729 663.56 513.847 665.748 515.923C667.935 517.998 669.211 520.86 669.296 523.879L670.181 556.036C670.261 559.055 669.144 561.983 667.074 564.177C665.005 566.371 662.153 567.652 659.144 567.739Z" fill="#3F3D56"/>
<path d="M244.413 658.924C230.725 658.924 221.826 655.511 217.887 648.727C210.12 635.349 223.129 611.876 256.551 578.959L259.358 581.828C228.313 612.406 214.814 635.445 221.35 646.703C225.485 653.824 237.793 656.377 256.951 654.081C275.968 651.803 301.171 645.013 331.86 633.902C395.038 611.025 474.302 572.437 555.05 525.245C635.795 478.054 708.35 427.911 759.352 384.056C769.148 375.631 778.038 367.526 785.776 359.968C795.933 350.288 805.304 339.81 813.798 328.633C825.238 313.048 829.099 301.047 824.964 293.925C818.057 282.029 789.043 283.148 743.262 297.078L742.1 293.23C791.217 278.286 820.263 277.838 828.427 291.901C833.5 300.638 829.664 313.799 817.026 331.018C808.401 342.372 798.886 353.016 788.572 362.849C780.774 370.466 771.82 378.628 761.96 387.109C710.78 431.118 638.015 481.41 557.067 528.719C476.117 576.03 396.619 614.728 333.22 637.684C302.246 648.9 276.745 655.76 257.426 658.073C253.109 658.613 248.764 658.897 244.413 658.924Z" fill="#3F3D56"/>
<path d="M565.464 186.655L615.778 225.885L621.076 309.387L561.352 286.274L565.464 186.655Z" fill="#E6E6E6"/>
<path d="M489.453 186.655L439.138 225.885L433.84 309.387L493.565 286.274L489.453 186.655Z" fill="#E6E6E6"/>
<path d="M264.376 294.335C269.575 292.316 272.655 287.737 271.255 284.108C269.855 280.479 264.505 279.174 259.305 281.193C254.106 283.213 251.026 287.792 252.426 291.421C253.826 295.05 259.176 296.355 264.376 294.335Z" fill="#E6E6E6"/>
<path d="M329.84 285.909C335.04 283.89 338.12 279.311 336.72 275.682C335.32 272.053 329.97 270.748 324.77 272.767C319.57 274.787 316.491 279.366 317.891 282.995C319.291 286.624 324.641 287.929 329.84 285.909Z" fill="#E6E6E6"/>
<path d="M258.698 350.374C263.897 348.355 266.977 343.776 265.577 340.147C264.177 336.518 258.827 335.213 253.627 337.232C248.428 339.252 245.348 343.831 246.748 347.46C248.148 351.089 253.498 352.394 258.698 350.374Z" fill="#E6E6E6"/>
<path d="M239.758 375.093C242.144 374.527 243.419 371.278 242.608 367.838C241.796 364.398 239.204 362.068 236.819 362.634C234.434 363.201 233.158 366.449 233.97 369.889C234.781 373.33 237.373 375.66 239.758 375.093Z" fill="#E6E6E6"/>
<path d="M239.37 416.944C241.755 416.377 243.031 413.129 242.219 409.689C241.407 406.248 238.816 403.919 236.43 404.485C234.045 405.052 232.769 408.3 233.581 411.74C234.392 415.18 236.984 417.51 239.37 416.944Z" fill="#E6E6E6"/>
<path d="M296.827 330.262C299.212 329.695 300.488 326.447 299.676 323.007C298.864 319.567 296.273 317.237 293.887 317.803C291.502 318.37 290.226 321.618 291.038 325.058C291.85 328.499 294.441 330.828 296.827 330.262Z" fill="#E6E6E6"/>
<path d="M262.348 321.862C264.733 321.295 266.009 318.047 265.198 314.607C264.386 311.166 261.794 308.837 259.409 309.403C257.024 309.969 255.748 313.218 256.559 316.658C257.371 320.098 259.963 322.428 262.348 321.862Z" fill="#E6E6E6"/>
<path d="M298.893 283.325C301.278 282.758 302.554 279.51 301.742 276.07C300.931 272.629 298.339 270.299 295.954 270.866C293.568 271.432 292.293 274.681 293.104 278.121C293.916 281.561 296.508 283.891 298.893 283.325Z" fill="#E6E6E6"/>
<path d="M836.784 483.399C842.172 481.959 845.73 477.744 844.732 473.983C843.734 470.223 838.557 468.341 833.169 469.781C827.782 471.221 824.223 475.436 825.221 479.197C826.22 482.957 831.396 484.838 836.784 483.399Z" fill="#E6E6E6"/>
<path d="M770.794 484.625C776.181 483.186 779.74 478.97 778.742 475.21C777.744 471.449 772.567 469.568 767.179 471.008C761.791 472.447 758.233 476.663 759.231 480.423C760.229 484.183 765.406 486.065 770.794 484.625Z" fill="#E6E6E6"/>
<path d="M848.509 428.313C853.896 426.873 857.455 422.658 856.457 418.897C855.458 415.137 850.282 413.256 844.894 414.695C839.506 416.135 835.948 420.35 836.946 424.111C837.944 427.871 843.121 429.752 848.509 428.313Z" fill="#E6E6E6"/>
<path d="M867.971 404.897C870.404 404.594 872.024 401.505 871.591 397.996C871.157 394.488 868.833 391.889 866.401 392.191C863.968 392.494 862.348 395.583 862.781 399.092C863.215 402.601 865.538 405.199 867.971 404.897Z" fill="#E6E6E6"/>
<path d="M872.899 363.338C875.331 363.036 876.952 359.946 876.518 356.438C876.085 352.929 873.761 350.33 871.329 350.633C868.896 350.935 867.275 354.025 867.709 357.533C868.142 361.042 870.466 363.641 872.899 363.338Z" fill="#E6E6E6"/>
<path d="M806.379 443.23C808.812 442.927 810.432 439.838 809.999 436.329C809.565 432.821 807.242 430.222 804.809 430.524C802.376 430.827 800.756 433.916 801.189 437.425C801.623 440.934 803.946 443.532 806.379 443.23Z" fill="#E6E6E6"/>
<path d="M839.742 455.346C842.175 455.043 843.796 451.954 843.362 448.445C842.928 444.937 840.605 442.338 838.172 442.641C835.74 442.943 834.119 446.033 834.553 449.541C834.986 453.05 837.31 455.649 839.742 455.346Z" fill="#E6E6E6"/>
<path d="M799.233 489.662C801.665 489.36 803.286 486.27 802.852 482.762C802.419 479.253 800.095 476.654 797.662 476.957C795.23 477.26 793.609 480.349 794.043 483.858C794.476 487.366 796.8 489.965 799.233 489.662Z" fill="#E6E6E6"/>
<path d="M960.08 701.336C942.83 701.336 923.923 700.682 903.36 699.373C797 692.597 659.232 669.037 515.433 633.035C371.635 597.034 238.985 552.889 141.922 508.736C94.6391 487.227 58.35 466.868 34.0635 448.221C8.35044 428.482 -2.89681 411.275 0.632867 397.082C7.51032 369.432 68.4068 363.382 118.282 363.177L118.299 367.198C49.8073 367.48 9.40074 378.439 4.52205 398.056C-1.69258 423.041 48.9912 462.047 143.577 505.074C240.427 549.129 372.832 593.189 516.404 629.134C659.974 665.079 797.489 688.598 903.614 695.36C1007.26 701.965 1070.26 691.423 1076.48 666.437C1081.64 645.693 1047.62 615.134 980.705 580.387L982.548 576.817C1031.17 602.064 1087.61 638.275 1080.37 667.411C1076.84 681.604 1058.85 691.491 1026.91 696.796C1008.7 699.82 986.337 701.336 960.08 701.336Z" fill="#6C63FF"/>
<path d="M874.508 187L892.504 155.945L910.501 125L928.388 93.9454L931.35 89.0247L932.667 93.9454L938.154 114.393L932.009 125L914.012 155.945L896.126 187H917.634L935.63 155.945L944.958 139.871L949.347 155.945L957.687 187H977L968.66 155.945L960.32 125L958.126 117.018L971.513 93.9454H951.981L951.322 91.649L944.519 66.2804L943.641 63H924.876L924.437 63.6561L906.88 93.9454L888.883 125L870.996 155.945L853 187H874.508Z" fill="#3F3D56"/>
</g>
<defs>
<clipPath id="clip0_570_3">
<rect width="1081" height="881" fill="white"/>
</clipPath>
</defs>
</svg>
