<svg width="auto" height="auto" viewBox="0 0 235 458" fill="none" xmlns="http://www.w3.org/2000/svg">
<g filter="url(#filter0_d_822_2)">
<path d="M49.8104 161.104L7.65833 221.554L15.9055 230.108L13.1559 232.959L32.3997 239.233V235.811L39.7303 234.67L70.8857 199.313L49.8104 161.104Z" fill="#E6E6E6"/>
<path d="M16.8216 232.389C16.8216 232.389 -14.334 262.614 20.4869 267.176C55.3078 271.739 26.9014 235.241 26.9014 235.241L16.8216 232.389Z" fill="#E6E6E6"/>
<path d="M61.7223 218.703L50.7262 240.943L46.1445 269.457L37.8973 279.723L47.0607 325.915L61.7222 335.04L68.1365 380.662V401.192L85.547 420.011L63.1268 439.816C62.0692 440.746 61.4363 441.838 61.2955 442.974C61.1546 444.111 61.511 445.25 62.3268 446.27C63.1426 447.291 64.3874 448.155 65.9288 448.77C67.4702 449.386 69.2508 449.73 71.0813 449.766C76.0312 449.847 82.5563 448.977 91.045 446.244C117.619 437.69 116.703 429.706 116.703 429.706C116.703 429.706 133.197 429.706 134.113 421.722C135.029 413.738 124.033 356.71 124.033 356.71L113.954 332.188V265.466H117.619L119.452 322.494L127.699 343.594L128.615 352.718L140.528 443.963C140.528 443.963 193.675 453.088 196.424 445.674C199.173 438.26 176.265 433.698 176.265 433.698L190.01 417.16V385.224L185.428 378.381L177.181 332.188L190.926 323.064L198.257 317.361V271.739L189.093 254.06L186.344 239.233L171.683 216.421C171.683 216.421 104.79 202.735 61.7223 218.703Z" fill="white"/>
<path d="M180.846 89.8191C180.847 96.6787 178.231 103.44 173.214 109.548C168.197 115.656 160.922 120.935 151.988 124.952C143.054 128.969 132.715 131.609 121.822 132.655C110.929 133.701 99.7923 133.122 89.3282 130.968C78.8641 128.813 69.3713 125.143 61.6302 120.26C53.8891 115.377 48.1208 109.421 44.7996 102.88C41.4785 96.3393 40.6992 89.4014 42.526 82.6368C44.3528 75.8722 48.7335 69.474 55.3079 63.9683L55.3263 63.9569C64.0613 56.6441 76.2779 51.2309 90.2396 48.4867C104.201 45.7424 119.198 45.8068 133.097 48.6707C146.997 51.5346 159.092 57.0522 167.664 64.4393C176.236 71.8264 180.849 80.7071 180.846 89.8191Z" fill="#6C63FF"/>
<g opacity="0.1">
<path opacity="0.1" d="M170.95 71.8494L165.269 92.1001C122.576 23.1304 54.6665 65.4965 53.4935 66.2378C60.5122 60.3637 69.8072 55.6916 80.5114 52.6574C91.2157 49.6231 102.98 48.3256 114.708 48.8859C126.436 49.4463 137.745 51.8461 147.579 55.8616C157.414 59.8771 165.454 65.3774 170.95 71.8494Z" fill="white"/>
</g>
<path d="M172.783 69.5682L167.101 89.8188C124.409 20.8492 56.4992 63.2153 55.3263 63.9566C62.3449 58.0824 71.6399 53.4103 82.3442 50.3761C93.0484 47.3419 104.813 46.0444 116.541 46.6047C128.269 47.165 139.577 49.5648 149.412 53.5803C159.247 57.5958 167.287 63.0961 172.783 69.5682Z" fill="white"/>
<path d="M163.236 61.0193L172.783 81.643C172.783 81.643 152.966 118.608 61.0688 119.896L58.0569 125.177L47.9771 126.888L43.3955 138.863L56.2243 214.711C56.2243 214.711 50.7262 222.124 59.8896 221.554C59.8896 221.554 120.368 209.008 172.599 220.413C172.599 220.413 183.596 223.265 180.847 216.992C180.847 216.992 217.5 202.735 214.751 187.908C212.002 173.08 217.5 104.076 217.5 104.076C217.5 104.076 222.998 84.1165 206.504 79.5543C206.504 79.5543 182.279 58.4522 163.236 61.0193Z" fill="white"/>
<path d="M143.147 205.12C143.147 205.12 85.735 208.708 101.627 228.523C117.52 248.337 145.82 211.807 145.82 211.807L143.147 205.12Z" fill="#E6E6E6"/>
<path d="M172.599 116.622C172.599 116.622 162.52 124.036 166.185 136.012C169.85 147.988 183.595 174.791 183.595 174.791L135.029 202.734L149.691 215.281L215.667 194.18L230.329 188.477C226.683 165.411 217.611 142.804 203.404 121.379L201.006 117.763C201.006 117.763 183.595 113.2 172.599 116.622Z" fill="#E6E6E6"/>
<path d="M168.018 96.3777C177.38 96.3777 184.97 91.6542 184.97 85.8275C184.97 80.0008 177.38 75.2773 168.018 75.2773C158.655 75.2773 151.065 80.0008 151.065 85.8275C151.065 91.6542 158.655 96.3777 168.018 96.3777Z" fill="#E6E6E6"/>
<path d="M156.105 15.3976C162.937 15.3976 168.476 11.9507 168.476 7.69879C168.476 3.44687 162.937 0 156.105 0C149.273 0 143.735 3.44687 143.735 7.69879C143.735 11.9507 149.273 15.3976 156.105 15.3976Z" fill="#E6E6E6"/>
</g>
<defs>
<filter id="filter0_d_822_2" x="0" y="0" width="234.329" height="457.771" filterUnits="userSpaceOnUse" color-interpolation-filters="sRGB">
<feFlood flood-opacity="0" result="BackgroundImageFix"/>
<feColorMatrix in="SourceAlpha" type="matrix" values="0 0 0 0 0 0 0 0 0 0 0 0 0 0 0 0 0 0 127 0" result="hardAlpha"/>
<feOffset dy="4"/>
<feGaussianBlur stdDeviation="2"/>
<feComposite in2="hardAlpha" operator="out"/>
<feColorMatrix type="matrix" values="0 0 0 0 0 0 0 0 0 0 0 0 0 0 0 0 0 0 0.25 0"/>
<feBlend mode="normal" in2="BackgroundImageFix" result="effect1_dropShadow_822_2"/>
<feBlend mode="normal" in="SourceGraphic" in2="effect1_dropShadow_822_2" result="shape"/>
</filter>
</defs>
</svg>
