<svg width="100%" height="auto" viewBox="0 0 512 240" fill="none" xmlns="http://www.w3.org/2000/svg">
<g clip-path="url(#clip0_631_2)">
<path d="M141.024 147.486H90.0181C88.5156 147.489 87.2992 148.708 87.3008 150.211V230.784H143.748V150.211C143.749 148.707 142.53 147.487 141.027 147.486H141.024V147.486ZM115.693 193.267C112.373 193.252 109.685 190.564 109.67 187.245V177.951C109.67 174.625 112.366 171.928 115.693 171.928C119.019 171.928 121.715 174.625 121.715 177.951V187.245C121.7 190.564 119.013 193.252 115.693 193.267Z" fill="#CCCCCC"/>
<path d="M87.126 228.207V235.981C87.1277 236.819 87.8071 237.499 88.6458 237.501H142.404C143.241 237.496 143.919 236.818 143.923 235.981V228.207H87.126Z" fill="#3F3D56"/>
<path d="M225.484 21.7422H7.45508C3.55499 21.7484 0.394902 24.9085 0.388672 28.8086V175.935C0.392422 179.837 3.55395 182.998 7.45508 183.002H225.484C229.385 182.998 232.547 179.837 232.55 175.935V28.8086C232.544 24.9085 229.384 21.7484 225.484 21.7422V21.7422Z" fill="#E6E6E6"/>
<path d="M223.665 26.8457H9.27716C7.18881 26.8502 5.49823 28.5444 5.49805 30.6327V174.113C5.50162 176.199 7.1915 177.888 9.27716 177.892H223.665C225.75 177.888 227.44 176.199 227.444 174.113V30.6327C227.444 28.5443 225.753 26.8502 223.665 26.8457Z" fill="white"/>
<path d="M181.905 240.206H54.3561C53.0602 240.206 52.0098 239.155 52.0098 237.859C52.0098 237.697 52.0266 237.535 52.0601 237.376L54.0392 227.976C54.2712 226.893 55.2268 226.117 56.3348 226.113H179.926C181.034 226.117 181.99 226.893 182.222 227.976L184.201 237.376C184.468 238.644 183.656 239.888 182.388 240.155C182.229 240.189 182.067 240.206 181.905 240.206Z" fill="#CCCCCC"/>
<path d="M60.6814 227.807H57.7294C57.4598 227.807 57.2412 228.025 57.2412 228.295V229.675C57.2412 229.945 57.4598 230.164 57.7294 230.164H60.6814C60.951 230.164 61.1696 229.945 61.1696 229.675V228.295C61.1696 228.025 60.951 227.807 60.6814 227.807Z" fill="#E6E6E6"/>
<path d="M68.5379 227.807H65.5858C65.3162 227.807 65.0977 228.025 65.0977 228.295V229.675C65.0977 229.945 65.3162 230.164 65.5858 230.164H68.5379C68.8075 230.164 69.0261 229.945 69.0261 229.675V228.295C69.0261 228.025 68.8075 227.807 68.5379 227.807Z" fill="#E6E6E6"/>
<path d="M76.3943 227.807H73.4423C73.1727 227.807 72.9541 228.025 72.9541 228.295V229.675C72.9541 229.945 73.1727 230.164 73.4423 230.164H76.3943C76.6639 230.164 76.8825 229.945 76.8825 229.675V228.295C76.8825 228.025 76.6639 227.807 76.3943 227.807Z" fill="#E6E6E6"/>
<path d="M84.2517 227.807H81.2997C81.0301 227.807 80.8115 228.025 80.8115 228.295V229.675C80.8115 229.945 81.0301 230.164 81.2997 230.164H84.2517C84.5214 230.164 84.7399 229.945 84.7399 229.675V228.295C84.7399 228.025 84.5214 227.807 84.2517 227.807Z" fill="#E6E6E6"/>
<path d="M92.1082 227.807H89.1562C88.8865 227.807 88.668 228.025 88.668 228.295V229.675C88.668 229.945 88.8865 230.164 89.1562 230.164H92.1082C92.3778 230.164 92.5963 229.945 92.5963 229.675V228.295C92.5963 228.025 92.3778 227.807 92.1082 227.807Z" fill="#E6E6E6"/>
<path d="M99.9646 227.807H97.0126C96.743 227.807 96.5244 228.025 96.5244 228.295V229.675C96.5244 229.945 96.743 230.164 97.0126 230.164H99.9646C100.234 230.164 100.453 229.945 100.453 229.675V228.295C100.453 228.025 100.234 227.807 99.9646 227.807Z" fill="#E6E6E6"/>
<path d="M107.822 227.807H104.87C104.6 227.807 104.382 228.025 104.382 228.295V229.675C104.382 229.945 104.6 230.164 104.87 230.164H107.822C108.092 230.164 108.31 229.945 108.31 229.675V228.295C108.31 228.025 108.092 227.807 107.822 227.807Z" fill="#E6E6E6"/>
<path d="M115.678 227.807H112.726C112.457 227.807 112.238 228.025 112.238 228.295V229.675C112.238 229.945 112.457 230.164 112.726 230.164H115.678C115.948 230.164 116.167 229.945 116.167 229.675V228.295C116.167 228.025 115.948 227.807 115.678 227.807Z" fill="#E6E6E6"/>
<path d="M123.535 227.807H120.583C120.313 227.807 120.095 228.025 120.095 228.295V229.675C120.095 229.945 120.313 230.164 120.583 230.164H123.535C123.805 230.164 124.023 229.945 124.023 229.675V228.295C124.023 228.025 123.805 227.807 123.535 227.807Z" fill="#E6E6E6"/>
<path d="M131.392 227.807H128.44C128.171 227.807 127.952 228.025 127.952 228.295V229.675C127.952 229.945 128.171 230.164 128.44 230.164H131.392C131.662 230.164 131.881 229.945 131.881 229.675V228.295C131.881 228.025 131.662 227.807 131.392 227.807Z" fill="#E6E6E6"/>
<path d="M139.249 227.807H136.297C136.027 227.807 135.809 228.025 135.809 228.295V229.675C135.809 229.945 136.027 230.164 136.297 230.164H139.249C139.518 230.164 139.737 229.945 139.737 229.675V228.295C139.737 228.025 139.518 227.807 139.249 227.807Z" fill="#E6E6E6"/>
<path d="M147.105 227.807H144.153C143.884 227.807 143.665 228.025 143.665 228.295V229.675C143.665 229.945 143.884 230.164 144.153 230.164H147.105C147.375 230.164 147.593 229.945 147.593 229.675V228.295C147.593 228.025 147.375 227.807 147.105 227.807Z" fill="#E6E6E6"/>
<path d="M154.963 227.807H152.011C151.741 227.807 151.522 228.025 151.522 228.295V229.675C151.522 229.945 151.741 230.164 152.011 230.164H154.963C155.232 230.164 155.451 229.945 155.451 229.675V228.295C155.451 228.025 155.232 227.807 154.963 227.807Z" fill="#E6E6E6"/>
<path d="M162.819 227.807H159.867C159.597 227.807 159.379 228.025 159.379 228.295V229.675C159.379 229.945 159.597 230.164 159.867 230.164H162.819C163.089 230.164 163.307 229.945 163.307 229.675V228.295C163.307 228.025 163.089 227.807 162.819 227.807Z" fill="#E6E6E6"/>
<path d="M170.676 227.807H167.724C167.454 227.807 167.235 228.025 167.235 228.295V229.675C167.235 229.945 167.454 230.164 167.724 230.164H170.676C170.945 230.164 171.164 229.945 171.164 229.675V228.295C171.164 228.025 170.945 227.807 170.676 227.807Z" fill="#E6E6E6"/>
<path d="M178.533 227.807H175.581C175.311 227.807 175.093 228.025 175.093 228.295V229.675C175.093 229.945 175.311 230.164 175.581 230.164H178.533C178.803 230.164 179.021 229.945 179.021 229.675V228.295C179.021 228.025 178.803 227.807 178.533 227.807Z" fill="#E6E6E6"/>
<path d="M60.5886 231.734H57.6366C57.367 231.734 57.1484 231.953 57.1484 232.223V233.603C57.1484 233.873 57.367 234.091 57.6366 234.091H60.5886C60.8582 234.091 61.0768 233.873 61.0768 233.603V232.223C61.0768 231.953 60.8582 231.734 60.5886 231.734Z" fill="#E6E6E6"/>
<path d="M68.4451 231.734H65.4931C65.2235 231.734 65.0049 231.953 65.0049 232.223V233.603C65.0049 233.873 65.2235 234.091 65.4931 234.091H68.4451C68.7147 234.091 68.9333 233.873 68.9333 233.603V232.223C68.9333 231.953 68.7147 231.734 68.4451 231.734Z" fill="#E6E6E6"/>
<path d="M76.3015 231.734H73.3495C73.0799 231.734 72.8613 231.953 72.8613 232.223V233.603C72.8613 233.873 73.0799 234.091 73.3495 234.091H76.3015C76.5711 234.091 76.7897 233.873 76.7897 233.603V232.223C76.7897 231.953 76.5711 231.734 76.3015 231.734Z" fill="#E6E6E6"/>
<path d="M84.1589 231.734H81.2069C80.9373 231.734 80.7188 231.953 80.7188 232.223V233.603C80.7188 233.873 80.9373 234.091 81.2069 234.091H84.1589C84.4286 234.091 84.6471 233.873 84.6471 233.603V232.223C84.6471 231.953 84.4286 231.734 84.1589 231.734Z" fill="#E6E6E6"/>
<path d="M92.0154 231.734H89.0634C88.7938 231.734 88.5752 231.953 88.5752 232.223V233.603C88.5752 233.873 88.7938 234.091 89.0634 234.091H92.0154C92.285 234.091 92.5036 233.873 92.5036 233.603V232.223C92.5036 231.953 92.285 231.734 92.0154 231.734Z" fill="#E6E6E6"/>
<path d="M99.8719 231.734H96.9199C96.6502 231.734 96.4316 231.953 96.4316 232.223V233.603C96.4316 233.873 96.6502 234.091 96.9199 234.091H99.8719C100.141 234.091 100.36 233.873 100.36 233.603V232.223C100.36 231.953 100.141 231.734 99.8719 231.734Z" fill="#E6E6E6"/>
<path d="M107.729 231.734H104.777C104.508 231.734 104.289 231.953 104.289 232.223V233.603C104.289 233.873 104.508 234.091 104.777 234.091H107.729C107.999 234.091 108.217 233.873 108.217 233.603V232.223C108.217 231.953 107.999 231.734 107.729 231.734Z" fill="#E6E6E6"/>
<path d="M115.586 231.734H112.634C112.364 231.734 112.146 231.953 112.146 232.223V233.603C112.146 233.873 112.364 234.091 112.634 234.091H115.586C115.855 234.091 116.074 233.873 116.074 233.603V232.223C116.074 231.953 115.855 231.734 115.586 231.734Z" fill="#E6E6E6"/>
<path d="M123.442 231.734H120.49C120.221 231.734 120.002 231.953 120.002 232.223V233.603C120.002 233.873 120.221 234.091 120.49 234.091H123.442C123.712 234.091 123.93 233.873 123.93 233.603V232.223C123.93 231.953 123.712 231.734 123.442 231.734Z" fill="#E6E6E6"/>
<path d="M131.3 231.734H128.348C128.078 231.734 127.859 231.953 127.859 232.223V233.603C127.859 233.873 128.078 234.091 128.348 234.091H131.3C131.569 234.091 131.788 233.873 131.788 233.603V232.223C131.788 231.953 131.569 231.734 131.3 231.734Z" fill="#E6E6E6"/>
<path d="M139.156 231.734H136.204C135.934 231.734 135.716 231.953 135.716 232.223V233.603C135.716 233.873 135.934 234.091 136.204 234.091H139.156C139.426 234.091 139.644 233.873 139.644 233.603V232.223C139.644 231.953 139.426 231.734 139.156 231.734Z" fill="#E6E6E6"/>
<path d="M147.012 231.734H144.06C143.791 231.734 143.572 231.953 143.572 232.223V233.603C143.572 233.873 143.791 234.091 144.06 234.091H147.012C147.282 234.091 147.501 233.873 147.501 233.603V232.223C147.501 231.953 147.282 231.734 147.012 231.734Z" fill="#E6E6E6"/>
<path d="M154.87 231.734H151.918C151.648 231.734 151.43 231.953 151.43 232.223V233.603C151.43 233.873 151.648 234.091 151.918 234.091H154.87C155.139 234.091 155.358 233.873 155.358 233.603V232.223C155.358 231.953 155.139 231.734 154.87 231.734Z" fill="#E6E6E6"/>
<path d="M162.726 231.734H159.774C159.505 231.734 159.286 231.953 159.286 232.223V233.603C159.286 233.873 159.505 234.091 159.774 234.091H162.726C162.996 234.091 163.215 233.873 163.215 233.603V232.223C163.215 231.953 162.996 231.734 162.726 231.734Z" fill="#E6E6E6"/>
<path d="M170.583 231.734H167.631C167.361 231.734 167.143 231.953 167.143 232.223V233.603C167.143 233.873 167.361 234.091 167.631 234.091H170.583C170.852 234.091 171.071 233.873 171.071 233.603V232.223C171.071 231.953 170.852 231.734 170.583 231.734Z" fill="#E6E6E6"/>
<path d="M178.44 231.734H175.488C175.219 231.734 175 231.953 175 232.223V233.603C175 233.873 175.219 234.091 175.488 234.091H178.44C178.71 234.091 178.928 233.873 178.928 233.603V232.223C178.928 231.953 178.71 231.734 178.44 231.734Z" fill="#E6E6E6"/>
<path d="M125.799 236.449H95.3485C95.0789 236.449 94.8604 236.668 94.8604 236.937V238.318C94.8604 238.588 95.0789 238.806 95.3485 238.806H125.799C126.069 238.806 126.287 238.588 126.287 238.318V236.937C126.287 236.668 126.069 236.449 125.799 236.449Z" fill="#E6E6E6"/>
<path d="M212.888 46.615H12.2862C11.8457 46.6053 11.4963 46.2403 11.5061 45.7997C11.5154 45.3728 11.8593 45.0289 12.2862 45.0195H212.888C213.328 45.0292 213.678 45.3942 213.668 45.8348C213.659 46.2618 213.315 46.6056 212.888 46.615V46.615Z" fill="#CACACA"/>
<path d="M25.9407 40.9453C28.5227 40.9453 30.6158 38.8056 30.6158 36.166C30.6158 33.5265 28.5227 31.3867 25.9407 31.3867C23.3587 31.3867 21.2656 33.5265 21.2656 36.166C21.2656 38.8056 23.3587 40.9453 25.9407 40.9453Z" fill="#CCCCCC"/>
<path d="M42.0911 40.9453C44.6731 40.9453 46.7662 38.8056 46.7662 36.166C46.7662 33.5265 44.6731 31.3867 42.0911 31.3867C39.5091 31.3867 37.416 33.5265 37.416 36.166C37.416 38.8056 39.5091 40.9453 42.0911 40.9453Z" fill="#CCCCCC"/>
<path d="M58.2415 40.9453C60.8235 40.9453 62.9166 38.8056 62.9166 36.166C62.9166 33.5265 60.8235 31.3867 58.2415 31.3867C55.6595 31.3867 53.5664 33.5265 53.5664 36.166C53.5664 38.8056 55.6595 40.9453 58.2415 40.9453Z" fill="#CCCCCC"/>
<path d="M112.381 58.7106L111.733 56.8176L194.591 13.7656L195.238 15.6586L112.381 58.7106Z" fill="#3F3D56"/>
<path d="M362.381 138.452L361.733 136.559L411.591 93.7246L412.238 95.6166L362.381 138.452Z" fill="#3F3D56"/>
<path d="M266.591 148.424L183.733 105.372L184.381 103.479L267.238 146.531L266.591 148.424Z" fill="#3F3D56"/>
<path d="M309.007 118.465L260.432 38.7185L261.967 37.4355L310.541 117.182L309.007 118.465Z" fill="#3F3D56"/>
<path d="M346.914 14.5539L299.607 14.3359V12.3359L346.914 12.5539V14.5539Z" fill="#3F3D56"/>
<path d="M432.611 26.959H379.611C372.432 26.959 366.611 21.1387 366.611 13.959C366.611 6.77928 372.432 0.958984 379.611 0.958984H432.611C439.791 0.958984 445.611 6.77928 445.611 13.959C445.611 21.1387 439.791 26.959 432.611 26.959Z" fill="#FF6584"/>
<path d="M498.611 102.959H445.611C438.432 102.959 432.611 97.1387 432.611 89.959C432.611 82.7793 438.432 76.959 445.611 76.959H498.611C505.791 76.959 511.611 82.7793 511.611 89.959C511.611 97.1387 505.791 102.959 498.611 102.959Z" fill="#FF6584"/>
<path d="M412.914 156.553L365.607 156.336V154.336L412.914 154.553V156.553Z" fill="#3F3D56"/>
<path d="M498.611 168.959H445.611C438.432 168.959 432.611 163.139 432.611 155.959C432.611 148.779 438.432 142.959 445.611 142.959H498.611C505.791 142.959 511.611 148.779 511.611 155.959C511.611 163.139 505.791 168.959 498.611 168.959Z" fill="#FF6584"/>
<path d="M343.611 160H290.611C283.432 160 277.611 154.18 277.611 147C277.611 139.82 283.432 134 290.611 134H343.611C350.791 134 356.611 139.82 356.611 147C356.611 154.18 350.791 160 343.611 160Z" fill="#FF6584"/>
<path d="M271.611 26H218.611C211.432 26 205.611 20.1797 205.611 13C205.611 5.8203 211.432 0 218.611 0H271.611C278.791 0 284.611 5.8203 284.611 13C284.611 20.1797 278.791 26 271.611 26Z" fill="#FF6584"/>
<path d="M158.975 148H73.0214C65.5561 147.992 59.5063 141.942 59.498 134.477V77.5234C59.5063 70.0581 65.5562 64.0083 73.0215 64H158.975C166.44 64.0083 172.49 70.0581 172.498 77.5234V134.477C172.49 141.942 166.44 147.992 158.975 148ZM73.0214 66C66.6602 66.0072 61.5053 71.1622 61.498 77.5234V134.477C61.5052 140.838 66.6603 145.993 73.0215 146H158.975C165.336 145.993 170.491 140.838 170.498 134.477V77.5234C170.491 71.1622 165.336 66.0072 158.975 66L73.0214 66V66Z" fill="#E6E6E6"/>
<path d="M98.4893 82H75.498V84H98.4893V82Z" fill="#E6E6E6"/>
<path d="M126.498 90H75.498V92H126.498V90Z" fill="#E6E6E6"/>
<path d="M126.498 97H75.498V99H126.498V97Z" fill="#E6E6E6"/>
<path d="M140.498 104H75.498V106H140.498V104Z" fill="#E6E6E6"/>
<path d="M109.498 111H75.498V113H109.498V111Z" fill="#E6E6E6"/>
<path d="M137.498 118H75.498V120H137.498V118Z" fill="#E6E6E6"/>
<path d="M86.498 125H75.498V127H86.498V125Z" fill="#E6E6E6"/>
<path d="M74.7489 38.9575C74.6517 38.9575 74.5548 38.9199 74.4816 38.845L72.3479 36.6638C72.2057 36.5185 72.2057 36.2863 72.3479 36.1409L74.4816 33.9599C74.6264 33.8124 74.8633 33.81 75.0103 33.9541C75.158 34.0985 75.1606 34.3353 75.0162 34.4829L73.1383 36.4024L75.0162 38.3221C75.1606 38.4696 75.158 38.7064 75.0103 38.8509C74.9377 38.9221 74.8433 38.9575 74.7489 38.9575V38.9575Z" fill="#CCCCCC"/>
<path d="M78.3339 38.9578C78.2395 38.9578 78.1451 38.9224 78.0725 38.8511C77.9248 38.7067 77.9222 38.4701 78.0666 38.3224L79.9443 36.4027L78.0666 34.4832C77.9222 34.3356 77.9248 34.0988 78.0725 33.9544C78.2198 33.8098 78.4568 33.8125 78.6012 33.9602L80.7347 36.1412C80.877 36.2865 80.877 36.5188 80.7347 36.6641L78.6012 38.8453C78.528 38.9202 78.4311 38.9578 78.3339 38.9578V38.9578Z" fill="#CCCCCC"/>
<path d="M189.957 33.5449H185.99C185.537 33.5449 185.171 33.9114 185.171 34.3638V38.335C185.171 38.7875 185.537 39.154 185.99 39.154H189.957C190.41 39.154 190.78 38.7875 190.78 38.335V34.3638C190.78 33.9114 190.41 33.5449 189.957 33.5449Z" fill="#CCCCCC"/>
<path d="M180.236 33.5449H176.268C175.816 33.5449 175.449 33.9114 175.449 34.3638V38.335C175.449 38.7875 175.816 39.154 176.268 39.154H180.236C180.688 39.154 181.058 38.7875 181.058 38.335V34.3638C181.058 33.9114 180.688 33.5449 180.236 33.5449Z" fill="#CCCCCC"/>
<path d="M199.119 33.7324H195.152C194.699 33.7324 194.333 34.0989 194.333 34.5513V38.5225C194.333 38.975 194.699 39.3414 195.152 39.3414H199.119C199.572 39.3414 199.942 38.975 199.942 38.5225V34.5513C199.942 34.0989 199.572 33.7324 199.119 33.7324Z" fill="#CCCCCC"/>
<path d="M139.318 35.2422H107.605C107.051 35.2422 106.606 35.6909 106.606 36.2406C106.606 36.7903 107.051 37.239 107.605 37.239H139.318C139.868 37.239 140.317 36.7903 140.317 36.2406C140.317 35.6909 139.868 35.2422 139.318 35.2422Z" fill="#CCCCCC"/>
</g>
<defs>
<clipPath id="clip0_631_2">
<rect width="512" height="240" fill="white"/>
</clipPath>
</defs>
</svg>
