<svg width="576" height="576" viewBox="0 0 576 576" fill="none" xmlns="http://www.w3.org/2000/svg">
<path d="M288 576C447.058 576 576 447.058 576 288C576 128.942 447.058 0 288 0C128.942 0 0 128.942 0 288C0 447.058 128.942 576 288 576Z" fill="#E6E6E6"/>
<path d="M259.2 134.403C275.106 134.403 288 121.509 288 105.603C288 89.6974 275.106 76.8032 259.2 76.8032C243.294 76.8032 230.4 89.6974 230.4 105.603C230.4 121.509 243.294 134.403 259.2 134.403Z" fill="#CBCBCB"/>
<path d="M316.8 460.797C332.706 460.797 345.6 447.903 345.6 431.997C345.6 416.091 332.706 403.197 316.8 403.197C300.894 403.197 288 416.091 288 431.997C288 447.903 300.894 460.797 316.8 460.797Z" fill="#CBCBCB"/>
<path d="M441.598 268.8C452.202 268.8 460.798 260.204 460.798 249.6C460.798 238.996 452.202 230.4 441.598 230.4C430.995 230.4 422.398 238.996 422.398 249.6C422.398 260.204 430.995 268.8 441.598 268.8Z" fill="#CBCBCB"/>
<path d="M172.799 403.201C215.214 403.201 249.599 368.817 249.599 326.401C249.599 283.986 215.214 249.601 172.799 249.601C130.384 249.601 95.999 283.986 95.999 326.401C95.999 368.817 130.384 403.201 172.799 403.201Z" fill="#CBCBCB"/>
</svg>
