<svg width="1555" height="666" viewBox="0 0 1555 666" fill="none" xmlns="http://www.w3.org/2000/svg">
<g clip-path="url(#clip0_586_3)">
<path d="M1184.91 334.356L1175.15 325.121C1173.64 323.753 1172.61 321.925 1172.23 319.916C1171.97 318.117 1172.53 316.605 1173.78 315.77L1185.06 308.233C1187.18 306.811 1190.7 307.641 1193.41 310.207L1198.8 315.307C1201.51 317.873 1202.53 321.334 1201.23 323.536L1194.33 335.208C1193.56 336.503 1192.08 337.15 1190.27 336.987C1188.24 336.719 1186.36 335.795 1184.91 334.356V334.356Z" fill="#3F3D56"/>
<path d="M1242.95 391.856L1233.19 382.621C1231.67 381.253 1230.65 379.425 1230.27 377.416C1230.01 375.617 1230.57 374.105 1231.82 373.27L1243.1 365.733C1245.22 364.311 1248.73 365.141 1251.45 367.707L1256.84 372.807C1259.55 375.373 1260.57 378.834 1259.27 381.036L1252.37 392.708C1251.6 394.003 1250.12 394.65 1248.31 394.487C1246.28 394.219 1244.4 393.295 1242.95 391.856V391.856Z" fill="#3F3D56"/>
<path d="M1232.05 221.261C1231.8 220.64 1231.78 219.953 1231.97 219.313C1232.17 218.674 1232.58 218.121 1233.13 217.745C1233.69 217.37 1234.35 217.194 1235.02 217.248C1235.69 217.302 1236.31 217.581 1236.8 218.041L1347.76 323.031C1348.04 323.295 1348.26 323.612 1348.42 323.964C1348.58 324.316 1348.66 324.695 1348.67 325.08C1348.69 325.466 1348.62 325.849 1348.48 326.209C1348.34 326.569 1348.14 326.899 1347.87 327.179L1347.87 327.179C1347.34 327.744 1346.6 328.074 1345.82 328.096C1345.04 328.118 1344.29 327.83 1343.72 327.297L1343.72 327.296L1232.76 222.307C1232.45 222.014 1232.21 221.657 1232.05 221.261Z" fill="#3F3D56"/>
<path d="M1307.69 225.315L1275.97 195.304L1174.5 302.53L1206.22 332.541L1307.69 225.315Z" fill="#E6E6E6"/>
<path d="M1310.35 224.224L1288.23 234.475L1214.5 308.216L1219.66 317.521L1310.35 224.224Z" fill="#CCCCCC"/>
<path d="M1319.37 182.451C1313.43 176.841 1299.02 182.442 1295.22 186.452L1288.35 193.717L1309.83 214.047L1316.71 206.782C1320.5 202.768 1325.3 188.07 1319.37 182.451Z" fill="#3F3D56"/>
<path d="M1233.16 238.919C1232.05 237.868 1231.41 236.421 1231.37 234.894C1231.33 233.368 1231.89 231.886 1232.94 230.775L1244.13 218.953C1245.18 217.843 1246.63 217.194 1248.16 217.151C1249.68 217.108 1251.16 217.673 1252.27 218.723C1253.38 219.772 1254.03 221.219 1254.07 222.747C1254.11 224.274 1253.54 225.756 1252.49 226.866L1241.3 238.688C1240.25 239.797 1238.8 240.444 1237.28 240.487C1235.75 240.53 1234.27 239.966 1233.16 238.919V238.919Z" fill="#3F3D56"/>
<path d="M1283.96 203.783L1291.42 196.034L1293.46 197.976L1286.02 205.701L1177.37 317.968L1175.32 316.032" fill="#3F3D56"/>
<path d="M1292.35 247.734L1255.57 212.932C1256.33 205.339 1273.8 187.243 1284.32 190.992L1291.88 189.033L1314.5 209.549L1312.01 217.079C1312.54 223.652 1296.69 243.156 1292.35 247.734Z" fill="#E6E6E6"/>
<path d="M1287.41 225.732L1278.11 216.931C1276.31 215.233 1277.09 211.479 1279.85 208.564C1282.61 205.649 1286.32 204.659 1288.11 206.357L1297.41 215.158C1299.21 216.857 1298.42 220.611 1295.67 223.526C1292.91 226.441 1289.2 227.431 1287.41 225.732Z" fill="#6C63FF"/>
<path d="M1218.57 259.516L1186.72 254.056L1153.7 280.553L1182.75 295.036L1218.57 259.516Z" fill="#E6E6E6"/>
<path d="M1368.55 283.616L1336.83 253.604L1235.36 360.831L1267.08 390.842L1368.55 283.616Z" fill="#E6E6E6"/>
<path d="M1338.67 253.242L1329 275.617L1257.19 351.234L1247.76 346.323L1338.67 253.242Z" fill="#CCCCCC"/>
<path d="M1379.61 240.166C1373.67 234.556 1359.26 240.157 1355.46 244.168L1348.59 251.433L1370.07 271.763L1376.95 264.498C1380.74 260.484 1385.54 245.786 1379.61 240.166Z" fill="#3F3D56"/>
<path d="M1353.57 278.158L1361.03 270.408L1363.07 272.35L1355.64 280.075L1246.98 392.343L1244.94 390.406" fill="#3F3D56"/>
<path d="M1352.59 305.451L1315.81 270.649C1318.96 266.248 1337.39 249.429 1344.56 248.71L1352.11 246.75L1374.74 267.267L1372.25 274.797C1378.1 281.685 1363.01 301.234 1352.59 305.451Z" fill="#E6E6E6"/>
<path d="M1346.1 285.081L1336.8 276.28C1335.01 274.582 1336.14 270.462 1339.32 267.097C1342.51 263.733 1346.56 262.377 1348.35 264.075L1357.65 272.876C1359.45 274.574 1358.32 278.694 1355.13 282.059C1351.95 285.423 1347.9 286.779 1346.1 285.081Z" fill="#6C63FF"/>
<path d="M1314.77 340.452L1318.77 372.524L1290.79 404.298L1277.65 374.619L1314.77 340.452Z" fill="#E6E6E6"/>
<path d="M1470.3 83.1264C1464.37 77.5164 1449.95 83.1175 1446.15 87.1283L1439.28 94.3925L1460.77 114.723L1467.64 107.458C1471.44 103.444 1476.23 88.7458 1470.3 83.1264Z" fill="#3F3D56"/>
<path d="M1215.06 363.271L1205.3 354.036C1203.78 352.668 1202.76 350.84 1202.38 348.831C1202.11 347.032 1202.68 345.52 1203.93 344.685L1215.21 337.148C1217.33 335.726 1220.84 336.556 1223.56 339.122L1228.95 344.222C1231.66 346.788 1232.68 350.249 1231.38 352.451L1224.47 364.123C1223.71 365.417 1222.23 366.065 1220.42 365.902C1218.39 365.634 1216.51 364.71 1215.06 363.271V363.271Z" fill="#3F3D56"/>
<path d="M1441.99 144.816L1410.27 114.805L1205.15 331.551L1236.87 361.562L1441.99 144.816Z" fill="#E6E6E6"/>
<path d="M1327.53 234.567L1334.99 226.818L1337.03 228.76L1329.6 236.485L1220.94 348.752L1218.89 346.816" fill="#3F3D56"/>
<path d="M1428.76 170.196L1385.78 129.533C1389.47 124.39 1411.01 104.738 1419.38 103.898L1425.9 99.4332L1455.58 127.511L1451.73 134.378C1452.35 142.058 1433.83 164.847 1428.76 170.196Z" fill="#E6E6E6"/>
<path d="M1455.84 129.071L1425.22 100.097C1424.09 99.0277 1423.76 97.5413 1424.48 96.7771C1424.59 96.6672 1424.71 96.576 1424.84 96.5076L1443.75 86.8574C1444.56 86.4441 1445.8 86.7841 1446.74 87.6795L1467.05 106.894C1468 107.79 1468.41 109.007 1468.04 109.838L1459.45 129.248C1459.01 130.24 1457.62 130.347 1456.35 129.485C1456.17 129.361 1456 129.223 1455.84 129.071V129.071Z" fill="#E6E6E6"/>
<path d="M1313.05 218.145C1312.9 217.76 1312.79 217.359 1312.73 216.949C1312.63 216.378 1312.66 215.792 1312.83 215.235C1312.99 214.679 1313.27 214.166 1313.66 213.737L1351.85 173.39C1353.43 171.72 1356.38 171.942 1358.44 173.885L1385.85 199.823C1387.9 201.766 1388.29 204.705 1386.71 206.376L1348.53 246.723C1348.12 247.136 1347.62 247.451 1347.08 247.643C1346.53 247.836 1345.95 247.9 1345.37 247.832C1344.08 247.7 1342.87 247.135 1341.94 246.228L1314.52 220.29C1313.88 219.691 1313.38 218.959 1313.05 218.145Z" fill="#3F3D56"/>
<path d="M1448.58 116.76L1439.28 107.959C1437.49 106.261 1437.99 102.808 1440.39 100.263C1442.8 97.718 1446.22 97.029 1448.02 98.7273L1457.32 107.528C1459.11 109.227 1458.62 112.679 1456.21 115.224C1453.8 117.769 1450.38 118.458 1448.58 116.76Z" fill="#6C63FF"/>
<path d="M1326.52 327.178C1325.41 326.127 1324.76 324.68 1324.72 323.153C1324.68 321.627 1325.25 320.145 1326.3 319.034L1337.49 307.212C1338.54 306.103 1339.98 305.456 1341.51 305.413C1343.04 305.37 1344.52 305.935 1345.63 306.984C1346.74 308.033 1347.38 309.48 1347.42 311.006C1347.46 312.533 1346.9 314.014 1345.85 315.125L1334.66 326.947C1333.61 328.056 1332.16 328.703 1330.63 328.746C1329.11 328.789 1327.63 328.225 1326.52 327.178Z" fill="#3F3D56"/>
<path d="M1429.28 157.255L1433.28 189.327L1405.3 221.101L1392.16 191.422L1429.28 157.255Z" fill="#E6E6E6"/>
<path d="M1402.03 130.008L1369.96 126.007L1338.19 153.982L1367.87 167.123L1402.03 130.008Z" fill="#E6E6E6"/>
</g>
<path d="M121.392 379.88L121.264 396.52C121.264 397.288 121.52 397.971 122.032 398.568C122.544 399.08 123.227 399.336 124.08 399.336C129.285 399.336 133.552 398.312 136.88 396.264C140.293 394.216 142 391.016 142 386.664C142 382.227 140.251 379.155 136.752 377.448C133.936 376.083 130.864 375.4 127.536 375.4C126.683 375.4 125.829 375.443 124.976 375.528C122.587 375.699 121.392 377.149 121.392 379.88ZM121.264 344.68L121.392 355.176C121.392 356.797 122.373 357.608 124.336 357.608C132.955 357.608 137.264 355.176 137.264 350.312C137.264 344.68 133.424 341.864 125.744 341.864C125.232 341.864 124.763 341.864 124.336 341.864C122.288 341.864 121.264 342.803 121.264 344.68ZM79.408 327.528C89.9893 327.187 103.216 327.016 119.088 327.016C134.96 327.016 145.925 327.187 151.984 327.528C158.128 327.784 163.547 330.131 168.24 334.568C172.933 339.005 175.28 344.125 175.28 349.928C175.28 357.011 172.208 362.216 166.064 365.544C165.467 365.885 165.168 366.312 165.168 366.824C165.168 367.251 165.467 367.549 166.064 367.72C170.501 368.915 174.213 371.475 177.2 375.4C180.272 379.325 181.808 383.976 181.808 389.352C181.808 396.093 179.205 402.195 174 407.656C168.795 413.117 160.816 416.104 150.064 416.616C139.312 417.043 131.547 417.256 126.768 417.256C121.989 417.256 106.032 417.128 78.896 416.872C76.4213 416.872 74.416 416.104 72.88 414.568C71.344 412.947 70.448 411.112 70.192 409.064C69.5093 401.555 69.168 390.632 69.168 376.296C69.168 361.875 69.4667 349.587 70.064 339.432C70.32 335.251 71.0453 332.264 72.24 330.472C73.4347 328.595 75.824 327.613 79.408 327.528ZM203.777 417C201.388 417 199.34 416.232 197.633 414.696C196.012 413.075 194.945 410.472 194.433 406.888C194.006 403.219 193.793 392.339 193.793 374.248C193.793 356.072 194.092 344.211 194.689 338.664C195.372 331.496 198.401 327.827 203.777 327.656C209.921 327.485 235.393 327.4 280.193 327.4C285.228 327.4 287.745 330.6 287.745 337C287.745 342.035 285.526 344.552 281.089 344.552H252.929C251.137 344.552 249.686 345.149 248.577 346.344C247.553 347.539 247.041 349.075 247.041 350.952V360.168C247.041 362.728 248.193 364.008 250.497 364.008H273.793C275.158 364.008 276.182 364.136 276.865 364.392C277.633 364.648 278.316 365.416 278.913 366.696C279.51 367.891 279.809 369.896 279.809 372.712C279.809 375.528 279.297 377.405 278.273 378.344C277.334 379.283 275.756 379.752 273.537 379.752H252.673C250.54 379.752 249.046 380.307 248.193 381.416C247.425 382.44 247.041 384.061 247.041 386.28V392.552C247.041 396.221 248.79 398.056 252.289 398.056H284.161C285.697 398.056 287.062 398.525 288.257 399.464C289.452 400.317 290.049 402.28 290.049 405.352C290.049 408.339 289.324 411.027 287.873 413.416C286.422 415.805 284.716 417 282.753 417H203.777ZM355.041 354.152L355.297 377.832C355.297 379.453 356.193 380.264 357.985 380.264C363.276 380.264 367.414 378.813 370.401 375.912C373.473 372.925 375.009 369.427 375.009 365.416C375.009 361.405 373.558 357.949 370.657 355.048C367.841 352.147 363.66 350.696 358.113 350.696C356.065 350.696 355.041 351.848 355.041 354.152ZM388.577 392.424C390.198 394.131 395.958 400.573 405.857 411.752C406.454 412.52 406.753 413.203 406.753 413.8C406.753 416.019 405.772 417.128 403.809 417.128C399.286 417.213 394.721 417.256 390.113 417.256C385.59 417.256 381.068 417.213 376.545 417.128C374.07 417.128 371.809 416.147 369.761 414.184L358.753 397.544C358.326 397.032 357.814 396.691 357.217 396.52C355.852 396.008 355.169 396.563 355.169 398.184V411.24C355.169 414.909 352.737 416.872 347.873 417.128C343.094 417.384 337.846 417.512 332.129 417.512C326.412 417.512 319.5 417.299 311.393 416.872C308.918 416.701 306.913 415.848 305.377 414.312C303.926 412.776 303.073 411.027 302.817 409.064C302.134 401.555 301.793 389.779 301.793 373.736C301.793 357.608 302.049 345.875 302.561 338.536C303.073 331.197 306.785 327.485 313.697 327.4C320.182 327.315 329.014 327.272 340.193 327.272C351.372 327.272 360.63 327.357 367.969 327.528C378.55 327.699 387.212 331.624 393.953 339.304C400.694 346.984 404.065 355.645 404.065 365.288C404.065 370.92 402.742 376.125 400.097 380.904C397.537 385.683 393.697 389.523 388.577 392.424ZM492.518 348.136C484.838 348.136 479.419 350.141 476.262 354.152C473.19 358.077 471.654 364.349 471.654 372.968C471.654 386.536 475.622 393.32 483.558 393.32C485.179 393.32 486.246 393.277 486.758 393.192C485.734 393.192 484.881 391.4 484.198 387.816C483.601 384.232 483.302 380.477 483.302 376.552C483.302 372.627 484.369 370.109 486.502 369C488.635 367.805 491.579 367.208 495.334 367.208C499.174 367.208 501.819 367.251 503.27 367.336C504.806 367.336 506.513 367.507 508.39 367.848C510.353 368.104 511.846 368.531 512.87 369.128C515.259 370.493 516.454 372.541 516.454 375.272V393.96C516.454 400.616 515.259 405.949 512.87 409.96C510.481 413.885 506.001 416.189 499.43 416.872C490.214 417.811 476.134 418.28 457.19 418.28C449.595 418.28 443.067 417.085 437.606 414.696C432.23 412.307 428.049 408.979 425.062 404.712C419.601 396.776 416.87 386.707 416.87 374.504C416.87 362.216 420.795 351.293 428.646 341.736C436.497 332.179 446.95 327.059 460.006 326.376C468.966 325.864 475.451 325.608 479.462 325.608C494.054 325.608 504.422 326.504 510.566 328.296C514.747 329.491 516.838 332.861 516.838 338.408C516.838 345.832 514.662 349.544 510.31 349.544C508.945 349.459 506.214 349.203 502.118 348.776C498.022 348.349 494.822 348.136 492.518 348.136ZM621.268 414.056C612.82 417.725 603.476 419.56 593.236 419.56C583.081 419.56 573.823 418.237 565.46 415.592C557.097 412.861 550.313 409.235 545.108 404.712C539.903 400.189 535.935 395.155 533.204 389.608C530.473 383.976 529.108 378.131 529.108 372.072C529.108 366.013 530.473 360.211 533.204 354.664C536.02 349.032 539.988 343.955 545.108 339.432C550.313 334.909 557.097 331.283 565.46 328.552C573.823 325.821 582.996 324.456 592.98 324.456C602.964 324.456 611.796 325.693 619.476 328.168C627.156 330.643 633.343 334.013 638.036 338.28C647.593 346.984 652.372 357.309 652.372 369.256C652.372 379.24 649.129 388.584 642.644 397.288L654.804 398.44C656.767 398.696 657.748 399.976 657.748 402.28C657.748 404.584 657.236 407.315 656.212 410.472C655.273 413.629 654.335 415.976 653.396 417.512C652.543 419.048 650.921 419.816 648.532 419.816C645.631 419.816 636.543 417.896 621.268 414.056ZM618.836 369.896C618.836 365.8 617.385 362.259 614.484 359.272C611.583 356.2 607.145 354.664 601.172 354.664C595.284 354.664 590.591 356.243 587.092 359.4C583.593 362.557 581.844 366.397 581.844 370.92C581.844 375.443 583.679 379.069 587.348 381.8C591.017 384.531 595.412 385.896 600.532 385.896C605.737 385.896 610.089 384.232 613.588 380.904C617.087 377.576 618.836 373.907 618.836 369.896ZM719.844 340.84L719.588 352.488V377.192C719.588 380.776 720.697 383.549 722.916 385.512C725.135 387.475 727.737 388.456 730.724 388.456C733.711 388.456 736.271 387.475 738.404 385.512C740.623 383.549 741.732 380.776 741.732 377.192V339.048C741.732 335.037 742.244 332.093 743.268 330.216C744.377 328.339 746.724 327.4 750.308 327.4H762.084C764.815 327.4 766.692 328.211 767.716 329.832C769.679 332.733 770.66 343.955 770.66 363.496C770.66 369.896 770.575 374.803 770.404 378.216C770.148 385.128 768.527 391.315 765.54 396.776C762.639 402.152 758.884 406.461 754.276 409.704C744.975 416.275 734.436 419.56 722.66 419.56C707.129 419.56 694.287 415.933 684.132 408.68C679.012 405.011 674.959 400.147 671.972 394.088C669.071 387.944 667.577 380.819 667.492 372.712C667.407 368.701 667.364 362.813 667.364 355.048C667.364 347.197 667.449 341.565 667.62 338.152C667.876 334.653 668.559 332.008 669.668 330.216C670.863 328.339 673.209 327.4 676.708 327.4H710.884C714.297 327.4 716.559 328.296 717.668 330.088C719.119 332.392 719.844 335.976 719.844 340.84ZM793.414 327.4H827.718C831.302 327.4 833.649 328.296 834.758 330.088C835.953 331.88 836.721 335.592 837.062 341.224C837.489 346.771 837.702 357.608 837.702 373.736C837.702 389.779 837.361 401.555 836.678 409.064C836.422 411.027 835.526 412.776 833.99 414.312C832.539 415.848 830.577 416.701 828.102 416.872C823.238 417.213 817.606 417.384 811.206 417.384C804.806 417.384 798.747 417.213 793.03 416.872C790.555 416.701 788.55 415.848 787.014 414.312C785.563 412.776 784.71 411.027 784.454 409.064C783.771 401.555 783.43 389.779 783.43 373.736C783.43 357.608 783.601 346.771 783.942 341.224C784.369 335.592 785.137 331.88 786.246 330.088C787.441 328.296 789.83 327.4 793.414 327.4ZM892.735 419.56C885.396 419.56 878.527 418.749 872.127 417.128C865.812 415.507 861.332 413.885 858.687 412.264C856.127 410.643 854.42 409.491 853.567 408.808C851.348 407.016 850.239 404.541 850.239 401.384C850.239 398.909 850.538 396.563 851.135 394.344C852.244 390.163 854.25 388.072 857.151 388.072C858.09 388.157 861.076 389.139 866.111 391.016C871.231 392.893 875.242 393.832 878.143 393.832C882.495 393.832 884.671 392.125 884.671 388.712C884.671 386.664 883.604 384.787 881.471 383.08C879.338 381.288 876.735 379.581 873.663 377.96C870.676 376.339 867.647 374.504 864.575 372.456C861.503 370.323 858.9 367.421 856.767 363.752C854.634 359.997 853.567 355.645 853.567 350.696C853.567 342.504 857.578 336.104 865.599 331.496C873.62 326.803 883.988 324.456 896.703 324.456C909.418 324.456 919.487 325.779 926.911 328.424C934.42 330.984 938.175 334.568 938.175 339.176C938.175 342.504 937.407 345.448 935.871 348.008C934.335 350.483 932.714 351.72 931.007 351.72C930.41 351.72 928.404 351.08 924.991 349.8C921.663 348.435 918.634 347.752 915.903 347.752C910.527 347.752 907.839 349.843 907.839 354.024C907.839 356.072 909.119 357.949 911.679 359.656C914.239 361.363 917.311 363.027 920.895 364.648C924.564 366.184 928.234 367.933 931.903 369.896C935.572 371.859 938.687 374.547 941.247 377.96C943.807 381.373 945.087 385.512 945.087 390.376C945.087 395.24 943.508 399.677 940.351 403.688C937.279 407.699 933.183 410.813 928.063 413.032C917.908 417.384 906.132 419.56 892.735 419.56ZM1029.39 409.192C1029.3 411.069 1028.49 412.819 1026.96 414.44C1025.42 415.976 1023.37 416.829 1020.81 417C1015.95 417.341 1010.1 417.512 1003.28 417.512C996.448 417.512 990.176 417.341 984.459 417C981.899 416.829 979.851 415.976 978.315 414.44C976.779 412.819 975.968 411.069 975.883 409.192C975.627 396.221 975.499 385.171 975.499 376.04C975.499 366.824 975.542 360.083 975.627 355.816C975.627 352.573 974.176 350.952 971.275 350.952H959.755C957.963 350.952 956.512 350.525 955.403 349.672C954.294 348.819 953.654 347.325 953.483 345.192C953.398 343.059 953.355 340.84 953.355 338.536C953.355 336.232 953.398 334.269 953.483 332.648C953.654 330.941 954.336 329.661 955.531 328.808C956.811 327.869 958.176 327.4 959.627 327.4C970.72 327.229 985.739 327.144 1004.68 327.144C1023.63 327.144 1037.2 327.229 1045.39 327.4C1046.84 327.485 1048.16 327.955 1049.36 328.808C1050.64 329.661 1051.32 330.941 1051.4 332.648C1051.57 334.269 1051.66 336.189 1051.66 338.408C1051.66 340.627 1051.62 342.76 1051.53 344.808C1051.28 348.648 1049.18 350.568 1045.26 350.568H1033.74C1030.84 350.568 1029.39 352.061 1029.39 355.048C1029.64 365.8 1029.77 375.528 1029.77 384.232C1029.77 392.936 1029.64 401.256 1029.39 409.192ZM151.856 488.416L193.712 559.2C195.419 562.016 196.272 564.405 196.272 566.368C196.272 568.245 195.504 569.653 193.968 570.592C192.432 571.531 190.64 572 188.592 572H147.376C143.195 572 140.507 571.232 139.312 569.696C138.971 569.184 138.501 568.288 137.904 567.008L134.192 559.072C133.083 556.597 130.48 555.189 126.384 554.848H102.192C100.4 554.848 99.0347 555.019 98.096 555.36C97.1573 555.701 96.3893 556.469 95.792 557.664L90.8 568.032C89.9467 569.568 89.008 570.635 87.984 571.232C86.96 571.744 85.4667 572 83.504 572H71.984C68.656 572 66.864 570.805 66.608 568.416C66.5227 568.075 66.48 567.733 66.48 567.392C66.48 565.429 67.12 563.552 68.4 561.76L108.464 491.104C112.304 484.448 118.533 481.12 127.152 481.12H137.392C144.219 481.12 149.04 483.552 151.856 488.416ZM110.384 521.184L104.496 532.832C104.155 533.6 103.984 534.283 103.984 534.88C103.984 537.099 105.051 538.208 107.184 538.208H118.832C120.624 538.208 121.861 537.781 122.544 536.928C123.227 535.989 123.568 535.179 123.568 534.496C123.568 533.813 123.44 533.131 123.184 532.448L118.32 521.44C117.296 519.221 115.973 518.112 114.352 518.112C112.731 518.112 111.408 519.136 110.384 521.184ZM261.294 555.488V566.24C261.294 569.909 258.777 571.872 253.742 572.128C248.793 572.384 243.374 572.512 237.486 572.512C231.683 572.512 225.027 572.299 217.518 571.872C215.043 571.701 213.038 570.848 211.502 569.312C210.051 567.776 209.198 566.027 208.942 564.064C208.259 556.555 207.918 544.779 207.918 528.736C207.918 512.608 208.174 500.875 208.686 493.536C209.198 486.197 212.91 482.485 219.822 482.4C227.758 482.229 236.249 482.144 245.294 482.144C254.339 482.144 264.11 482.272 274.606 482.528C285.187 482.784 293.806 486.752 300.462 494.432C307.118 502.112 310.446 510.56 310.446 519.776C310.446 528.992 307.502 536.587 301.614 542.56C295.726 548.533 287.107 551.52 275.758 551.52H265.774C264.665 551.52 263.641 551.904 262.702 552.672C261.763 553.44 261.294 554.379 261.294 555.488ZM261.166 509.152L261.422 532.832C261.422 534.453 262.318 535.264 264.11 535.264C269.401 535.264 273.539 533.813 276.526 530.912C279.598 527.925 281.134 524.427 281.134 520.416C281.134 516.405 279.683 512.949 276.782 510.048C273.966 507.147 269.785 505.696 264.238 505.696C262.19 505.696 261.166 506.848 261.166 509.152ZM375.669 555.488V566.24C375.669 569.909 373.152 571.872 368.117 572.128C363.168 572.384 357.749 572.512 351.861 572.512C346.058 572.512 339.402 572.299 331.893 571.872C329.418 571.701 327.413 570.848 325.877 569.312C324.426 567.776 323.573 566.027 323.317 564.064C322.634 556.555 322.293 544.779 322.293 528.736C322.293 512.608 322.549 500.875 323.061 493.536C323.573 486.197 327.285 482.485 334.197 482.4C342.133 482.229 350.624 482.144 359.669 482.144C368.714 482.144 378.485 482.272 388.981 482.528C399.562 482.784 408.181 486.752 414.837 494.432C421.493 502.112 424.821 510.56 424.821 519.776C424.821 528.992 421.877 536.587 415.989 542.56C410.101 548.533 401.482 551.52 390.133 551.52H380.149C379.04 551.52 378.016 551.904 377.077 552.672C376.138 553.44 375.669 554.379 375.669 555.488ZM375.541 509.152L375.797 532.832C375.797 534.453 376.693 535.264 378.485 535.264C383.776 535.264 387.914 533.813 390.901 530.912C393.973 527.925 395.509 524.427 395.509 520.416C395.509 516.405 394.058 512.949 391.157 510.048C388.341 507.147 384.16 505.696 378.613 505.696C376.565 505.696 375.541 506.848 375.541 509.152ZM490.556 513.248L490.428 538.848C490.428 542.603 490.983 545.419 492.092 547.296C493.287 549.088 495.719 549.984 499.388 549.984H531.772C535.697 550.069 537.66 553.056 537.66 558.944C537.66 563.467 537.105 566.752 535.996 568.8C534.887 570.848 532.625 571.915 529.212 572C517.18 572.341 505.276 572.512 493.5 572.512C481.724 572.512 466.705 572.427 448.444 572.256C445.372 572.256 442.855 571.531 440.892 570.08C439.015 568.544 437.948 566.453 437.692 563.808C437.009 556.384 436.668 544.693 436.668 528.736C436.668 512.693 436.839 501.899 437.18 496.352C437.607 490.72 438.417 487.008 439.612 485.216C440.807 483.339 443.153 482.4 446.652 482.4H480.956C484.54 482.4 486.887 483.339 487.996 485.216C489.191 487.093 489.916 490.123 490.172 494.304C490.428 498.485 490.556 504.8 490.556 513.248ZM557.039 482.4H591.343C594.927 482.4 597.274 483.296 598.383 485.088C599.578 486.88 600.346 490.592 600.687 496.224C601.114 501.771 601.327 512.608 601.327 528.736C601.327 544.779 600.986 556.555 600.303 564.064C600.047 566.027 599.151 567.776 597.615 569.312C596.164 570.848 594.202 571.701 591.727 571.872C586.863 572.213 581.231 572.384 574.831 572.384C568.431 572.384 562.372 572.213 556.655 571.872C554.18 571.701 552.175 570.848 550.639 569.312C549.188 567.776 548.335 566.027 548.079 564.064C547.396 556.555 547.055 544.779 547.055 528.736C547.055 512.608 547.226 501.771 547.567 496.224C547.994 490.592 548.762 486.88 549.871 485.088C551.066 483.296 553.455 482.4 557.039 482.4ZM661.864 574.56C646.504 574.56 634.344 570.677 625.384 562.912C616.509 555.061 612.072 544.011 612.072 529.76C612.072 521.056 613.48 513.419 616.296 506.848C619.197 500.277 623.251 495.029 628.456 491.104C638.781 483.339 652.392 479.456 669.288 479.456C680.211 479.456 691.133 480.949 702.056 483.936C706.237 485.301 708.328 488.672 708.328 494.048C708.328 501.387 706.024 505.056 701.416 505.056C700.648 505.056 698.131 504.715 693.864 504.032C689.597 503.349 686.611 503.008 684.904 503.008C678.845 503.008 674.152 505.141 670.824 509.408C667.581 513.589 665.96 518.624 665.96 524.512C665.96 530.315 667.496 535.435 670.568 539.872C673.64 544.309 677.821 546.613 683.112 546.784C686.696 546.955 693.053 547.04 702.184 547.04C706.621 547.04 709.053 549.131 709.48 553.312C709.736 554.848 709.864 556.427 709.864 558.048C709.864 559.584 709.736 561.163 709.48 562.784C708.968 565.856 706.579 568.117 702.312 569.568C698.045 570.933 691.901 572.085 683.88 573.024C675.859 574.048 668.52 574.56 661.864 574.56ZM804.106 488.416L845.962 559.2C847.669 562.016 848.522 564.405 848.522 566.368C848.522 568.245 847.754 569.653 846.218 570.592C844.682 571.531 842.89 572 840.842 572H799.626C795.445 572 792.757 571.232 791.562 569.696C791.221 569.184 790.751 568.288 790.154 567.008L786.442 559.072C785.333 556.597 782.73 555.189 778.634 554.848H754.442C752.65 554.848 751.285 555.019 750.346 555.36C749.407 555.701 748.639 556.469 748.042 557.664L743.05 568.032C742.197 569.568 741.258 570.635 740.234 571.232C739.21 571.744 737.717 572 735.754 572H724.234C720.906 572 719.114 570.805 718.858 568.416C718.773 568.075 718.73 567.733 718.73 567.392C718.73 565.429 719.37 563.552 720.65 561.76L760.714 491.104C764.554 484.448 770.783 481.12 779.402 481.12H789.642C796.469 481.12 801.29 483.552 804.106 488.416ZM762.634 521.184L756.746 532.832C756.405 533.6 756.234 534.283 756.234 534.88C756.234 537.099 757.301 538.208 759.434 538.208H771.082C772.874 538.208 774.111 537.781 774.794 536.928C775.477 535.989 775.818 535.179 775.818 534.496C775.818 533.813 775.69 533.131 775.434 532.448L770.57 521.44C769.546 519.221 768.223 518.112 766.602 518.112C764.981 518.112 763.658 519.136 762.634 521.184ZM933.512 564.192C933.427 566.069 932.616 567.819 931.08 569.44C929.544 570.976 927.496 571.829 924.936 572C920.072 572.341 914.227 572.512 907.4 572.512C900.573 572.512 894.301 572.341 888.584 572C886.024 571.829 883.976 570.976 882.44 569.44C880.904 567.819 880.093 566.069 880.008 564.192C879.752 551.221 879.624 540.171 879.624 531.04C879.624 521.824 879.667 515.083 879.752 510.816C879.752 507.573 878.301 505.952 875.4 505.952H863.88C862.088 505.952 860.637 505.525 859.528 504.672C858.419 503.819 857.779 502.325 857.608 500.192C857.523 498.059 857.48 495.84 857.48 493.536C857.48 491.232 857.523 489.269 857.608 487.648C857.779 485.941 858.461 484.661 859.656 483.808C860.936 482.869 862.301 482.4 863.752 482.4C874.845 482.229 889.864 482.144 908.808 482.144C927.752 482.144 941.32 482.229 949.512 482.4C950.963 482.485 952.285 482.955 953.48 483.808C954.76 484.661 955.443 485.941 955.528 487.648C955.699 489.269 955.784 491.189 955.784 493.408C955.784 495.627 955.741 497.76 955.656 499.808C955.4 503.648 953.309 505.568 949.384 505.568H937.864C934.963 505.568 933.512 507.061 933.512 510.048C933.768 520.8 933.896 530.528 933.896 539.232C933.896 547.936 933.768 556.256 933.512 564.192ZM977.914 482.4H1012.22C1015.8 482.4 1018.15 483.296 1019.26 485.088C1020.45 486.88 1021.22 490.592 1021.56 496.224C1021.99 501.771 1022.2 512.608 1022.2 528.736C1022.2 544.779 1021.86 556.555 1021.18 564.064C1020.92 566.027 1020.03 567.776 1018.49 569.312C1017.04 570.848 1015.08 571.701 1012.6 571.872C1007.74 572.213 1002.11 572.384 995.706 572.384C989.306 572.384 983.247 572.213 977.53 571.872C975.055 571.701 973.05 570.848 971.514 569.312C970.063 567.776 969.21 566.027 968.954 564.064C968.271 556.555 967.93 544.779 967.93 528.736C967.93 512.608 968.101 501.771 968.442 496.224C968.869 490.592 969.637 486.88 970.746 485.088C971.941 483.296 974.33 482.4 977.914 482.4ZM1099.38 574.56C1089.05 574.56 1079.71 573.237 1071.35 570.592C1062.98 567.861 1056.2 564.235 1051 559.712C1045.79 555.189 1041.82 550.155 1039.09 544.608C1036.36 538.976 1035 533.131 1035 527.072C1035 521.013 1036.36 515.211 1039.09 509.664C1041.91 504.032 1045.88 498.955 1051 494.432C1056.2 489.909 1062.98 486.283 1071.35 483.552C1079.71 480.821 1088.88 479.456 1098.87 479.456C1108.85 479.456 1117.68 480.693 1125.36 483.168C1133.04 485.643 1139.23 489.013 1143.92 493.28C1153.48 501.984 1158.26 512.309 1158.26 524.256C1158.26 530.315 1156.94 536.245 1154.29 542.048C1151.73 547.851 1148.02 553.141 1143.16 557.92C1138.38 562.613 1132.19 566.496 1124.6 569.568C1117 572.555 1108.6 574.219 1099.38 574.56ZM1124.72 524.896C1124.72 520.8 1123.27 517.259 1120.37 514.272C1117.47 511.2 1113.03 509.664 1107.06 509.664C1101.17 509.664 1096.48 511.243 1092.98 514.4C1089.48 517.557 1087.73 521.397 1087.73 525.92C1087.73 530.443 1089.57 534.069 1093.24 536.8C1096.9 539.531 1101.3 540.896 1106.42 540.896C1111.62 540.896 1115.98 539.232 1119.48 535.904C1122.97 532.576 1124.72 528.907 1124.72 524.896ZM1257.84 482.4H1271.54C1274.44 482.4 1276.44 482.869 1277.55 483.808C1278.75 484.747 1279.39 486.667 1279.47 489.568C1279.98 502.539 1280.24 516.491 1280.24 531.424C1280.24 546.357 1279.94 557.28 1279.34 564.192C1279.17 566.155 1278.4 567.947 1277.04 569.568C1275.76 571.189 1274.05 572 1271.92 572H1250.54C1247.56 572 1244.27 570.933 1240.69 568.8C1220.89 557.109 1208.43 549.984 1203.31 547.424C1202.29 546.997 1201.43 547.168 1200.75 547.936C1200.15 548.619 1199.86 549.941 1199.86 551.904V566.112C1199.86 567.733 1199.26 569.013 1198.06 569.952C1196.27 571.403 1191.66 572.128 1184.24 572.128C1182.19 572.128 1180.19 572.085 1178.22 572C1176.26 571.829 1174.64 570.933 1173.36 569.312C1172.16 567.691 1171.52 565.941 1171.44 564.064C1171.18 553.824 1171.06 540.981 1171.06 525.536C1171.06 510.005 1171.1 499.893 1171.18 495.2C1171.27 490.507 1171.82 487.221 1172.85 485.344C1173.87 483.381 1175.83 482.4 1178.74 482.4H1192.82C1195.72 482.4 1198.7 483.211 1201.78 484.832C1228.23 498.571 1243.67 506.549 1248.11 508.768C1249.56 509.451 1250.71 509.536 1251.57 509.024C1252.42 508.512 1252.85 507.573 1252.85 506.208V488.288C1252.85 486.581 1253.27 485.173 1254.13 484.064C1255.07 482.955 1256.3 482.4 1257.84 482.4ZM1334.24 574.56C1326.9 574.56 1320.03 573.749 1313.63 572.128C1307.31 570.507 1302.83 568.885 1300.19 567.264C1297.63 565.643 1295.92 564.491 1295.07 563.808C1292.85 562.016 1291.74 559.541 1291.74 556.384C1291.74 553.909 1292.04 551.563 1292.64 549.344C1293.74 545.163 1295.75 543.072 1298.65 543.072C1299.59 543.157 1302.58 544.139 1307.61 546.016C1312.73 547.893 1316.74 548.832 1319.64 548.832C1324 548.832 1326.17 547.125 1326.17 543.712C1326.17 541.664 1325.1 539.787 1322.97 538.08C1320.84 536.288 1318.24 534.581 1315.16 532.96C1312.18 531.339 1309.15 529.504 1306.08 527.456C1303 525.323 1300.4 522.421 1298.27 518.752C1296.13 514.997 1295.07 510.645 1295.07 505.696C1295.07 497.504 1299.08 491.104 1307.1 486.496C1315.12 481.803 1325.49 479.456 1338.2 479.456C1350.92 479.456 1360.99 480.779 1368.41 483.424C1375.92 485.984 1379.68 489.568 1379.68 494.176C1379.68 497.504 1378.91 500.448 1377.37 503.008C1375.84 505.483 1374.21 506.72 1372.51 506.72C1371.91 506.72 1369.9 506.08 1366.49 504.8C1363.16 503.435 1360.13 502.752 1357.4 502.752C1352.03 502.752 1349.34 504.843 1349.34 509.024C1349.34 511.072 1350.62 512.949 1353.18 514.656C1355.74 516.363 1358.81 518.027 1362.4 519.648C1366.06 521.184 1369.73 522.933 1373.4 524.896C1377.07 526.859 1380.19 529.547 1382.75 532.96C1385.31 536.373 1386.59 540.512 1386.59 545.376C1386.59 550.24 1385.01 554.677 1381.85 558.688C1378.78 562.699 1374.68 565.813 1369.56 568.032C1359.41 572.384 1347.63 574.56 1334.24 574.56Z" fill="#E6E6E6"/>
<defs>
<clipPath id="clip0_586_3">
<rect width="194.946" height="394.385" fill="white" transform="translate(1416.87 11) rotate(45)"/>
</clipPath>
</defs>
</svg>
