<svg width="1476" height="898" viewBox="0 0 1476 898" fill="none" xmlns="http://www.w3.org/2000/svg">
<rect width="1476" height="898" fill="#3F3D56"/>
<path d="M504.027 325.275C507.15 325.275 509.682 322.219 509.682 318.449C509.682 314.679 507.15 311.623 504.027 311.623C500.904 311.623 498.372 314.679 498.372 318.449C498.372 322.219 500.904 325.275 504.027 325.275Z" fill="#6C63FF"/>
<path d="M130.287 564.35C132.071 564.35 133.517 562.604 133.517 560.45C133.517 558.297 132.071 556.551 130.287 556.551C128.502 556.551 127.056 558.297 127.056 560.45C127.056 562.604 128.502 564.35 130.287 564.35Z" fill="#FF6584"/>
<path d="M647.773 300.864C649.598 300.864 651.077 299.078 651.077 296.876C651.077 294.673 649.598 292.887 647.773 292.887C645.948 292.887 644.469 294.673 644.469 296.876C644.469 299.078 645.948 300.864 647.773 300.864Z" fill="#F0F0F0"/>
<path d="M345.518 739.843C347.342 739.843 348.821 738.058 348.821 735.855C348.821 733.652 347.342 731.867 345.518 731.867C343.693 731.867 342.214 733.652 342.214 735.855C342.214 738.058 343.693 739.843 345.518 739.843Z" fill="#F0F0F0"/>
<path d="M392.915 795.185C394.74 795.185 396.219 793.4 396.219 791.197C396.219 788.994 394.74 787.208 392.915 787.208C391.09 787.208 389.611 788.994 389.611 791.197C389.611 793.4 391.09 795.185 392.915 795.185Z" fill="#F0F0F0"/>
<path d="M99.983 637.602C101.808 637.602 103.287 635.817 103.287 633.614C103.287 631.412 101.808 629.626 99.983 629.626C98.1584 629.626 96.6792 631.412 96.6792 633.614C96.6792 635.817 98.1584 637.602 99.983 637.602Z" fill="#F0F0F0"/>
<path d="M279.304 531.977C281.128 531.977 282.608 530.191 282.608 527.988C282.608 525.786 281.128 524 279.304 524C277.479 524 276 525.786 276 527.988C276 530.191 277.479 531.977 279.304 531.977Z" fill="#F0F0F0"/>
<path d="M255.304 137.977C257.128 137.977 258.608 136.191 258.608 133.988C258.608 131.786 257.128 130 255.304 130C253.479 130 252 131.786 252 133.988C252 136.191 253.479 137.977 255.304 137.977Z" fill="#F0F0F0"/>
<path d="M570.304 606.977C572.128 606.977 573.608 605.191 573.608 602.988C573.608 600.786 572.128 599 570.304 599C568.479 599 567 600.786 567 602.988C567 605.191 568.479 606.977 570.304 606.977Z" fill="#F0F0F0"/>
<path d="M313.304 583.977C315.128 583.977 316.608 582.191 316.608 579.988C316.608 577.786 315.128 576 313.304 576C311.479 576 310 577.786 310 579.988C310 582.191 311.479 583.977 313.304 583.977Z" fill="#F0F0F0"/>
<path d="M346.304 321.977C348.128 321.977 349.608 320.191 349.608 317.988C349.608 315.786 348.128 314 346.304 314C344.479 314 343 315.786 343 317.988C343 320.191 344.479 321.977 346.304 321.977Z" fill="#F0F0F0"/>
<path d="M103.304 210.977C105.128 210.977 106.608 209.191 106.608 206.988C106.608 204.786 105.128 203 103.304 203C101.479 203 100 204.786 100 206.988C100 209.191 101.479 210.977 103.304 210.977Z" fill="#F0F0F0"/>
<path d="M510.744 192.831C513.917 192.831 516.488 190.182 516.488 186.915C516.488 183.648 513.917 181 510.744 181C507.572 181 505 183.648 505 186.915C505 190.182 507.572 192.831 510.744 192.831Z" fill="#FF6584"/>
<path d="M1035.96 204.213C1038.7 204.213 1040.92 201.926 1040.92 199.106C1040.92 196.286 1038.7 194 1035.96 194C1033.22 194 1031 196.286 1031 199.106C1031 201.926 1033.22 204.213 1035.96 204.213Z" fill="#6C63FF"/>
<path d="M1245.9 465.967C1247.5 465.967 1248.79 464.631 1248.79 462.983C1248.79 461.336 1247.5 460 1245.9 460C1244.3 460 1243 461.336 1243 462.983C1243 464.631 1244.3 465.967 1245.9 465.967Z" fill="#F0F0F0"/>
<path d="M833.545 767.706C835.145 767.706 836.442 766.37 836.442 764.723C836.442 763.075 835.145 761.739 833.545 761.739C831.945 761.739 830.648 763.075 830.648 764.723C830.648 766.37 831.945 767.706 833.545 767.706Z" fill="#F0F0F0"/>
<path d="M1346.9 565.967C1348.5 565.967 1349.79 564.631 1349.79 562.983C1349.79 561.336 1348.5 560 1346.9 560C1345.3 560 1344 561.336 1344 562.983C1344 564.631 1345.3 565.967 1346.9 565.967Z" fill="#F0F0F0"/>
<path d="M923.959 546.837C926.697 546.837 928.917 544.551 928.917 541.731C928.917 538.911 926.697 536.625 923.959 536.625C921.22 536.625 919 538.911 919 541.731C919 544.551 921.22 546.837 923.959 546.837Z" fill="#6C63FF"/>
<path d="M889.796 618.752C891.396 618.752 892.693 617.416 892.693 615.769C892.693 614.121 891.396 612.785 889.796 612.785C888.196 612.785 886.899 614.121 886.899 615.769C886.899 617.416 888.196 618.752 889.796 618.752Z" fill="#F0F0F0"/>
<path d="M1142.9 321.967C1144.5 321.967 1145.79 320.631 1145.79 318.983C1145.79 317.336 1144.5 316 1142.9 316C1141.3 316 1140 317.336 1140 318.983C1140 320.631 1141.3 321.967 1142.9 321.967Z" fill="#F0F0F0"/>
<path d="M1011.67 788.394C1013.27 788.394 1014.57 787.059 1014.57 785.411C1014.57 783.763 1013.27 782.428 1011.67 782.428C1010.07 782.428 1008.78 783.763 1008.78 785.411C1008.78 787.059 1010.07 788.394 1011.67 788.394Z" fill="#F0F0F0"/>
<path d="M1148.9 143.967C1150.5 143.967 1151.79 142.631 1151.79 140.983C1151.79 139.336 1150.5 138 1148.9 138C1147.3 138 1146 139.336 1146 140.983C1146 142.631 1147.3 143.967 1148.9 143.967Z" fill="#F0F0F0"/>
<path d="M1043.82 324.979C1045.42 324.979 1046.71 323.644 1046.71 321.996C1046.71 320.348 1045.42 319.013 1043.82 319.013C1042.22 319.013 1040.92 320.348 1040.92 321.996C1040.92 323.644 1042.22 324.979 1043.82 324.979Z" fill="#F0F0F0"/>
<path d="M929.01 680.327C930.61 680.327 931.907 678.991 931.907 677.343C931.907 675.696 930.61 674.36 929.01 674.36C927.41 674.36 926.113 675.696 926.113 677.343C926.113 678.991 927.41 680.327 929.01 680.327Z" fill="#F0F0F0"/>
<path d="M1117.85 525.855C1119.45 525.855 1120.75 524.52 1120.75 522.872C1120.75 521.224 1119.45 519.889 1117.85 519.889C1116.25 519.889 1114.96 521.224 1114.96 522.872C1114.96 524.52 1116.25 525.855 1117.85 525.855Z" fill="#F0F0F0"/>
<path d="M1194.19 324.491C1195.79 324.491 1197.09 323.155 1197.09 321.507C1197.09 319.86 1195.79 318.524 1194.19 318.524C1192.59 318.524 1191.3 319.86 1191.3 321.507C1191.3 323.155 1192.59 324.491 1194.19 324.491Z" fill="#F0F0F0"/>
<path d="M1117.74 688.831C1120.92 688.831 1123.49 686.182 1123.49 682.915C1123.49 679.648 1120.92 677 1117.74 677C1114.57 677 1112 679.648 1112 682.915C1112 686.182 1114.57 688.831 1117.74 688.831Z" fill="#FF6584"/>
<path d="M878.743 289.108C883.571 289.108 887.486 284.383 887.486 278.554C887.486 272.725 883.571 268 878.743 268C873.914 268 870 272.725 870 278.554C870 284.383 873.914 289.108 878.743 289.108Z" fill="#FF6584"/>
<path d="M869.744 143.831C872.917 143.831 875.488 141.182 875.488 137.915C875.488 134.648 872.917 132 869.744 132C866.572 132 864 134.648 864 137.915C864 141.182 866.572 143.831 869.744 143.831Z" fill="#FF6584"/>
</svg>
