<svg width="1239" height="1239" viewBox="0 0 1239 1239" fill="none" xmlns="http://www.w3.org/2000/svg">
<g clip-path="url(#clip0_411_75)">
<path d="M1238.08 618.919V622.623C1238 631.925 1237.73 641.186 1237.28 650.404C1229.26 808.166 1161.2 956.886 1047.06 1066.08C932.924 1175.28 781.345 1236.69 623.389 1237.72C465.434 1238.76 313.063 1179.34 197.505 1071.64C81.9474 963.946 11.9525 816.129 1.86511 658.486C1.02323 645.395 0.602419 632.206 0.602488 618.919C0.3804 490.762 40.153 365.729 114.375 261.255C120.31 252.836 126.483 244.572 132.895 236.462C137.314 230.822 141.86 225.307 146.448 219.835C250.897 96.0921 399.684 18.2178 560.887 2.9199C722.091 -12.378 882.869 36.1191 1008.73 138.007C1016.18 144.026 1023.5 150.256 1030.66 156.612C1036.38 161.705 1042.01 166.91 1047.54 172.228C1156.41 276.372 1223.42 416.748 1235.94 566.892C1237.37 584.066 1238.08 601.408 1238.08 618.919Z" fill="#6C63FF"/>
<path d="M132.897 236.459C133.2 236.587 133.484 236.757 133.739 236.964C137.064 239.701 132.897 244.962 133.402 249.298C133.991 254.854 141.399 256.075 146.997 256.622C152.595 257.211 159.667 261.715 157.015 266.682C142.957 271.523 128.73 266.766 114.377 261.252C40.1549 365.727 0.382403 490.759 0.60444 618.916C0.60444 632.218 1.02523 645.407 1.86706 658.484C3.04392 659.343 4.33267 660.036 5.69742 660.546C9.90653 662.146 14.7891 661.851 18.6615 664.124C21.7342 665.934 23.7966 669.133 26.8693 670.817C35.6663 675.616 47.8728 666.397 56.0806 672.122C58.2021 674.054 60.2116 676.106 62.0995 678.267C69.6759 684.834 82.1348 680.414 90.8898 685.339C96.53 688.496 99.4344 694.81 102.465 700.535C109.999 714.846 122.206 728.905 138.327 730.042C143.411 729.809 148.506 729.977 153.564 730.547C158.53 731.684 163.413 736.019 162.613 741.028C161.224 749.657 165.475 759.086 164.339 767.715C162.277 783.5 139.926 790.403 138.032 806.188C138.026 809.662 137.829 813.133 137.443 816.585C136.433 820.71 133.318 824.078 132.223 828.203C130.119 835.99 135.717 843.777 141.82 848.997C147.965 854.259 155.289 858.805 158.657 866.129C162.192 873.916 160.466 882.966 161.603 891.427C164.128 909.906 180.081 923.586 196.497 932.425C201.757 934.624 206.428 938.026 210.134 942.359C214.343 948.463 213.922 956.503 215.353 963.784C218.805 981.59 233.789 996.28 234.21 1014.42C234.505 1027.34 227.349 1039.05 223.056 1051.21C218.64 1063.96 217.327 1077.59 219.226 1090.95C243.225 1111.3 268.736 1129.81 295.537 1146.3C296.995 1144.15 298.063 1141.75 298.694 1139.23C299.203 1136.44 298.852 1133.56 297.687 1130.97C296.521 1128.39 294.597 1126.22 292.17 1124.75C296.694 1123.04 300.809 1120.4 304.25 1117C305.941 1115.26 307.057 1113.05 307.449 1110.65C307.84 1108.26 307.488 1105.8 306.439 1103.62C313.847 1104.54 322.644 1105.01 327.527 1099.32C331.441 1094.78 331.188 1087.96 329.631 1082.19C328.074 1076.38 325.464 1070.78 325.422 1064.77C342.585 1065.6 359.788 1065.02 376.857 1063.04C374.387 1054.71 368.771 1047.68 361.199 1043.42C368.944 1042.12 375.973 1032.86 378.415 1025.41C380.526 1017.81 380.642 1009.79 378.751 1002.13C378.166 1000.16 378.079 998.08 378.499 996.07C379.744 993.4 381.933 991.286 384.644 990.134C397.44 982.768 410.236 975.416 423.031 968.078C425.314 966.926 427.391 965.404 429.177 963.574C433.175 958.817 432.586 951.704 430.523 945.853C428.461 940.002 425.178 934.487 424.378 928.342C422.021 909.947 441.72 896.73 448.37 879.388C450.631 872.465 451.851 865.244 451.99 857.962C452.537 850.133 452.579 841.083 446.602 836.074C440.836 831.233 431.87 832.328 425.851 827.824C420.337 823.699 418.443 815.743 412.424 812.418C406.953 809.387 400.134 811.323 394.03 809.892C383.339 807.409 376.605 795.076 365.661 793.939C359.516 793.266 352.529 796.296 347.478 792.718C343.016 789.519 342.848 783.163 342.006 777.775C340.511 769.383 336.483 761.65 330.464 755.615C324.444 749.58 316.721 745.532 308.333 744.017C301.977 743.007 295.074 743.385 289.644 739.892C284.173 736.356 281.689 729.747 277.354 724.822C270.451 716.951 259.507 714.131 249.279 711.731C235.389 708.49 221.513 705.235 207.651 701.966C200.285 700.198 190.772 699.272 186.773 705.754C185.59 708.219 184.768 710.842 184.332 713.541C182.829 718.399 179.83 722.659 175.764 725.712C171.698 728.766 166.772 730.458 161.687 730.547C158.207 724.604 152.568 720.231 145.945 718.34C141.618 717.614 137.343 716.601 133.15 715.309C130.959 714.236 129.011 712.728 127.424 710.876C125.837 709.024 124.645 706.868 123.92 704.539C123.195 702.21 122.953 699.758 123.208 697.333C123.463 694.907 124.211 692.559 125.405 690.432C127.791 686.161 128.709 681.223 128.017 676.379C127.325 671.535 125.062 667.052 121.574 663.619C114.503 657.263 104.275 655.706 94.7622 656.337C92.2789 650.907 96.446 644.804 100.908 640.847C105.411 636.932 110.841 633.06 111.809 627.167C113.367 617.906 101.539 610.877 92.5736 613.613C83.6082 616.391 77.8838 625.104 74.0955 633.691C72.2583 638.758 69.7528 643.557 66.6454 647.961C65.0533 650.139 62.8895 651.835 60.3935 652.86C57.8975 653.885 55.1666 654.2 52.5029 653.769C45.0948 651.875 42.2747 643.078 40.6331 635.669C38.0026 625.768 36.6726 615.566 36.6765 605.32C36.7408 594.974 40.8499 585.064 48.1253 577.707C60.3738 566.426 79.2306 567.521 95.7724 569.331C94.0005 566.967 93.1514 564.039 93.3838 561.095C93.6163 558.15 94.9145 555.391 97.0352 553.335C99.2488 551.37 101.909 549.974 104.784 549.27C107.66 548.566 110.663 548.574 113.535 549.295C118.522 550.327 123.015 553.011 126.289 556.913C131.003 562.638 132.35 570.425 135.885 576.908C139.463 583.432 147.46 588.988 153.985 585.495C159.667 582.464 160.551 574.634 159.162 568.363C157.731 562.133 154.742 556.029 155.247 549.631C156.215 537.466 168.885 530.1 180.039 525.091C191.193 520.082 203.947 513.305 205.714 501.182C205.796 498.825 206.251 496.495 207.061 494.279C208.296 492.301 210.021 490.677 212.07 489.565C244.607 468.055 277.732 446.251 314.941 434.507C316.877 433.876 317.088 434.549 319.066 434.086C321.844 432.487 319.992 428.067 317.34 426.299C314.688 424.531 311.153 423.142 310.479 420.027C310.016 417.754 311.363 415.481 311.7 413.166C311.788 411.768 311.532 410.369 310.954 409.093C310.375 407.817 309.493 406.702 308.384 405.846C307.274 404.99 305.972 404.419 304.591 404.184C303.21 403.948 301.792 404.055 300.462 404.495C297.473 400.538 303.366 395.95 308.164 394.603C322.531 390.667 337.276 388.268 352.15 387.447C353.866 387.164 355.629 387.46 357.158 388.289C358.252 389.344 358.901 390.778 358.971 392.297C359.042 393.815 358.529 395.303 357.537 396.455C355.512 398.704 353.27 400.749 350.845 402.559C348.43 404.904 346.705 407.868 345.859 411.126C345.013 414.385 345.078 417.813 346.047 421.037C353.833 424.994 362.252 429.077 370.88 427.688C379.467 426.299 387.085 416.618 383.045 408.915C379.298 401.717 367.976 400.075 366.04 392.204C363.767 382.985 376.815 374.777 373.868 365.769C372.606 361.812 368.649 359.455 365.619 356.635C362.052 353.123 359.627 348.619 358.658 343.708C357.689 338.798 358.223 333.709 360.189 329.106C355.261 329.967 350.199 329.637 345.425 328.143C340.651 326.649 336.304 324.035 332.746 320.519C326.179 313.911 320.96 303.429 311.616 303.766C303.071 304.019 295.705 313.995 287.708 310.964C285.73 310.206 283.667 308.691 281.773 309.575C281.148 309.977 280.623 310.515 280.236 311.149C279.85 311.784 279.613 312.498 279.542 313.237C277.522 322.961 281.016 334.031 275.712 342.45C269.946 351.584 256.603 352.847 249.616 361.097C245.827 365.559 244.354 371.578 240.861 376.292C237.367 381.007 230.001 384.038 225.792 379.912C227.853 375.687 228.418 370.886 227.393 366.297C226.368 361.708 223.815 357.604 220.152 354.657C216.275 352.112 212.088 350.075 207.693 348.595C202.783 346.523 198.112 343.927 193.761 340.85C191.592 339.529 189.83 337.636 188.668 335.378C187.748 332.539 187.867 329.466 189.004 326.707C191.135 320.628 194.883 315.244 199.845 311.135C204.806 307.027 210.793 304.348 217.163 303.388C222.719 302.63 229.201 302.882 232.905 298.631C234.841 296.4 235.852 292.991 238.714 292.107C240.517 291.73 242.394 291.952 244.059 292.738C251.005 295.18 257.908 297.621 264.853 300.062C267.168 301.124 269.727 301.546 272.261 301.283C273.517 301.121 274.664 300.487 275.469 299.51C276.274 298.532 276.677 297.285 276.596 296.021C275.922 292.57 270.619 290.928 271.124 287.434C271.369 286.293 271.974 285.26 272.85 284.488C280.357 276.503 289.536 270.275 299.73 266.251C309.925 262.227 320.882 260.506 331.82 261.21C334.429 265.546 330.304 270.639 326.811 274.301C323.359 278.005 320.581 284.572 324.79 287.392C326.488 288.283 328.388 288.718 330.304 288.655C335.423 289.342 340.397 290.848 345.036 293.117C352.234 296.232 359.305 299.683 366.208 303.388C365.192 298.875 365.366 294.175 366.713 289.749C367.474 287.577 369.016 285.766 371.039 284.669C373.062 283.571 375.422 283.267 377.657 283.814C381.782 285.414 383.886 290.886 388.306 291.391C394.157 292.065 396.472 283.393 394.03 278.005C391.589 272.618 386.706 268.156 386.328 262.221C386.033 258.264 387.548 253.339 384.392 250.94C383.269 250.196 381.984 249.734 380.645 249.593C354.212 244.752 327.765 239.897 301.304 235.029C296.589 234.145 289.813 234.818 289.602 239.575C289.476 242.269 291.875 244.92 290.823 247.362C289.686 249.972 285.982 249.761 283.289 250.687C281.265 251.605 279.595 253.158 278.531 255.11C277.468 257.061 277.069 259.306 277.396 261.505C278.115 265.882 279.813 270.04 282.362 273.67C277.185 271.523 269.398 271.144 264.221 268.955C263.468 262.96 261.94 257.089 259.675 251.487C259.546 250.595 259.223 249.743 258.728 248.99C258.234 248.237 257.581 247.601 256.814 247.128C256.048 246.654 255.187 246.354 254.293 246.249C253.398 246.144 252.491 246.237 251.636 246.52C244.817 247.572 237.998 248.582 231.18 249.635C229.467 249.716 227.828 250.351 226.508 251.445C223.856 254.265 226.465 258.769 226.381 262.642C226.135 264.807 225.22 266.842 223.764 268.464C222.308 270.085 220.384 271.213 218.258 271.692C213.974 272.561 209.553 272.504 205.293 271.523C195.739 270.05 186.226 268.577 176.671 267.103C185.105 264.416 192.606 259.396 198.306 252.623C202.095 248.162 204.115 239.827 198.643 237.723C197.027 237.279 195.341 237.15 193.676 237.344C180.712 237.428 170.484 226.61 158.362 222.022C154.55 220.6 150.518 219.859 146.45 219.833L132.897 236.459Z" fill="#3F3D56"/>
<path d="M1237.28 650.402C1235.8 652.395 1233.85 653.993 1231.6 655.057C1229.36 656.121 1226.88 656.619 1224.4 656.506C1211.23 655.369 1205.67 636.385 1192.62 634.238C1191.47 633.943 1190.25 634.062 1189.17 634.575C1187.23 635.627 1186.9 638.237 1186.77 640.426C1186.22 651.286 1185.76 662.567 1190.01 672.585C1196.2 687.233 1212.24 699.525 1208.87 715.057C1190.77 706.68 1181.34 686.349 1177.09 666.86C1172.8 647.371 1172.12 626.914 1164.46 608.477C1158.61 615.928 1146.41 609.782 1141.1 601.953C1136.05 594.545 1132.94 585.958 1128.05 578.423C1123.17 570.931 1115.68 564.196 1106.76 563.775C1097.37 563.354 1089.2 569.794 1082.05 575.898C1075.82 580.496 1070.6 586.31 1066.69 592.987C1061.68 603.09 1062.98 614.96 1062.73 626.199C1062.48 638.322 1059.91 651.16 1051.62 660.084C1043.32 668.965 1028.05 672.08 1018.91 664.04C1014.5 659.436 1011.35 653.766 1009.78 647.582C999.848 618.642 991.585 589.157 985.028 559.271C983.513 566.09 977.494 574.888 971.77 570.889C970.49 569.8 969.457 568.451 968.739 566.932C958.048 548.874 938.307 538.014 918.314 531.49C898.363 525.007 877.359 521.977 857.618 514.821C846.548 510.801 835.971 505.533 826.092 499.12C823.583 502.817 822.118 507.122 821.851 511.582C821.584 516.042 822.526 520.491 824.577 524.46C826.795 528.344 830.235 531.386 834.36 533.114C838.486 534.842 843.066 535.159 847.39 534.015C851.768 532.584 855.472 529.553 859.807 528.038C864.142 526.565 869.993 527.28 871.887 531.49C873.739 535.489 870.961 540.329 872.35 544.539C874.413 550.895 884.052 551.4 887.419 557.209C888.409 559.509 888.636 562.065 888.068 564.504C887.5 566.943 886.166 569.136 884.262 570.762C880.388 573.921 876.114 576.553 871.551 578.592C857.408 586.463 847.348 599.891 834.973 610.33C822.598 620.811 805.131 628.43 790.399 621.737C793.892 603.932 772.72 590.883 768.806 573.162C767.501 567.311 768.175 561.123 766.365 555.441C763.713 547.19 756.389 541.55 750.412 535.32C743.151 527.672 737.492 518.649 733.769 508.782C730.047 498.914 728.335 488.402 728.735 477.863C729.072 470.539 730.419 463.089 728.735 455.933C727.094 448.819 721.159 441.916 713.835 442.211C697.125 442.968 676.037 444.231 667.282 429.961C664.125 424.868 662.778 417.418 667.324 413.503C670.523 410.767 675.237 411.02 679.404 411.441C691.99 412.661 704.533 413.924 717.118 415.145C725.915 415.987 735.428 416.702 743.004 412.114C750.58 407.526 753.864 395.277 746.834 389.847C741.741 385.89 732.565 386.101 731.05 379.829C729.829 374.567 735.638 368.632 732.481 364.212C730.25 361.098 725.199 361.939 722.127 364.297C719.445 367.08 716.531 369.629 713.414 371.915C707.395 375.03 700.239 372.042 693.757 370.021C687.275 368.001 678.605 367.832 675.49 373.852C671.954 380.544 678.563 389.384 675.111 396.119C670.481 405 654.907 399.949 648.425 407.61C641.017 416.366 653.476 429.498 650.993 440.695C647.795 442.281 644.241 443.01 640.678 442.811C637.114 442.612 633.663 441.491 630.662 439.559C627.717 437.555 625.371 434.79 623.874 431.558C622.376 428.326 621.784 424.748 622.16 421.206C622.749 416.155 625.401 410.978 623.633 406.221C621.727 402.548 618.58 399.669 614.752 398.097C602.546 391.32 590.339 384.571 578.133 377.851C574.723 384.164 579.017 391.952 584.404 396.708C589.75 401.423 596.484 405 600.02 411.23C602.259 415.548 602.765 420.557 601.435 425.235C600.105 429.914 597.04 433.908 592.864 436.402C592.336 436.765 591.735 437.01 591.103 437.119C590.471 437.228 589.822 437.199 589.203 437.033C588.619 436.691 588.11 436.235 587.705 435.693C587.3 435.151 587.008 434.533 586.846 433.876C580.406 417.334 570.682 401.044 555.193 392.415C539.661 383.743 517.395 385.554 507.209 400.076C504.81 403.527 503.168 407.484 501.064 411.146C489.909 430.551 465.917 439.727 443.525 439.138C441.335 439.278 439.152 438.766 437.253 437.665C433.633 435.181 433.802 429.877 434.349 425.5C435.149 419.312 435.906 413.167 436.706 406.979C436.726 403.201 438.186 399.573 440.789 396.834C444.956 393.551 450.933 395.614 456.236 395.53C460.239 395.351 464.089 393.941 467.261 391.493C470.432 389.044 472.771 385.677 473.957 381.849C475.024 377.987 475.015 373.907 473.932 370.049C472.849 366.192 470.733 362.703 467.812 359.961C465.412 357.688 462.171 354.826 463.434 351.753C463.947 350.907 464.638 350.182 465.46 349.63C466.281 349.077 467.213 348.71 468.19 348.554C477.661 345.818 487.721 345.102 497.023 341.819C506.367 338.578 515.417 331.927 517.647 322.288C518.321 319.341 518.616 315.764 521.267 314.29C522.607 313.753 524.034 313.467 525.476 313.448C530.537 312.723 535.144 310.131 538.392 306.183C541.639 302.234 543.293 297.213 543.028 292.107C547.49 288.992 553.762 291.307 558.097 294.633C562.39 297.958 566.221 302.336 571.482 303.767C581.289 306.461 590.76 297.748 600.946 297.706C605.239 297.706 609.659 299.221 613.657 297.748C617.74 296.274 620.181 292.234 623.296 289.245C626.453 286.214 631.925 284.404 634.829 287.645C633.987 281.542 633.188 275.481 632.346 269.419C637.305 270.668 642.474 270.841 647.505 269.926C652.536 269.011 657.313 267.03 661.515 264.115C650.908 260.537 640.343 256.96 629.737 253.382C628.622 253.107 627.595 252.557 626.748 251.782C624.433 249.299 626.748 245.426 628.6 242.606C633.104 235.829 633.861 224.674 626.453 221.307C621.402 218.992 615.636 221.77 610.795 224.464C603.051 228.757 595.306 233.093 587.561 237.386C586.846 241.806 592.233 244.332 595.558 247.278C597.585 249.076 599.019 251.445 599.673 254.073C600.327 256.702 600.17 259.467 599.223 262.004C598.275 264.542 596.582 266.733 594.365 268.289C592.148 269.846 589.512 270.695 586.803 270.724C588.329 272.715 589.389 275.023 589.906 277.478C590.423 279.932 590.384 282.472 589.792 284.909C584.615 285.288 579.395 285.667 574.176 286.046C573.309 286.219 572.417 286.218 571.55 286.045C570.683 285.872 569.859 285.529 569.125 285.036C567.441 283.562 567.694 280.953 567.273 278.764C566.58 276.147 565.118 273.799 563.078 272.021C561.037 270.243 558.511 269.117 555.824 268.788C550.462 268.185 545.033 268.686 539.872 270.261C537.628 271.052 535.172 270.992 532.969 270.093C531.719 269.266 530.774 268.054 530.275 266.641C529.359 263.755 529.203 260.681 529.822 257.716C530.442 254.752 531.815 251.998 533.811 249.72C537.853 245.231 542.306 241.13 547.111 237.471C558.003 227.935 566.007 215.541 570.22 201.692C578.806 198.072 587.687 193.189 596.316 189.569C603.253 186.354 610.522 183.912 617.993 182.287C625.024 181.213 632.148 180.874 639.249 181.277C648.93 181.445 658.653 181.613 668.334 181.824C676.976 181.461 685.61 182.702 693.799 185.486C701.755 188.769 708.784 195.883 709.331 204.47C709.496 205.448 709.409 206.453 709.078 207.389C708.746 208.324 708.181 209.159 707.437 209.816C706.319 210.434 705.05 210.725 703.775 210.657C695.735 210.91 692.326 212.93 684.287 213.225C689.38 218.655 695.104 224.38 702.512 225.348C715.56 227.032 724.947 213.52 730.966 201.776C731.181 204.765 732.556 207.552 734.797 209.542C737.038 211.531 739.968 212.566 742.962 212.425C746.186 211.871 749.265 210.668 752.011 208.89C777.901 194.74 806.901 187.247 836.404 187.085C836.115 184.852 836.665 182.59 837.948 180.739C839.231 178.888 841.156 177.58 843.349 177.067C849.368 175.889 854.756 181.066 857.66 186.454C860.522 191.842 862.332 198.072 866.962 202.113C871.55 206.153 880.431 205.943 882.241 200.134C884.009 194.536 878.159 189.737 873.318 186.412C868.436 183.129 863.343 177.025 866.626 172.142C891.375 166.628 916.335 161.156 941.716 160.061C946.03 160.192 950.326 159.448 954.344 157.873C956.333 157.03 957.989 155.554 959.055 153.674C960.12 151.795 960.536 149.616 960.236 147.476C954.698 148.768 948.9 148.386 943.58 146.378C938.259 144.369 933.655 140.825 930.352 136.195C956.406 134.048 983.681 132.154 1008.73 138.005L1030.66 156.61C1026.49 160.945 1020.93 165.028 1023.96 169.364C1024.96 170.36 1026.17 171.116 1027.51 171.575C1028.84 172.034 1030.26 172.185 1031.67 172.016C1036.97 172.1 1042.27 172.226 1047.53 172.226C1156.4 276.37 1223.42 416.747 1235.93 566.89C1227.09 566.554 1218.97 577.75 1220.11 587.516C1221.45 598.839 1229.62 607.931 1235.47 617.696C1236.44 619.284 1237.31 620.928 1238.08 622.621L1237.28 650.402Z" fill="#3F3D56"/>
</g>
<defs>
<clipPath id="clip0_411_75">
<rect width="1238.26" height="1238.31" fill="white" transform="translate(0.319336 0.150391)"/>
</clipPath>
</defs>
</svg>
