<svg width="auto" height="auto" viewBox="0 0 1984 1683" fill="none" xmlns="http://www.w3.org/2000/svg">
<g clip-path="url(#clip0_818_11)">
<path d="M1914.41 704.504C1815.2 831.405 1628 860.464 1473.1 816.265C1422.42 801.45 1373.53 781.091 1327.31 755.556C1300.46 740.973 1274.25 724.976 1248.58 707.93C1242.27 703.755 1235.95 699.515 1229.7 695.189C1225.44 692.277 1221.19 689.329 1216.96 686.345C1163.95 649.042 1113.02 608.119 1062.95 567.432C937.938 465.864 809.506 361.17 655.916 312.71C624.274 302.731 583.34 298.063 563.771 324.873C546.795 348.15 557.156 381.107 571.522 406.076C624.809 498.564 721.535 556.961 818.347 601.866C915.159 646.772 1017.71 683.154 1101.87 748.81C1186.03 814.466 1250.28 918.818 1233.06 1024.15C1218.23 1114.93 1144.13 1188.68 1057.98 1220.82C971.829 1252.94 875.745 1248.47 786.191 1227.61C696.636 1206.73 611.621 1170.31 525.192 1138.91C473.083 1119.96 404.959 1106.86 370.383 1150.22C341.182 1186.86 357.966 1244.66 393.526 1275.15C429.086 1305.64 477.215 1315.86 523.137 1325.02C665.722 1353.5 808.307 1381.98 950.891 1410.45C994.629 1419.16 1039.4 1428.28 1077.5 1451.5C1115.61 1474.69 1146.36 1515.2 1145.26 1559.81C1144.17 1603.77 1111.99 1642.62 1072.56 1662.08C1033.14 1681.53 987.629 1684.53 943.719 1682.43C779.169 1674.55 307.419 1413.06 194.272 1379.63C121.567 1358.17 42.0751 1326.65 11.4166 1257.31C-26.7559 1170.99 36.0591 1066.55 121.802 1027.13C207.524 987.686 306.905 996.423 400.335 1009.7C493.764 1022.98 590.276 1039.87 681.222 1014.65C772.167 989.421 855.492 907.19 846.522 813.224C838.707 731.465 765.082 669.856 687.601 642.703C626.95 621.439 562.423 615.657 498.71 606.085C481.025 603.451 463.406 600.496 445.958 596.855C401.272 587.491 357.684 573.496 315.897 555.097C272.048 535.832 230.39 511.918 191.639 483.767C160.731 461.346 131.847 436.26 105.318 408.796C101.271 404.598 97.2675 400.308 93.3066 395.926C89.5391 391.728 85.8134 387.446 82.1745 383.077C34.8173 326.479 -0.165877 256.776 10.3254 184.953C20.7937 113.322 76.608 53.6838 143.062 25.0316C181.47 8.47843 222.896 1.06911 264.836 -0.00160474C295.503 -0.614647 326.161 1.59317 356.424 6.59398C496.461 28.9932 624.787 97.0477 745.985 170.734C867.16 244.42 985.253 325.302 1116.98 377.831C1248.71 430.381 1398.66 452.631 1532.3 405.112C1665.93 357.616 1775.72 228.017 1769.19 86.3191C1857.82 162.661 1933.14 258.618 1966.5 370.743C1999.85 482.867 1986.45 612.337 1914.41 704.504Z" fill="#3F3D56"/>
<path d="M1275.79 558.064C1284.4 558.064 1291.37 551.086 1291.37 542.479C1291.37 533.872 1284.4 526.895 1275.79 526.895C1267.19 526.895 1260.21 533.872 1260.21 542.479C1260.21 551.086 1267.19 558.064 1275.79 558.064Z" fill="#6C63FF"/>
<path d="M1826 360.998C1839.31 360.998 1850.09 350.21 1850.09 336.903C1850.09 323.595 1839.31 312.808 1826 312.808C1812.7 312.808 1801.92 323.595 1801.92 336.903C1801.92 350.21 1812.7 360.998 1826 360.998Z" fill="#FF6584"/>
<path d="M246.013 1103.87C250.929 1103.87 254.914 1099.88 254.914 1094.97C254.914 1090.05 250.929 1086.06 246.013 1086.06C241.098 1086.06 237.113 1090.05 237.113 1094.97C237.113 1099.88 241.098 1103.87 246.013 1103.87Z" fill="#FF6584"/>
<path d="M501.492 583.172C501.498 590.894 500.563 598.588 498.71 606.085C481.025 603.451 463.405 600.496 445.957 596.855C401.272 587.491 357.683 573.496 315.897 555.098C322.617 533.396 336.893 514.825 356.134 502.754C375.376 490.683 398.306 485.913 420.764 489.31C443.221 492.707 463.716 504.046 478.528 521.268C493.341 538.49 501.488 560.453 501.492 583.172V583.172Z" fill="#FF6584"/>
<path d="M1671.86 502.332C1676.89 502.332 1680.96 498.255 1680.96 493.226C1680.96 488.198 1676.89 484.121 1671.86 484.121C1666.83 484.121 1662.76 488.198 1662.76 493.226C1662.76 498.255 1666.83 502.332 1671.86 502.332Z" fill="#F0F0F0"/>
<path d="M839.045 1504.52C844.073 1504.52 848.149 1500.44 848.149 1495.41C848.149 1490.38 844.073 1486.31 839.045 1486.31C834.018 1486.31 829.942 1490.38 829.942 1495.41C829.942 1500.44 834.018 1504.52 839.045 1504.52Z" fill="#F0F0F0"/>
<path d="M969.641 1630.86C974.668 1630.86 978.744 1626.78 978.744 1621.76C978.744 1616.73 974.668 1612.65 969.641 1612.65C964.613 1612.65 960.538 1616.73 960.538 1621.76C960.538 1626.78 964.613 1630.86 969.641 1630.86Z" fill="#F0F0F0"/>
<path d="M162.518 1271.1C167.546 1271.1 171.621 1267.03 171.621 1262C171.621 1256.97 167.546 1252.89 162.518 1252.89C157.491 1252.89 153.415 1256.97 153.415 1262C153.415 1267.03 157.491 1271.1 162.518 1271.1Z" fill="#F0F0F0"/>
<path d="M609.968 1101.93C614.996 1101.93 619.071 1097.85 619.071 1092.82C619.071 1087.8 614.996 1083.72 609.968 1083.72C604.941 1083.72 600.865 1087.8 600.865 1092.82C600.865 1097.85 604.941 1101.93 609.968 1101.93Z" fill="#F0F0F0"/>
<path d="M565.009 198.25C570.037 198.25 574.112 194.173 574.112 189.144C574.112 184.116 570.037 180.039 565.009 180.039C559.982 180.039 555.906 184.116 555.906 189.144C555.906 194.173 559.982 198.25 565.009 198.25Z" fill="#F0F0F0"/>
<path d="M1115.22 911.343C1120.25 911.343 1124.33 907.267 1124.33 902.238C1124.33 897.209 1120.25 893.133 1115.22 893.133C1110.2 893.133 1106.12 897.209 1106.12 902.238C1106.12 907.267 1110.2 911.343 1115.22 911.343Z" fill="#F0F0F0"/>
<path d="M1183.73 1069.81C1188.76 1069.81 1192.84 1065.73 1192.84 1060.7C1192.84 1055.68 1188.76 1051.6 1183.73 1051.6C1178.7 1051.6 1174.63 1055.68 1174.63 1060.7C1174.63 1065.73 1178.7 1069.81 1183.73 1069.81Z" fill="#F0F0F0"/>
<path d="M363.19 218.21C363.257 264.183 352.397 309.514 331.505 350.464C328.743 355.86 325.817 361.164 322.727 366.375C292.133 418.052 246.36 459.044 191.639 483.767C160.731 461.347 131.847 436.261 105.318 408.796C101.271 404.599 97.2675 400.309 93.3066 395.926C89.5391 391.729 85.8134 387.446 82.1745 383.078C34.8173 326.48 -0.165863 256.777 10.3254 184.954C20.7937 113.323 76.608 53.6844 143.062 25.0321C181.47 8.47893 222.896 1.06973 264.836 -0.000976562C297.63 28.9662 323.482 64.9466 340.475 105.271C342.616 110.346 344.585 115.486 346.448 120.69C357.559 152.001 363.222 184.985 363.19 218.21V218.21Z" fill="#6C63FF"/>
<path d="M495.926 233.198C495.926 277.804 452.38 319.176 373.295 349.734C357.473 355.859 340.538 361.405 322.726 366.373C256.058 384.961 176.716 395.261 93.3062 395.925C89.5387 391.727 85.813 387.445 82.1741 383.076C83.0731 383.098 83.9721 383.098 84.8711 383.098C175.453 383.098 261.39 371.62 331.504 350.462C344.456 346.543 356.874 342.303 368.67 337.742C441.376 309.668 483.08 271.551 483.08 233.198C483.08 194.845 441.375 156.749 368.67 128.654C361.477 125.87 354.07 123.215 346.448 120.688C344.585 115.484 342.616 110.345 340.475 105.27C351.864 108.824 362.804 112.622 373.295 116.662C452.38 147.22 495.926 188.614 495.926 233.198Z" fill="#E4E4E4"/>
<path d="M98.2908 74.0474C103.318 74.0474 107.394 69.9709 107.394 64.9422C107.394 59.9135 103.318 55.8369 98.2908 55.8369C93.2633 55.8369 89.1877 59.9135 89.1877 64.9422C89.1877 69.9709 93.2633 74.0474 98.2908 74.0474Z" fill="#F0F0F0"/>
<path d="M288.832 131.866C293.859 131.866 297.935 127.789 297.935 122.761C297.935 117.732 293.859 113.655 288.832 113.655C283.804 113.655 279.729 117.732 279.729 122.761C279.729 127.789 283.804 131.866 288.832 131.866Z" fill="#F0F0F0"/>
<path d="M190.35 303.386C239.24 303.386 278.873 263.743 278.873 214.841C278.873 165.94 239.24 126.297 190.35 126.297C141.46 126.297 101.826 165.94 101.826 214.841C101.826 263.743 141.46 303.386 190.35 303.386Z" fill="#F0F0F0"/>
<path opacity="0.3" d="M1825.15 683.476C1805.28 689.343 1761.48 693.669 1713.31 696.324C1665.16 698.958 1612.35 700.114 1560.19 701.228C1468.91 703.198 1377.62 705.175 1286.35 707.16C1273.8 707.438 1261.22 707.695 1248.58 707.931C1242.27 703.755 1235.95 699.515 1229.7 695.189C1240.9 695.253 1252.1 695.189 1263.21 694.975C1310.67 694.033 1350.86 690.328 1396.63 688.572C1467.06 685.853 1543.11 687.994 1616.52 689.086C1689.93 690.2 1773.58 689.793 1825.15 683.476Z" fill="#F0F0F0"/>
<path opacity="0.3" d="M424.079 1358.52L133.085 1116.04L415.781 1368.23C416.328 1369.15 417.088 1369.93 417.996 1370.5C418.904 1371.07 419.936 1371.42 421.004 1371.51C422.073 1371.6 423.147 1371.44 424.14 1371.03C425.132 1370.62 426.013 1369.98 426.71 1369.17C427.407 1368.35 427.899 1367.38 428.146 1366.34C428.393 1365.3 428.388 1364.21 428.131 1363.17C427.873 1362.13 427.372 1361.16 426.667 1360.35C425.962 1359.54 425.075 1358.91 424.079 1358.52H424.079Z" fill="#F0F0F0"/>
<path d="M203.195 440.231C208.223 440.231 212.298 436.154 212.298 431.126C212.298 426.097 208.223 422.021 203.195 422.021C198.168 422.021 194.092 426.097 194.092 431.126C194.092 436.154 198.168 440.231 203.195 440.231Z" fill="#F0F0F0"/>
<path d="M967.728 1486.16L1005.38 1486.16L1023.29 1340.89L967.721 1340.89L967.728 1486.16Z" fill="#976464"/>
<path d="M958.123 1473.86L968.721 1473.86L1010.1 1457.03L1032.28 1473.86H1032.28C1044.81 1473.86 1056.83 1478.84 1065.69 1487.71C1074.55 1496.57 1079.53 1508.59 1079.53 1521.13V1522.66L958.125 1522.67L958.123 1473.86Z" fill="#2F2E41"/>
<path d="M685.75 1486.16L648.098 1486.16L630.185 1340.89L685.757 1340.89L685.75 1486.16Z" fill="#976464"/>
<path d="M695.353 1522.67L573.946 1522.66V1521.13C573.946 1508.59 578.925 1496.57 587.787 1487.71C596.649 1478.84 608.668 1473.86 621.201 1473.86H621.204L643.381 1457.03L684.757 1473.86L695.356 1473.86L695.353 1522.67Z" fill="#2F2E41"/>
<path d="M820.665 372.866L782.54 401.904L681.264 428.731C681.264 428.731 717.553 683.476 700.426 700.607C683.298 717.738 698.745 718.199 695.304 740.454C691.862 762.708 678.148 821.465 678.148 821.465H980.418C980.418 821.465 982.854 784.949 967.953 777.041C953.053 769.132 981.689 732.222 969.512 726.051C957.335 719.88 974.462 666.344 974.462 666.344L1011.58 491.07L912.854 413.808L897.839 377.623L820.665 372.866Z" fill="#6C63FF"/>
<path d="M868.236 600.504C875.521 600.504 881.427 594.596 881.427 587.309C881.427 580.022 875.521 574.115 868.236 574.115C860.95 574.115 855.045 580.022 855.045 587.309C855.045 594.596 860.95 600.504 868.236 600.504Z" fill="#F2F2F2"/>
<path d="M678.148 821.465L665.683 1142.51C665.683 1142.51 611.863 1379.63 621.212 1385.86C630.561 1392.1 634.521 1429.27 634.521 1429.27L687.496 1435.5C687.496 1435.5 687.496 1410.57 699.961 1401.21C712.426 1391.86 827.725 952.376 827.725 952.376L940.208 1377.3C940.208 1377.3 943.024 1401.21 952.372 1401.21C961.721 1401.21 964.837 1435.5 964.837 1435.5H1017.81V1401.21C1017.81 1401.21 1041.62 1393.67 1032.27 1368.73C1022.92 1343.79 980.418 821.465 980.418 821.465H678.148Z" fill="#2F2E41"/>
<path d="M860.254 353.735C895.535 353.735 924.136 325.127 924.136 289.838C924.136 254.548 895.535 225.94 860.254 225.94C824.973 225.94 796.373 254.548 796.373 289.838C796.373 325.127 824.973 353.735 860.254 353.735Z" fill="#976464"/>
<path opacity="0.1" d="M969.511 576.784L981.975 586.136L988.207 542.498L969.511 576.784Z" fill="black"/>
<path d="M687.238 428.484C687.238 428.484 671.657 425.367 662.309 453.419C652.96 481.472 618.682 587.447 618.682 606.149C618.682 624.851 832.152 707.367 832.152 707.367L809.941 629.428L712.167 578.097L687.238 428.484Z" fill="#6C63FF"/>
<path d="M842.054 695.812C862.155 695.812 878.45 679.514 878.45 659.408C878.45 639.303 862.155 623.004 842.054 623.004C821.954 623.004 805.659 639.303 805.659 659.408C805.659 679.514 821.954 695.812 842.054 695.812Z" fill="#976464"/>
<path opacity="0.1" d="M709.318 539.488L712.167 578.096L802.58 625.563L722.163 571.61L709.318 539.488Z" fill="black"/>
<path d="M926.67 544.992H925.497V512.853C925.497 510.41 925.016 507.992 924.081 505.735C923.146 503.478 921.777 501.427 920.05 499.7C918.323 497.973 916.273 496.603 914.017 495.668C911.76 494.733 909.342 494.252 906.9 494.252H838.825C836.383 494.252 833.965 494.733 831.709 495.668C829.452 496.603 827.402 497.973 825.675 499.7C823.949 501.427 822.579 503.478 821.644 505.735C820.709 507.992 820.229 510.41 820.229 512.853V689.17C820.229 691.613 820.71 694.032 821.644 696.289C822.579 698.546 823.948 700.596 825.675 702.323C827.402 704.051 829.452 705.421 831.708 706.356C833.965 707.291 836.383 707.772 838.825 707.772H906.9C909.342 707.772 911.76 707.291 914.016 706.356C916.273 705.421 918.323 704.051 920.05 702.324C921.777 700.596 923.146 698.546 924.081 696.289C925.015 694.032 925.497 691.613 925.497 689.17V567.869H926.67V544.992Z" fill="#F0F0F0"/>
<path d="M1011.58 491.069C1011.58 491.069 1020.93 497.303 1027.16 525.356C1033.39 553.408 1073.9 659.384 1058.32 684.319C1042.74 709.255 1038.14 735.868 985.167 698.465L911.862 631.331L964.837 581.46L986.65 597.045L1011.58 491.069Z" fill="#6C63FF"/>
<path d="M873.694 572.837C882.299 572.837 889.275 565.86 889.275 557.253C889.275 548.645 882.299 541.668 873.694 541.668C865.089 541.668 858.113 548.645 858.113 557.253C858.113 565.86 865.089 572.837 873.694 572.837Z" fill="#6C63FF"/>
<path d="M918.799 627.799C938.899 627.799 955.194 611.5 955.194 591.394C955.194 571.289 938.899 554.99 918.799 554.99C898.698 554.99 882.403 571.289 882.403 591.394C882.403 611.5 898.698 627.799 918.799 627.799Z" fill="#976464"/>
<path opacity="0.1" d="M707.6 656.01L812.081 702.237L704.697 681.244L707.6 656.01Z" fill="black"/>
<path d="M795.805 302.571L787.034 269.182C784.745 260.47 782.438 251.582 782.952 242.589C783.466 233.596 787.28 224.316 794.854 219.444C802.429 214.573 813.992 215.723 818.866 223.298C819.792 211.203 830.792 201.901 842.462 198.605C854.133 195.309 866.524 196.613 878.637 197.169C890.751 197.725 903.538 197.337 913.993 191.191C914.79 193.582 914.738 196.175 913.845 198.532C912.952 200.889 911.273 202.866 909.093 204.128C911.692 204.838 914.463 204.533 916.846 203.276C919.229 202.019 921.045 199.903 921.928 197.357C922.007 204.361 919.419 211.133 914.689 216.299C919.201 214.06 924.384 213.58 929.23 214.953C934.076 216.325 938.238 219.452 940.907 223.724C946.242 232.977 943.253 244.597 940.131 254.812L924.109 307.239C921.679 299.269 921.221 290.855 919.921 282.625C918.621 274.395 916.309 265.99 910.877 259.673C905.446 253.355 896.22 249.697 888.502 252.833C884.172 254.593 880.871 258.164 876.962 260.726C868.941 265.984 858.738 266.738 849.209 265.668C839.679 264.598 830.392 261.884 820.864 260.799C814.898 260.121 808.24 260.3 803.739 264.275C800.643 267.493 798.598 271.576 797.877 275.983C795.752 284.767 794.917 293.813 795.397 302.838" fill="#2F2E41"/>
</g>
<defs>
<clipPath id="clip0_818_11">
<rect width="1984" height="1683" fill="white"/>
</clipPath>
</defs>
</svg>
