<svg width="1315" height="956" viewBox="0 0 1315 956" fill="none" xmlns="http://www.w3.org/2000/svg">
<g clip-path="url(#clip0_633_96)">
<path d="M765.986 168.532C790.631 168.532 810.61 148.561 810.61 123.926C810.61 99.2909 790.631 79.3203 765.986 79.3203C741.34 79.3203 721.361 99.2909 721.361 123.926C721.361 148.561 741.34 168.532 765.986 168.532Z" fill="#F2F2F2"/>
<path d="M1112.15 830.53C1178.48 780.03 1210.16 695.17 1190.33 614.219C1189.84 612.208 1189.32 610.201 1188.77 608.199C1175.62 560.148 1143.09 514.479 1095.68 499.125C1055.87 486.233 1012.42 496.147 970.884 491.02C889.356 480.956 826.15 415.019 781.676 345.982C737.202 276.945 703.022 199.667 643.926 142.633C546.516 48.6203 387.615 28.3794 266.84 89.5744C146.065 150.77 69.1325 286.536 72.4135 421.844C75.6946 557.152 156.055 686.516 272.759 755.152C315.631 780.366 365.216 798.228 414.564 791.978C457.383 786.555 496.288 763.557 538.905 756.73C605.909 745.995 672.486 776.277 730.439 811.564C788.392 846.852 844.371 888.678 910.226 905.037C974.172 920.922 1053.39 875.264 1112.15 830.53Z" fill="#F2F2F2"/>
<path d="M1016.85 92.4163C1015.4 91.4473 1013.93 90.5285 1012.47 89.593C970.443 62.7231 925.392 40.8942 878.253 24.5575L867.323 175.277H798.031V2.55598C793.669 1.65387 789.274 0.801876 784.878 0V175.277H702.534C657.203 175.277 613.728 157.277 581.674 125.236C549.62 93.1956 531.612 49.7394 531.612 4.42722V4.42707C527.2 5.3793 522.821 6.39835 518.442 7.48422V175.277H451.373L440.961 31.5572C392.519 50.1278 346.529 74.5491 304.016 104.277C303.281 104.779 302.546 105.296 301.827 105.798C298.133 108.387 294.49 111.027 290.863 113.699V688.695H488.526L485.033 640.332L465.813 374.794H852.866L833.646 640.332L830.153 688.695H1025.63V98.2299C1022.72 96.2587 1019.79 94.3208 1016.85 92.4163ZM518.442 330.941H462.638L452.326 188.441H518.442V330.941ZM784.878 330.941H691.153V328.118C691.153 326.761 690.885 325.417 690.365 324.163C689.845 322.909 689.083 321.77 688.122 320.812C687.161 319.853 686.02 319.092 684.765 318.575C683.51 318.057 682.165 317.791 680.807 317.794H640.062C638.705 317.793 637.362 318.06 636.108 318.578C634.855 319.097 633.716 319.858 632.757 320.816C631.798 321.775 631.037 322.913 630.518 324.166C629.999 325.419 629.732 326.762 629.733 328.118V330.941H531.612V188.441H784.878V330.941ZM798.031 330.941V188.441H866.37L856.058 330.941H798.031Z" fill="#3F3D56"/>
<path d="M0 725.516C14.5189 742.712 30.2227 758.872 46.9965 773.879L1268 775.549C1284.78 760.543 1300.48 744.382 1315 727.186L0 725.516Z" fill="#3F3D56"/>
<path d="M828.004 570.655V713.83C828.005 715.654 828.731 717.404 830.022 718.694C831.313 719.984 833.063 720.71 834.888 720.711H1047.15C1048.97 720.71 1050.72 719.984 1052.01 718.694C1053.31 717.404 1054.03 715.654 1054.03 713.83V570.655C1054.03 568.832 1053.3 567.085 1052.01 565.797C1050.72 564.508 1048.97 563.784 1047.15 563.781H834.888C833.064 563.784 831.316 564.508 830.025 565.797C828.735 567.085 828.008 568.832 828.004 570.655V570.655Z" fill="#3F3D56"/>
<path d="M832.984 572.435V712.063C832.986 713.037 833.374 713.972 834.064 714.661C834.753 715.351 835.688 715.739 836.664 715.74H1045.38C1046.36 715.739 1047.29 715.351 1047.98 714.661C1048.67 713.972 1049.06 713.037 1049.06 712.063V572.435C1049.06 571.459 1048.67 570.523 1047.98 569.832C1047.29 569.141 1046.36 568.752 1045.38 568.75H836.664C835.687 568.752 834.751 569.141 834.062 569.832C833.372 570.523 832.984 571.459 832.984 572.435V572.435Z" fill="#6C63FF"/>
<path d="M823.565 741.752C823.954 742.239 824.448 742.632 825.011 742.901C825.574 743.17 826.19 743.308 826.813 743.305H1054.09C1054.72 743.304 1055.33 743.165 1055.89 742.897C1056.45 742.63 1056.95 742.241 1057.34 741.758C1057.73 741.276 1058.01 740.712 1058.15 740.108C1058.3 739.504 1058.31 738.875 1058.18 738.267L1054.65 721.516C1054.51 720.833 1054.19 720.197 1053.74 719.667C1053.28 719.136 1052.7 718.728 1052.05 718.479C1051.58 718.294 1051.07 718.199 1050.57 718.199H830.328C829.82 718.199 829.316 718.294 828.843 718.479C828.19 718.728 827.61 719.136 827.155 719.667C826.7 720.197 826.386 720.833 826.239 721.516L822.711 738.267C822.586 738.875 822.597 739.503 822.745 740.106C822.893 740.709 823.173 741.271 823.565 741.752V741.752Z" fill="#2F2E41"/>
<path d="M1042.77 725.414H1048.14C1048.59 725.414 1048.95 725.049 1048.95 724.599V722.031C1048.95 721.581 1048.59 721.216 1048.14 721.216H1042.77C1042.32 721.216 1041.95 721.581 1041.95 722.031V724.599C1041.95 725.049 1042.32 725.414 1042.77 725.414Z" fill="#3F3D56"/>
<path d="M1028.77 725.414H1034.14C1034.59 725.414 1034.95 725.049 1034.95 724.599V722.031C1034.95 721.581 1034.59 721.216 1034.14 721.216H1028.77C1028.32 721.216 1027.95 721.581 1027.95 722.031V724.599C1027.95 725.049 1028.32 725.414 1028.77 725.414Z" fill="#3F3D56"/>
<path d="M1014.77 725.414H1020.14C1020.59 725.414 1020.95 725.049 1020.95 724.599V722.031C1020.95 721.581 1020.59 721.216 1020.14 721.216H1014.77C1014.32 721.216 1013.95 721.581 1013.95 722.031V724.599C1013.95 725.049 1014.32 725.414 1014.77 725.414Z" fill="#3F3D56"/>
<path d="M1000.77 725.414H1006.14C1006.59 725.414 1006.95 725.049 1006.95 724.599V722.031C1006.95 721.581 1006.59 721.216 1006.14 721.216H1000.77C1000.32 721.216 999.951 721.581 999.951 722.031V724.599C999.951 725.049 1000.32 725.414 1000.77 725.414Z" fill="#3F3D56"/>
<path d="M986.767 725.414H992.135C992.586 725.414 992.951 725.049 992.951 724.599V722.031C992.951 721.581 992.586 721.216 992.135 721.216H986.767C986.316 721.216 985.951 721.581 985.951 722.031V724.599C985.951 725.049 986.316 725.414 986.767 725.414Z" fill="#3F3D56"/>
<path d="M972.767 725.414H978.135C978.586 725.414 978.951 725.049 978.951 724.599V722.031C978.951 721.581 978.586 721.216 978.135 721.216H972.767C972.316 721.216 971.951 721.581 971.951 722.031V724.599C971.951 725.049 972.316 725.414 972.767 725.414Z" fill="#3F3D56"/>
<path d="M958.765 725.414H964.133C964.584 725.414 964.949 725.049 964.949 724.599V722.031C964.949 721.581 964.584 721.216 964.133 721.216H958.765C958.314 721.216 957.949 721.581 957.949 722.031V724.599C957.949 725.049 958.314 725.414 958.765 725.414Z" fill="#3F3D56"/>
<path d="M944.765 725.414H950.133C950.584 725.414 950.949 725.049 950.949 724.599V722.031C950.949 721.581 950.584 721.216 950.133 721.216H944.765C944.314 721.216 943.949 721.581 943.949 722.031V724.599C943.949 725.049 944.314 725.414 944.765 725.414Z" fill="#3F3D56"/>
<path d="M930.765 725.414H936.133C936.584 725.414 936.949 725.049 936.949 724.599V722.031C936.949 721.581 936.584 721.216 936.133 721.216H930.765C930.314 721.216 929.949 721.581 929.949 722.031V724.599C929.949 725.049 930.314 725.414 930.765 725.414Z" fill="#3F3D56"/>
<path d="M916.765 725.414H922.133C922.584 725.414 922.949 725.049 922.949 724.599V722.031C922.949 721.581 922.584 721.216 922.133 721.216H916.765C916.314 721.216 915.949 721.581 915.949 722.031V724.599C915.949 725.049 916.314 725.414 916.765 725.414Z" fill="#3F3D56"/>
<path d="M902.765 725.414H908.133C908.584 725.414 908.949 725.049 908.949 724.599V722.031C908.949 721.581 908.584 721.216 908.133 721.216H902.765C902.314 721.216 901.949 721.581 901.949 722.031V724.599C901.949 725.049 902.314 725.414 902.765 725.414Z" fill="#3F3D56"/>
<path d="M888.765 725.414H894.133C894.584 725.414 894.949 725.049 894.949 724.599V722.031C894.949 721.581 894.584 721.216 894.133 721.216H888.765C888.314 721.216 887.949 721.581 887.949 722.031V724.599C887.949 725.049 888.314 725.414 888.765 725.414Z" fill="#3F3D56"/>
<path d="M874.763 725.414H880.131C880.582 725.414 880.947 725.049 880.947 724.599V722.031C880.947 721.581 880.582 721.216 880.131 721.216H874.763C874.312 721.216 873.947 721.581 873.947 722.031V724.599C873.947 725.049 874.312 725.414 874.763 725.414Z" fill="#3F3D56"/>
<path d="M860.763 725.414H866.131C866.582 725.414 866.947 725.049 866.947 724.599V722.031C866.947 721.581 866.582 721.216 866.131 721.216H860.763C860.312 721.216 859.947 721.581 859.947 722.031V724.599C859.947 725.049 860.312 725.414 860.763 725.414Z" fill="#3F3D56"/>
<path d="M846.763 725.414H852.131C852.582 725.414 852.947 725.049 852.947 724.599V722.031C852.947 721.581 852.582 721.216 852.131 721.216H846.763C846.312 721.216 845.947 721.581 845.947 722.031V724.599C845.947 725.049 846.312 725.414 846.763 725.414Z" fill="#3F3D56"/>
<path d="M832.763 725.414H838.131C838.582 725.414 838.947 725.049 838.947 724.599V722.031C838.947 721.581 838.582 721.216 838.131 721.216H832.763C832.312 721.216 831.947 721.581 831.947 722.031V724.599C831.947 725.049 832.312 725.414 832.763 725.414Z" fill="#3F3D56"/>
<path d="M1042.93 732.412H1048.3C1048.75 732.412 1049.12 732.047 1049.12 731.597V729.029C1049.12 728.579 1048.75 728.214 1048.3 728.214H1042.93C1042.48 728.214 1042.12 728.579 1042.12 729.029V731.597C1042.12 732.047 1042.48 732.412 1042.93 732.412Z" fill="#3F3D56"/>
<path d="M1028.93 732.412H1034.3C1034.75 732.412 1035.12 732.047 1035.12 731.597V729.029C1035.12 728.579 1034.75 728.214 1034.3 728.214H1028.93C1028.48 728.214 1028.12 728.579 1028.12 729.029V731.597C1028.12 732.047 1028.48 732.412 1028.93 732.412Z" fill="#3F3D56"/>
<path d="M1014.93 732.412H1020.3C1020.75 732.412 1021.12 732.047 1021.12 731.597V729.029C1021.12 728.579 1020.75 728.214 1020.3 728.214H1014.93C1014.48 728.214 1014.12 728.579 1014.12 729.029V731.597C1014.12 732.047 1014.48 732.412 1014.93 732.412Z" fill="#3F3D56"/>
<path d="M1000.93 732.412H1006.3C1006.75 732.412 1007.12 732.047 1007.12 731.597V729.029C1007.12 728.579 1006.75 728.214 1006.3 728.214H1000.93C1000.48 728.214 1000.12 728.579 1000.12 729.029V731.597C1000.12 732.047 1000.48 732.412 1000.93 732.412Z" fill="#3F3D56"/>
<path d="M986.931 732.412H992.299C992.75 732.412 993.115 732.047 993.115 731.597V729.029C993.115 728.579 992.75 728.214 992.299 728.214H986.931C986.48 728.214 986.115 728.579 986.115 729.029V731.597C986.115 732.047 986.48 732.412 986.931 732.412Z" fill="#3F3D56"/>
<path d="M972.931 732.412H978.299C978.75 732.412 979.115 732.047 979.115 731.597V729.029C979.115 728.579 978.75 728.214 978.299 728.214H972.931C972.48 728.214 972.115 728.579 972.115 729.029V731.597C972.115 732.047 972.48 732.412 972.931 732.412Z" fill="#3F3D56"/>
<path d="M958.931 732.412H964.299C964.75 732.412 965.115 732.047 965.115 731.597V729.029C965.115 728.579 964.75 728.214 964.299 728.214H958.931C958.48 728.214 958.115 728.579 958.115 729.029V731.597C958.115 732.047 958.48 732.412 958.931 732.412Z" fill="#3F3D56"/>
<path d="M944.931 732.412H950.299C950.75 732.412 951.115 732.047 951.115 731.597V729.029C951.115 728.579 950.75 728.214 950.299 728.214H944.931C944.48 728.214 944.115 728.579 944.115 729.029V731.597C944.115 732.047 944.48 732.412 944.931 732.412Z" fill="#3F3D56"/>
<path d="M930.931 732.412H936.299C936.75 732.412 937.115 732.047 937.115 731.597V729.029C937.115 728.579 936.75 728.214 936.299 728.214H930.931C930.48 728.214 930.115 728.579 930.115 729.029V731.597C930.115 732.047 930.48 732.412 930.931 732.412Z" fill="#3F3D56"/>
<path d="M916.931 732.412H922.299C922.75 732.412 923.115 732.047 923.115 731.597V729.029C923.115 728.579 922.75 728.214 922.299 728.214H916.931C916.48 728.214 916.115 728.579 916.115 729.029V731.597C916.115 732.047 916.48 732.412 916.931 732.412Z" fill="#3F3D56"/>
<path d="M902.929 732.412H908.297C908.748 732.412 909.113 732.047 909.113 731.597V729.029C909.113 728.579 908.748 728.214 908.297 728.214H902.929C902.478 728.214 902.113 728.579 902.113 729.029V731.597C902.113 732.047 902.478 732.412 902.929 732.412Z" fill="#3F3D56"/>
<path d="M888.929 732.412H894.297C894.748 732.412 895.113 732.047 895.113 731.597V729.029C895.113 728.579 894.748 728.214 894.297 728.214H888.929C888.478 728.214 888.113 728.579 888.113 729.029V731.597C888.113 732.047 888.478 732.412 888.929 732.412Z" fill="#3F3D56"/>
<path d="M874.929 732.412H880.297C880.748 732.412 881.113 732.047 881.113 731.597V729.029C881.113 728.579 880.748 728.214 880.297 728.214H874.929C874.478 728.214 874.113 728.579 874.113 729.029V731.597C874.113 732.047 874.478 732.412 874.929 732.412Z" fill="#3F3D56"/>
<path d="M860.929 732.412H866.297C866.748 732.412 867.113 732.047 867.113 731.597V729.029C867.113 728.579 866.748 728.214 866.297 728.214H860.929C860.478 728.214 860.113 728.579 860.113 729.029V731.597C860.113 732.047 860.478 732.412 860.929 732.412Z" fill="#3F3D56"/>
<path d="M846.929 732.412H852.297C852.748 732.412 853.113 732.047 853.113 731.597V729.029C853.113 728.579 852.748 728.214 852.297 728.214H846.929C846.478 728.214 846.113 728.579 846.113 729.029V731.597C846.113 732.047 846.478 732.412 846.929 732.412Z" fill="#3F3D56"/>
<path d="M832.929 732.412H838.297C838.748 732.412 839.113 732.047 839.113 731.597V729.029C839.113 728.579 838.748 728.214 838.297 728.214H832.929C832.478 728.214 832.113 728.579 832.113 729.029V731.597C832.113 732.047 832.478 732.412 832.929 732.412Z" fill="#3F3D56"/>
<path d="M926.731 740.809H981.1C981.551 740.809 981.916 740.443 981.916 739.993V737.426C981.916 736.975 981.551 736.61 981.1 736.61H926.731C926.28 736.61 925.915 736.975 925.915 737.426V739.993C925.915 740.443 926.28 740.809 926.731 740.809Z" fill="#3F3D56"/>
<path d="M869.127 599.297H864.375C862.934 599.297 861.766 600.464 861.766 601.905C861.766 603.345 862.934 604.513 864.375 604.513H869.127C870.568 604.513 871.736 603.345 871.736 601.905C871.736 600.464 870.568 599.297 869.127 599.297Z" fill="white"/>
<path d="M923.483 599.297H918.73C917.289 599.297 916.121 600.464 916.121 601.905C916.121 603.345 917.289 604.513 918.73 604.513H923.483C924.924 604.513 926.092 603.345 926.092 601.905C926.092 600.464 924.924 599.297 923.483 599.297Z" fill="white"/>
<path d="M938.883 599.297H934.131C932.69 599.297 931.521 600.464 931.521 601.905C931.521 603.345 932.69 604.513 934.131 604.513H938.883C940.324 604.513 941.492 603.345 941.492 601.905C941.492 600.464 940.324 599.297 938.883 599.297Z" fill="white"/>
<path d="M908.698 598.863H879.16C877.719 598.863 876.551 600.031 876.551 601.471C876.551 602.911 877.719 604.079 879.16 604.079H908.698C910.139 604.079 911.307 602.911 911.307 601.471C911.307 600.031 910.139 598.863 908.698 598.863Z" fill="white"/>
<path d="M981.173 598.863H951.634C950.194 598.863 949.025 600.031 949.025 601.471C949.025 602.911 950.194 604.079 951.634 604.079H981.173C982.614 604.079 983.782 602.911 983.782 601.471C983.782 600.031 982.614 598.863 981.173 598.863Z" fill="white"/>
<path d="M883.623 611.07H878.871C877.43 611.07 876.262 612.238 876.262 613.678C876.262 615.119 877.43 616.286 878.871 616.286H883.623C885.064 616.286 886.232 615.119 886.232 613.678C886.232 612.238 885.064 611.07 883.623 611.07Z" fill="white"/>
<path d="M937.977 611.07H933.224C931.783 611.07 930.615 612.238 930.615 613.678C930.615 615.119 931.783 616.286 933.224 616.286H937.977C939.418 616.286 940.586 615.119 940.586 613.678C940.586 612.238 939.418 611.07 937.977 611.07Z" fill="white"/>
<path d="M953.379 611.07H948.627C947.186 611.07 946.018 612.238 946.018 613.678C946.018 615.119 947.186 616.286 948.627 616.286H953.379C954.82 616.286 955.988 615.119 955.988 613.678C955.988 612.238 954.82 611.07 953.379 611.07Z" fill="white"/>
<path d="M923.192 610.635H893.654C892.213 610.635 891.045 611.802 891.045 613.243C891.045 614.683 892.213 615.851 893.654 615.851H923.192C924.633 615.851 925.801 614.683 925.801 613.243C925.801 611.802 924.633 610.635 923.192 610.635Z" fill="white"/>
<path d="M995.667 610.635H966.129C964.688 610.635 963.52 611.802 963.52 613.243C963.52 614.683 964.688 615.851 966.129 615.851H995.667C997.108 615.851 998.276 614.683 998.276 613.243C998.276 611.802 997.108 610.635 995.667 610.635Z" fill="white"/>
<path d="M898.117 622.842H893.365C891.924 622.842 890.756 624.009 890.756 625.45C890.756 626.89 891.924 628.058 893.365 628.058H898.117C899.558 628.058 900.726 626.89 900.726 625.45C900.726 624.009 899.558 622.842 898.117 622.842Z" fill="white"/>
<path d="M952.473 622.842H947.72C946.279 622.842 945.111 624.009 945.111 625.45C945.111 626.89 946.279 628.058 947.72 628.058H952.473C953.914 628.058 955.082 626.89 955.082 625.45C955.082 624.009 953.914 622.842 952.473 622.842Z" fill="white"/>
<path d="M967.873 622.842H963.121C961.68 622.842 960.512 624.009 960.512 625.45C960.512 626.89 961.68 628.058 963.121 628.058H967.873C969.314 628.058 970.482 626.89 970.482 625.45C970.482 624.009 969.314 622.842 967.873 622.842Z" fill="white"/>
<path d="M937.688 622.406H908.15C906.709 622.406 905.541 623.574 905.541 625.014C905.541 626.454 906.709 627.622 908.15 627.622H937.688C939.129 627.622 940.297 626.454 940.297 625.014C940.297 623.574 939.129 622.406 937.688 622.406Z" fill="white"/>
<path d="M1010.16 622.406H980.623C979.182 622.406 978.014 623.574 978.014 625.014C978.014 626.454 979.182 627.622 980.623 627.622H1010.16C1011.6 627.622 1012.77 626.454 1012.77 625.014C1012.77 623.574 1011.6 622.406 1010.16 622.406Z" fill="white"/>
<path d="M912.612 634.613H907.859C906.418 634.613 905.25 635.781 905.25 637.221C905.25 638.661 906.418 639.829 907.859 639.829H912.612C914.053 639.829 915.221 638.661 915.221 637.221C915.221 635.781 914.053 634.613 912.612 634.613Z" fill="white"/>
<path d="M966.967 634.613H962.215C960.774 634.613 959.605 635.781 959.605 637.221C959.605 638.661 960.774 639.829 962.215 639.829H966.967C968.408 639.829 969.576 638.661 969.576 637.221C969.576 635.781 968.408 634.613 966.967 634.613Z" fill="white"/>
<path d="M982.368 634.613H977.615C976.174 634.613 975.006 635.781 975.006 637.221C975.006 638.661 976.174 639.829 977.615 639.829H982.368C983.808 639.829 984.977 638.661 984.977 637.221C984.977 635.781 983.808 634.613 982.368 634.613Z" fill="white"/>
<path d="M952.182 634.178H922.644C921.203 634.178 920.035 635.345 920.035 636.786C920.035 638.226 921.203 639.394 922.644 639.394H952.182C953.623 639.394 954.791 638.226 954.791 636.786C954.791 635.345 953.623 634.178 952.182 634.178Z" fill="white"/>
<path d="M923.483 681.424H918.73C917.289 681.424 916.121 682.591 916.121 684.032C916.121 685.472 917.289 686.64 918.73 686.64H923.483C924.924 686.64 926.092 685.472 926.092 684.032C926.092 682.591 924.924 681.424 923.483 681.424Z" fill="white"/>
<path d="M938.883 681.424H934.131C932.69 681.424 931.521 682.591 931.521 684.032C931.521 685.472 932.69 686.64 934.131 686.64H938.883C940.324 686.64 941.492 685.472 941.492 684.032C941.492 682.591 940.324 681.424 938.883 681.424Z" fill="white"/>
<path d="M981.173 681.859H951.634C950.194 681.859 949.025 683.027 949.025 684.467C949.025 685.908 950.194 687.075 951.634 687.075H981.173C982.614 687.075 983.782 685.908 983.782 684.467C983.782 683.027 982.614 681.859 981.173 681.859Z" fill="white"/>
<path d="M869.127 681.424H864.375C862.934 681.424 861.766 682.591 861.766 684.032C861.766 685.472 862.934 686.64 864.375 686.64H869.127C870.568 686.64 871.736 685.472 871.736 684.032C871.736 682.591 870.568 681.424 869.127 681.424Z" fill="white"/>
<path d="M908.698 681.859H879.16C877.719 681.859 876.551 683.027 876.551 684.467C876.551 685.908 877.719 687.075 879.16 687.075H908.698C910.139 687.075 911.307 685.908 911.307 684.467C911.307 683.027 910.139 681.859 908.698 681.859Z" fill="white"/>
<path d="M883.623 669.652H878.871C877.43 669.652 876.262 670.82 876.262 672.26C876.262 673.701 877.43 674.868 878.871 674.868H883.623C885.064 674.868 886.232 673.701 886.232 672.26C886.232 670.82 885.064 669.652 883.623 669.652Z" fill="white"/>
<path d="M937.977 669.652H933.224C931.783 669.652 930.615 670.82 930.615 672.26C930.615 673.701 931.783 674.868 933.224 674.868H937.977C939.418 674.868 940.586 673.701 940.586 672.26C940.586 670.82 939.418 669.652 937.977 669.652Z" fill="white"/>
<path d="M953.379 669.652H948.627C947.186 669.652 946.018 670.82 946.018 672.26C946.018 673.701 947.186 674.868 948.627 674.868H953.379C954.82 674.868 955.988 673.701 955.988 672.26C955.988 670.82 954.82 669.652 953.379 669.652Z" fill="white"/>
<path d="M923.192 670.086H893.654C892.213 670.086 891.045 671.254 891.045 672.694C891.045 674.134 892.213 675.302 893.654 675.302H923.192C924.633 675.302 925.801 674.134 925.801 672.694C925.801 671.254 924.633 670.086 923.192 670.086Z" fill="white"/>
<path d="M898.117 657.879H893.365C891.924 657.879 890.756 659.047 890.756 660.487C890.756 661.927 891.924 663.095 893.365 663.095H898.117C899.558 663.095 900.726 661.927 900.726 660.487C900.726 659.047 899.558 657.879 898.117 657.879Z" fill="white"/>
<path d="M952.473 657.879H947.72C946.279 657.879 945.111 659.047 945.111 660.487C945.111 661.927 946.279 663.095 947.72 663.095H952.473C953.914 663.095 955.082 661.927 955.082 660.487C955.082 659.047 953.914 657.879 952.473 657.879Z" fill="white"/>
<path d="M967.873 657.879H963.121C961.68 657.879 960.512 659.047 960.512 660.487C960.512 661.927 961.68 663.095 963.121 663.095H967.873C969.314 663.095 970.482 661.927 970.482 660.487C970.482 659.047 969.314 657.879 967.873 657.879Z" fill="white"/>
<path d="M937.688 658.314H908.15C906.709 658.314 905.541 659.482 905.541 660.922C905.541 662.363 906.709 663.53 908.15 663.53H937.688C939.129 663.53 940.297 662.363 940.297 660.922C940.297 659.482 939.129 658.314 937.688 658.314Z" fill="white"/>
<path d="M912.612 646.107H907.859C906.418 646.107 905.25 647.275 905.25 648.715C905.25 650.156 906.418 651.323 907.859 651.323H912.612C914.053 651.323 915.221 650.156 915.221 648.715C915.221 647.275 914.053 646.107 912.612 646.107Z" fill="white"/>
<path d="M966.967 646.107H962.215C960.774 646.107 959.605 647.275 959.605 648.715C959.605 650.156 960.774 651.323 962.215 651.323H966.967C968.408 651.323 969.576 650.156 969.576 648.715C969.576 647.275 968.408 646.107 966.967 646.107Z" fill="white"/>
<path d="M982.368 646.107H977.615C976.174 646.107 975.006 647.275 975.006 648.715C975.006 650.156 976.174 651.323 977.615 651.323H982.368C983.808 651.323 984.977 650.156 984.977 648.715C984.977 647.275 983.808 646.107 982.368 646.107Z" fill="white"/>
<path d="M952.182 646.543H922.644C921.203 646.543 920.035 647.711 920.035 649.151C920.035 650.591 921.203 651.759 922.644 651.759H952.182C953.623 651.759 954.791 650.591 954.791 649.151C954.791 647.711 953.623 646.543 952.182 646.543Z" fill="white"/>
<path d="M843.86 819.388L821.549 784.136L891.579 728.334L920.484 696.324C924.24 692.165 929.021 689.064 934.351 687.332C939.681 685.599 945.372 685.294 950.857 686.449C956.341 687.604 961.426 690.177 965.604 693.911C969.782 697.646 972.906 702.411 974.664 707.73C977.27 715.613 976.709 724.2 973.102 731.677C969.494 739.155 963.121 744.939 955.327 747.809L909.62 764.641L843.86 819.388Z" fill="#FFB6B6"/>
<path d="M320.368 563.788V735.123H440.45V563.788C440.452 562.556 440.059 561.356 439.328 560.363C438.597 559.371 437.567 558.639 436.389 558.275C435.834 558.092 435.252 558.002 434.667 558.008H326.168C325.407 558.007 324.653 558.155 323.95 558.445C323.247 558.735 322.608 559.16 322.069 559.697C321.531 560.234 321.103 560.871 320.811 561.573C320.519 562.275 320.369 563.028 320.368 563.788V563.788ZM367.231 622.659C367.262 619.282 368.627 616.053 371.027 613.676C373.428 611.298 376.67 609.964 380.05 609.964C383.429 609.964 386.672 611.298 389.072 613.676C391.473 616.053 392.837 619.282 392.868 622.659V642.539C392.851 645.926 391.493 649.169 389.091 651.557C386.689 653.946 383.438 655.287 380.05 655.287C376.661 655.287 373.411 653.946 371.009 651.557C368.606 649.169 367.248 645.926 367.231 642.539V622.659Z" fill="#2F2E41"/>
<path d="M320.001 729.643V746.164C320.004 747.02 320.344 747.841 320.948 748.447C321.552 749.054 322.37 749.398 323.227 749.405H437.593C438.45 749.401 439.27 749.058 439.875 748.45C440.479 747.843 440.818 747.021 440.818 746.164V729.643H320.001Z" fill="#3F3D56"/>
<path d="M131.463 305.649V618.481C131.466 622.468 133.052 626.29 135.872 629.109C138.692 631.928 142.516 633.513 146.504 633.516H610.286C614.274 633.513 618.098 631.928 620.918 629.109C623.739 626.29 625.324 622.468 625.327 618.481V305.649C625.318 301.666 623.73 297.849 620.91 295.034C618.091 292.219 614.271 290.636 610.286 290.631H146.504C142.52 290.636 138.699 292.219 135.88 295.034C133.061 297.849 131.472 301.666 131.463 305.649Z" fill="#3F3D56"/>
<path d="M142.344 309.542V614.623C142.347 616.753 143.196 618.795 144.702 620.301C146.209 621.807 148.252 622.655 150.383 622.658H606.426C608.557 622.655 610.6 621.807 612.106 620.301C613.613 618.795 614.461 616.753 614.465 614.623V309.542C614.465 307.41 613.618 305.364 612.111 303.855C610.604 302.345 608.56 301.495 606.426 301.49H150.383C148.249 301.495 146.205 302.345 144.698 303.855C143.19 305.364 142.344 307.41 142.344 309.542Z" fill="white"/>
<path d="M226.977 748.286C227.441 748.867 228.031 749.337 228.703 749.658C229.374 749.979 230.11 750.144 230.854 750.14H502.171C502.913 750.139 503.645 749.973 504.315 749.653C504.984 749.334 505.574 748.869 506.042 748.293C506.509 747.717 506.842 747.044 507.017 746.323C507.191 745.603 507.203 744.852 507.051 744.126L502.839 724.129C502.665 723.314 502.289 722.555 501.746 721.922C501.203 721.289 500.51 720.801 499.731 720.504C499.166 720.283 498.565 720.169 497.959 720.17H235.049C234.443 720.169 233.842 720.283 233.278 720.504C232.498 720.801 231.805 721.288 231.262 721.922C230.72 722.555 230.344 723.314 230.169 724.129L225.958 744.126C225.808 744.851 225.821 745.601 225.998 746.321C226.174 747.04 226.509 747.712 226.977 748.286Z" fill="#2F2E41"/>
<path d="M591.626 343.515H164.908C164.464 343.506 164.042 343.323 163.732 343.006C163.422 342.689 163.248 342.263 163.248 341.819C163.248 341.376 163.422 340.95 163.732 340.633C164.042 340.316 164.464 340.133 164.908 340.123H591.626C592.069 340.133 592.491 340.316 592.801 340.633C593.112 340.95 593.285 341.376 593.285 341.819C593.285 342.263 593.112 342.689 592.801 343.006C592.491 343.323 592.069 343.506 591.626 343.515V343.515Z" fill="#3F3D56"/>
<path d="M193.955 331.463C199.447 331.463 203.899 326.913 203.899 321.301C203.899 315.688 199.447 311.139 193.955 311.139C188.462 311.139 184.01 315.688 184.01 321.301C184.01 326.913 188.462 331.463 193.955 331.463Z" fill="#3F3D56"/>
<path d="M228.31 331.463C233.802 331.463 238.255 326.913 238.255 321.301C238.255 315.688 233.802 311.139 228.31 311.139C222.818 311.139 218.365 315.688 218.365 321.301C218.365 326.913 222.818 331.463 228.31 331.463Z" fill="#3F3D56"/>
<path d="M262.665 331.463C268.157 331.463 272.609 326.913 272.609 321.301C272.609 315.688 268.157 311.139 262.665 311.139C257.172 311.139 252.72 315.688 252.72 321.301C252.72 326.913 257.172 331.463 262.665 331.463Z" fill="#3F3D56"/>
<path d="M570.938 313.652H546.538C546.055 313.664 545.597 313.863 545.259 314.208C544.922 314.553 544.733 315.016 544.733 315.498C544.733 315.981 544.922 316.444 545.259 316.789C545.597 317.134 546.055 317.333 546.538 317.344H570.938C571.424 317.337 571.887 317.14 572.228 316.795C572.568 316.449 572.759 315.983 572.759 315.498C572.759 315.013 572.568 314.548 572.228 314.202C571.887 313.857 571.424 313.659 570.938 313.652Z" fill="#3F3D56"/>
<path d="M570.938 320.586H546.537C546.054 320.597 545.595 320.796 545.257 321.141C544.92 321.486 544.73 321.949 544.73 322.432C544.73 322.915 544.92 323.378 545.257 323.723C545.595 324.068 546.054 324.267 546.537 324.278H570.938C571.424 324.272 571.888 324.075 572.229 323.729C572.571 323.384 572.762 322.918 572.762 322.432C572.762 321.946 572.571 321.48 572.229 321.134C571.888 320.789 571.424 320.592 570.938 320.586V320.586Z" fill="#3F3D56"/>
<path d="M570.938 327.518H546.538C546.055 327.529 545.597 327.728 545.259 328.073C544.922 328.418 544.733 328.881 544.733 329.364C544.733 329.846 544.922 330.309 545.259 330.654C545.597 330.999 546.055 331.198 546.538 331.21H570.938C571.424 331.203 571.887 331.005 572.228 330.66C572.568 330.314 572.759 329.849 572.759 329.364C572.759 328.878 572.568 328.413 572.228 328.067C571.887 327.722 571.424 327.524 570.938 327.518V327.518Z" fill="#3F3D56"/>
<path d="M1159.2 736.892C1159.93 739.035 1161.33 740.89 1163.19 742.19C1165.04 743.49 1167.26 744.168 1169.53 744.128L1213.81 742.989C1216.09 742.944 1218.3 742.162 1220.1 740.76C1221.9 739.358 1223.2 737.41 1223.8 735.209L1230.07 668.24C1232.29 669.247 1234.71 669.744 1237.15 669.695C1239.27 669.642 1241.36 669.172 1243.3 668.312C1245.23 667.452 1246.98 666.219 1248.45 664.683C1249.91 663.147 1251.05 661.338 1251.81 659.36C1252.57 657.382 1252.94 655.274 1252.89 653.155C1252.83 651.036 1252.36 648.948 1251.5 647.011C1250.64 645.074 1249.41 643.325 1247.87 641.864C1246.34 640.404 1244.53 639.26 1242.55 638.498C1240.57 637.737 1238.46 637.372 1236.34 637.425C1235.36 637.422 1234.39 637.523 1233.44 637.727C1232.4 636.605 1231.14 635.713 1229.74 635.108C1228.33 634.503 1226.82 634.198 1225.29 634.213L1157.19 635.971C1156.62 635.992 1156.06 636.062 1155.51 636.18C1154.01 636.458 1152.6 637.053 1151.35 637.925C1150.11 638.796 1149.06 639.924 1148.29 641.232C1147.52 642.54 1147.04 643.998 1146.88 645.508C1146.72 647.019 1146.88 648.545 1147.36 649.987L1159.2 736.892ZM1231.35 663.693L1235.81 647.734C1236.32 645.891 1236.33 643.946 1235.84 642.097C1236.06 642.096 1236.25 641.994 1236.47 641.993C1239.52 641.93 1242.48 643.081 1244.69 645.194C1246.9 647.307 1248.18 650.21 1248.25 653.265C1248.32 656.321 1247.18 659.28 1245.07 661.494C1242.97 663.708 1240.07 664.996 1237.01 665.076C1235.03 665.138 1233.08 664.66 1231.35 663.693Z" fill="#2F2E41"/>
<path d="M1155.51 636.18C1156.96 644.473 1173.27 650.303 1192.89 649.289C1210.92 648.459 1225.67 642.128 1228.37 634.624C1227.37 634.329 1226.33 634.19 1225.29 634.213L1157.19 635.971C1156.62 635.992 1156.06 636.062 1155.51 636.18V636.18Z" fill="#3F3D56"/>
<path d="M1196.48 700.094C1196.57 700.071 1196.66 700.034 1196.73 699.983L1206.35 693.692C1206.46 693.616 1206.56 693.513 1206.63 693.391C1206.69 693.269 1206.73 693.132 1206.73 692.994C1206.73 692.855 1206.69 692.718 1206.63 692.596C1206.56 692.474 1206.46 692.371 1206.35 692.295L1196.35 685.752C1196.26 685.691 1196.16 685.649 1196.05 685.628C1195.94 685.608 1195.83 685.608 1195.73 685.63C1195.62 685.653 1195.52 685.696 1195.42 685.758C1195.33 685.819 1195.26 685.898 1195.2 685.99C1195.13 686.082 1195.09 686.185 1195.07 686.293C1195.05 686.401 1195.05 686.512 1195.08 686.62C1195.1 686.728 1195.14 686.83 1195.2 686.92C1195.27 687.011 1195.35 687.088 1195.44 687.148L1204.37 692.992L1195.82 698.585C1195.65 698.693 1195.53 698.857 1195.47 699.046C1195.42 699.236 1195.43 699.439 1195.51 699.62C1195.59 699.801 1195.73 699.948 1195.91 700.035C1196.09 700.121 1196.29 700.142 1196.48 700.094H1196.48Z" fill="#6C63FF"/>
<path d="M1181.29 700.793C1181.46 700.752 1181.6 700.664 1181.71 700.54C1181.82 700.416 1181.89 700.261 1181.92 700.097C1181.94 699.932 1181.91 699.764 1181.84 699.615C1181.77 699.465 1181.65 699.341 1181.5 699.259L1172.64 694.179L1181.21 687.819C1181.3 687.754 1181.37 687.672 1181.43 687.578C1181.48 687.484 1181.52 687.379 1181.54 687.271C1181.55 687.162 1181.55 687.052 1181.52 686.946C1181.49 686.839 1181.45 686.739 1181.38 686.651C1181.31 686.563 1181.23 686.489 1181.14 686.433C1181.04 686.377 1180.94 686.339 1180.83 686.323C1180.72 686.307 1180.61 686.313 1180.51 686.34C1180.4 686.366 1180.3 686.414 1180.21 686.479L1170.62 693.6C1170.51 693.683 1170.42 693.792 1170.36 693.917C1170.3 694.043 1170.28 694.181 1170.28 694.32C1170.29 694.458 1170.34 694.592 1170.41 694.71C1170.48 694.828 1170.58 694.926 1170.7 694.995L1180.67 700.708C1180.86 700.816 1181.08 700.846 1181.29 700.793V700.793Z" fill="#6C63FF"/>
<path d="M1195.52 705.606C1195.6 705.586 1195.68 705.554 1195.75 705.51C1195.85 705.453 1195.93 705.378 1195.99 705.289C1196.06 705.201 1196.11 705.1 1196.13 704.994C1196.16 704.887 1196.16 704.777 1196.14 704.668C1196.13 704.56 1196.09 704.456 1196.03 704.362L1182.4 681.962C1182.29 681.773 1182.1 681.638 1181.89 681.586C1181.67 681.534 1181.44 681.569 1181.25 681.685C1181.07 681.8 1180.93 681.985 1180.88 682.2C1180.82 682.415 1180.86 682.643 1180.97 682.832L1194.6 705.231C1194.7 705.384 1194.84 705.502 1195 705.57C1195.17 705.637 1195.35 705.65 1195.52 705.606Z" fill="#6C63FF"/>
<path d="M429.252 435.732H355.397C352.384 435.732 349.941 438.174 349.941 441.186V448.398C349.941 451.41 352.384 453.851 355.397 453.851H429.252C432.265 453.851 434.708 451.41 434.708 448.398V441.186C434.708 438.174 432.265 435.732 429.252 435.732Z" fill="#6C63FF"/>
<path d="M472.302 471.969H312.347C309.334 471.969 306.892 474.41 306.892 477.422V484.634C306.892 487.646 309.334 490.087 312.347 490.087H472.302C475.315 490.087 477.757 487.646 477.757 484.634V477.422C477.757 474.41 475.315 471.969 472.302 471.969Z" fill="#E6E6E6"/>
<path d="M472.302 508.205H312.347C309.334 508.205 306.892 510.647 306.892 513.658V520.871C306.892 523.882 309.334 526.324 312.347 526.324H472.302C475.315 526.324 477.757 523.882 477.757 520.871V513.658C477.757 510.647 475.315 508.205 472.302 508.205Z" fill="#E6E6E6"/>
<path d="M485.861 629.55L486.224 630.693L486.243 630.731L497.148 663.872L509.693 702.063L533.296 773.833L533.525 784.982V785.02L535.279 874.704L530.417 886.863L535.889 906.797C535.889 906.797 533.372 876.664 519.874 893.968C512.229 903.802 503.287 913.864 495.947 923.298C506.643 927.624 517.51 931.537 528.549 935.037C530.932 935.8 533.334 936.524 535.737 937.248C536.251 937.4 536.766 937.553 537.281 937.705C573.873 948.522 611.703 954.6 649.843 955.791C651.826 955.848 653.771 955.886 655.658 955.924C656.326 955.943 656.974 955.962 657.622 955.962C659.757 955.981 661.874 956 664.009 956C668.318 956 672.608 955.937 676.878 955.81C708.488 954.919 739.913 950.671 770.623 943.136C770.413 930.463 769.841 915.656 769.021 899.838C768.64 892.082 760.08 883.678 759.565 875.559C759.203 869.461 766.886 863.724 766.486 857.531C763.893 819.397 760.652 834.036 758.25 807.031C758.002 804.382 757.773 801.848 757.563 799.427C756.019 782.085 754.951 771.241 754.951 771.241L765.208 706.618L781.319 605.156L780.079 603.117L778.688 602.431L693.713 560.391L689.099 548.575C687.755 545.171 685.422 542.247 682.402 540.179C679.381 538.11 675.811 536.993 672.15 536.969L616.174 536.74C613.269 536.727 610.403 537.407 607.813 538.723C605.223 540.038 602.985 541.953 601.284 544.306L586.127 565.288L485.861 629.55Z" fill="#3F3D56"/>
<path d="M546.204 757.863L533.525 784.981L524.87 803.505L509.979 881.431L502.525 889.34L496.138 861.342L429.29 876.178C427.098 864 428.703 876.59 427.35 863.231C427.731 862.85 428.131 862.469 428.532 862.087C429.599 861.096 430.495 860.163 430.476 859.267C429.714 813.186 432.002 734.765 451.105 687.255C454.097 679.498 458.042 672.142 462.849 665.358C463.231 664.844 463.593 664.329 463.955 663.814C472.764 651.484 478.331 639.345 486.224 630.712V630.693C486.273 630.653 486.318 630.608 486.357 630.559C486.386 630.545 486.412 630.526 486.433 630.502L540.656 601.764L542.982 667.092L544.64 714.05L546.204 757.863Z" fill="#3F3D56"/>
<path d="M741.719 765.565L757.556 799.436L763.083 811.232L777.969 889.15L785.399 897.04L791.801 869.049L794.809 868.432L849.056 857.202L864.868 907.396C868.431 901.461 869.835 894.478 868.842 887.627C867.849 880.777 864.52 874.479 859.417 869.799C858.338 868.823 857.438 867.872 857.463 866.972C858.363 812.774 855.047 713.808 825.095 673.075C815.582 660.149 809.875 647.274 801.571 638.279C801.545 638.254 801.545 638.228 801.519 638.228L781.311 605.154L780.077 603.123L778.689 602.43L741.719 765.565Z" fill="#3F3D56"/>
<path d="M645.778 520.817C686.907 520.817 720.248 487.49 720.248 446.379C720.248 405.268 686.907 371.941 645.778 371.941C604.65 371.941 571.309 405.268 571.309 446.379C571.309 487.49 604.65 520.817 645.778 520.817Z" fill="#FFB6B6"/>
<path d="M746.433 394.383C745.856 393.767 745.16 393.273 744.388 392.931C743.615 392.59 742.782 392.407 741.937 392.395L743.057 389.288C743.422 388.309 743.521 387.251 743.343 386.222C743.164 385.192 742.716 384.229 742.042 383.43C741.369 382.631 740.495 382.025 739.51 381.675C738.526 381.325 737.466 381.242 736.439 381.436L732.361 382.221L732.745 379.498C732.893 378.484 732.773 377.449 732.399 376.495C732.025 375.541 731.409 374.7 730.611 374.057C729.814 373.413 728.862 372.987 727.85 372.823C726.838 372.658 725.801 372.759 724.84 373.117C723.966 373.461 723.026 373.605 722.089 373.538C721.152 373.472 720.242 373.196 719.425 372.733C718.605 372.283 717.893 371.66 717.339 370.907C716.785 370.154 716.401 369.289 716.216 368.372L714.796 361.523L714.645 361.155C707.726 349.628 694.423 341.242 678.144 338.168C663.654 335.412 648.797 336.815 634.474 338.135C628.791 338.669 622.374 339.271 617.025 342.545C612.48 345.352 608.636 350.965 609.421 356.628C595.299 352.301 580.157 360.938 572.653 371.83C563.762 384.794 562.308 401.032 562.074 413.728C561.438 443.765 567.639 468.34 580.458 486.783C581.394 488.119 581.628 490.909 583.483 491.845L583.098 491.226C585.171 492.262 587.277 493.933 586.491 495.72C584.235 500.866 599.226 512.242 609.789 516.001C629.059 522.867 654.679 522.282 672.696 519.81L673.331 515.55C679.832 514.665 684.412 512.977 685.698 510.338C687.971 508.4 689.91 506.663 691.598 505.059L691.615 505.042C691.648 505.009 691.715 504.959 691.748 504.925C699.888 497.124 701.776 492.68 702.629 485.914C703.447 479.282 701.994 472.549 700.506 466.485C731.826 471.33 688.172 433.141 717.353 425.757C717.687 425.654 718.028 425.57 718.372 425.506C719.224 425.306 720.077 425.105 720.896 424.871C724.843 423.8 728.623 422.187 732.127 420.077C740.283 415.115 742.973 408.533 747.185 401.116C747.793 400.06 748.048 398.837 747.912 397.626C747.777 396.415 747.259 395.279 746.433 394.383V394.383Z" fill="#2F2E41"/>
<path d="M909.165 770.865C909.149 773.789 909.115 777.882 908.982 782.944C908.965 783.645 908.948 784.364 908.931 785.099C908.714 794.404 908.497 802.205 908.146 810.876C908.129 811.477 908.113 812.062 908.079 812.663C907.611 824.758 906.876 838.841 905.606 861.143C903.249 902.34 899.138 866.806 895.01 881.257C894.809 881.975 894.592 882.827 894.391 883.83C893.766 887.466 892.711 891.016 891.249 894.404C889.06 895.707 886.804 896.96 884.581 898.213C878.247 901.738 871.812 905.129 865.328 908.354C861.684 910.158 858.024 911.929 854.347 913.633C853.762 913.9 853.194 914.167 852.626 914.418C833.798 923.123 814.393 930.525 794.549 936.57C790.671 937.739 786.811 938.875 782.9 939.928C778.822 941.064 774.744 942.133 770.616 943.135C739.907 950.671 708.482 954.922 676.874 955.815C672.612 955.948 668.317 955.999 664.005 955.999C661.866 955.999 659.76 955.982 657.62 955.965C656.969 955.965 656.317 955.948 655.665 955.932C653.777 955.882 651.821 955.848 649.849 955.798C611.708 954.609 573.879 948.529 537.288 937.706L535.734 937.255C533.327 936.52 530.937 935.801 528.547 935.033C517.517 931.541 506.648 927.632 495.94 923.305C487.768 920.014 479.69 916.484 471.707 912.714C471.634 912.694 471.566 912.66 471.506 912.614C469.835 911.845 468.147 911.043 466.476 910.225C466.258 910.108 466.024 909.991 465.79 909.874C459.557 906.834 453.389 903.648 447.289 900.318C442.158 888.541 434.939 886.285 430.459 875.928C429.156 872.851 428.214 869.633 427.652 866.339C427.652 866.305 427.635 866.272 427.635 866.222C428.103 872.436 425.646 855.196 427.618 866.155C427.602 865.955 427.585 865.737 427.568 865.487C427.518 864.885 427.451 864.15 427.351 863.231C421.619 807.284 421.986 743.301 419.496 690.578C419.329 687.17 419.156 683.906 418.978 680.788C418.928 679.752 418.861 678.733 418.794 677.731C418.911 677.43 419.045 677.113 419.195 676.812C419.227 676.725 419.266 676.642 419.312 676.561C419.361 676.458 419.417 676.357 419.479 676.261C419.513 676.211 419.563 676.144 419.596 676.094C419.621 676.036 419.648 675.98 419.68 675.927C419.83 675.693 419.997 675.442 420.181 675.208C420.265 675.108 420.332 675.024 420.415 674.941C420.473 674.855 420.54 674.777 420.616 674.707C420.667 674.627 420.729 674.554 420.8 674.49C420.866 674.423 420.933 674.34 421.017 674.256C421.052 674.203 421.098 674.158 421.15 674.122C421.283 673.971 421.428 673.831 421.585 673.705C422.181 673.156 422.818 672.654 423.49 672.201C423.724 672.051 423.975 671.901 424.209 671.733C425.893 670.726 427.667 669.876 429.507 669.194C430.142 668.96 430.777 668.743 431.462 668.509C431.713 668.442 431.947 668.359 432.198 668.275C432.565 668.158 432.933 668.041 433.317 667.958C435.223 667.39 437.278 666.905 439.501 666.454C439.769 666.404 440.053 666.354 440.337 666.287C440.738 666.204 441.156 666.137 441.574 666.07C442.142 665.97 442.727 665.87 443.312 665.77C448.275 664.984 453.908 664.4 460.125 664.015C460.71 663.982 461.295 663.949 461.88 663.915C462.565 663.882 463.25 663.848 463.952 663.815C464.537 663.782 465.139 663.765 465.74 663.748C466.325 663.715 466.927 663.698 467.545 663.681C469.233 663.631 470.971 663.581 472.743 663.548C477.79 663.447 483.105 663.481 488.687 663.598C491.278 663.665 493.918 663.731 496.626 663.848C496.81 663.848 496.977 663.865 497.144 663.865C499.5 663.949 501.873 664.049 504.314 664.182C506.018 664.266 507.74 664.35 509.461 664.45C511.082 664.55 512.72 664.65 514.375 664.767C515.662 664.834 516.948 664.934 518.252 665.018C519.355 665.101 520.458 665.185 521.561 665.252L523.065 665.352C523.884 665.419 524.703 665.469 525.539 665.552C527.377 665.703 529.216 665.853 531.088 666.003C532.943 666.17 534.831 666.338 536.72 666.505C538.608 666.672 540.513 666.855 542.419 667.039C542.619 667.056 542.803 667.073 542.987 667.089C544.725 667.273 546.463 667.44 548.218 667.624C548.619 667.657 549.037 667.691 549.438 667.741C551.111 667.909 552.817 668.106 554.505 668.285C555.024 668.341 555.539 668.395 556.059 668.452C557.381 668.596 558.685 668.72 560.017 668.877C561.772 669.077 563.561 669.261 565.299 669.495C566.652 669.645 568.006 669.796 569.36 669.963C571.482 670.213 573.638 670.481 575.794 670.765C576.613 670.865 577.432 670.965 578.251 671.082C584.401 671.85 590.619 672.702 596.936 673.588C606.512 674.941 616.239 676.411 626.033 677.998C635.844 679.585 645.71 681.261 655.631 683.027C658.138 683.478 660.645 683.929 663.169 684.396C664.305 684.613 665.442 684.831 666.578 685.048C668.517 685.399 670.456 685.766 672.394 686.134C674.333 686.501 676.272 686.869 678.211 687.253C680.517 687.704 682.84 688.155 685.146 688.606C700.338 691.613 715.447 694.821 730.187 698.179C732.611 698.73 735.034 699.298 737.441 699.849C742.254 700.968 747.023 702.104 751.747 703.257C753.051 703.558 754.338 703.875 755.624 704.193C758.833 704.995 762.042 705.796 765.201 706.615L765.752 706.765C768.076 707.333 770.348 707.918 772.621 708.519C777.986 709.923 783.262 711.343 788.448 712.779C791.891 713.732 795.295 714.695 798.66 715.669C803.691 717.123 808.621 718.593 813.417 720.08C814.604 720.447 815.791 720.815 816.961 721.166C820.47 722.252 823.93 723.354 827.289 724.457C829.963 725.325 832.57 726.211 835.144 727.096C837.718 727.982 840.242 728.867 842.715 729.752C844.303 730.32 845.874 730.922 847.445 731.49C849.701 732.325 851.924 733.16 854.097 733.996C854.765 734.246 855.417 734.514 856.069 734.764C856.486 734.948 856.888 735.098 857.289 735.265C858.074 735.583 858.876 735.883 859.645 736.201C860.431 736.502 861.199 736.819 861.968 737.153C862.72 737.454 863.489 737.771 864.224 738.089C864.977 738.389 865.712 738.707 866.447 739.041C867.066 739.291 867.667 739.559 868.252 739.826C869.439 740.344 870.626 740.862 871.779 741.396C872.347 741.664 872.915 741.914 873.483 742.182L874.787 742.783C874.971 742.883 875.155 742.967 875.338 743.05C875.756 743.251 876.191 743.468 876.609 743.668C877.578 744.119 878.531 744.604 879.467 745.055C880.72 745.69 881.94 746.325 883.11 746.943C884.297 747.577 885.45 748.212 886.553 748.83C886.737 748.931 886.904 749.031 887.088 749.131C887.338 749.265 887.589 749.415 887.84 749.549C888.692 750.033 889.511 750.534 890.33 751.019C891.934 752.004 893.455 752.973 894.876 753.942C895.193 754.16 895.494 754.377 895.812 754.577C896.865 755.329 897.867 756.064 898.803 756.816C898.803 756.832 898.803 756.832 898.82 756.832C899.138 757.066 899.438 757.317 899.739 757.551C899.99 757.785 900.257 757.985 900.508 758.219C901.377 758.971 902.179 759.689 902.915 760.424C903.161 760.651 903.396 760.891 903.617 761.143C903.714 761.223 903.803 761.313 903.884 761.41C904.218 761.744 904.519 762.078 904.803 762.412C904.847 762.458 904.887 762.508 904.92 762.562C905.321 763.03 905.689 763.498 906.04 763.966C906.207 764.2 906.391 764.434 906.541 764.667C906.742 764.951 906.942 765.252 907.11 765.536C907.26 765.77 907.394 766.021 907.527 766.255C907.882 766.857 908.184 767.488 908.43 768.142C908.618 768.586 908.769 769.044 908.881 769.512C909.008 769.956 909.103 770.408 909.165 770.865V770.865Z" fill="#2F2E41"/>
<path opacity="0.2" d="M909.166 770.864C909.149 773.788 909.116 777.881 908.982 782.943C908.965 783.644 908.932 784.362 908.915 785.098C908.748 792.197 908.497 800.968 908.146 810.874C908.13 811.476 908.113 812.061 908.079 812.662C907.611 824.757 906.876 838.84 905.606 861.142C903.249 902.339 899.138 866.805 895.01 881.256C883.545 874.206 870.977 866.822 857.54 859.238C855.116 857.868 852.671 856.492 850.203 855.111C823.328 840.126 793.312 824.423 761.976 808.87C760.739 808.252 759.485 807.634 758.249 807.032C686.467 771.566 608.117 737.069 544.642 714.048C532.391 709.604 520.692 705.595 509.695 702.07C486.531 694.669 466.509 689.49 451.1 687.252C435.056 684.913 423.975 685.748 419.496 690.576C419.329 687.168 419.156 683.905 418.978 680.787C418.911 679.751 418.844 678.732 418.777 677.73C418.88 677.455 419.015 677.192 419.144 676.927C419.163 676.889 419.176 676.849 419.195 676.811C419.227 676.724 419.266 676.64 419.312 676.56C419.361 676.456 419.417 676.356 419.479 676.259C419.534 676.141 419.601 676.029 419.68 675.925C419.83 675.691 419.997 675.441 420.181 675.207C420.316 675.032 420.462 674.864 420.616 674.706C420.667 674.625 420.729 674.552 420.8 674.489C420.866 674.422 420.933 674.338 421.017 674.255C421.053 674.202 421.098 674.157 421.151 674.121C421.283 673.969 421.428 673.83 421.585 673.704C422.181 673.155 422.818 672.652 423.49 672.2C423.724 672.05 423.975 671.899 424.209 671.732C425.893 670.725 427.667 669.875 429.507 669.193C430.142 668.959 430.777 668.742 431.462 668.508C431.713 668.441 431.947 668.358 432.198 668.274C432.565 668.157 432.933 668.04 433.318 667.957C435.223 667.389 437.278 666.904 439.501 666.453C440.17 666.32 440.872 666.186 441.574 666.069C442.142 665.969 442.727 665.869 443.312 665.768C448.276 664.983 453.908 664.398 460.125 664.014C460.71 663.981 461.295 663.947 461.88 663.914C462.565 663.88 463.25 663.847 463.952 663.814C464.537 663.78 465.139 663.764 465.74 663.747C466.325 663.713 466.927 663.697 467.545 663.68C469.233 663.63 470.972 663.58 472.743 663.546C477.79 663.463 483.105 663.496 488.687 663.613C491.278 663.663 493.918 663.747 496.626 663.864C496.793 663.864 496.977 663.881 497.144 663.881C499.5 663.947 501.89 664.064 504.314 664.181C506.018 664.265 507.74 664.348 509.461 664.448C511.082 664.549 512.72 664.649 514.375 664.766C515.662 664.833 516.948 664.933 518.252 665.017C519.355 665.1 520.458 665.184 521.561 665.25C522.882 665.351 524.202 665.451 525.539 665.551C527.377 665.701 529.216 665.852 531.088 666.002C532.943 666.169 534.831 666.336 536.72 666.503C538.608 666.67 540.514 666.854 542.419 667.038C542.619 667.055 542.803 667.071 542.987 667.088C544.725 667.272 546.463 667.439 548.218 667.623C557.945 668.608 567.956 669.761 578.251 671.081C584.402 671.866 590.63 672.707 596.936 673.603C606.513 674.956 616.24 676.426 626.033 677.997C635.844 679.584 645.71 681.26 655.632 683.025C658.139 683.476 660.646 683.927 663.169 684.395C666.244 684.963 669.32 685.542 672.395 686.133C674.333 686.5 676.272 686.868 678.211 687.252C680.517 687.703 682.84 688.154 685.147 688.605C700.339 691.612 715.447 694.82 730.188 698.177C732.611 698.729 735.034 699.297 737.441 699.848C742.254 700.967 747.023 702.103 751.747 703.256C753.051 703.573 754.338 703.891 755.625 704.208C758.85 705.01 762.042 705.812 765.201 706.614V706.631C765.385 706.664 765.569 706.714 765.753 706.764C768.059 707.349 770.349 707.934 772.622 708.535C777.986 709.938 783.262 711.353 788.449 712.778C791.892 713.747 795.301 714.699 798.66 715.668C803.691 717.139 808.621 718.609 813.418 720.079C814.604 720.446 815.791 720.814 816.961 721.165C820.471 722.267 823.913 723.364 827.289 724.456C829.963 725.324 832.571 726.21 835.144 727.095C837.718 727.98 840.242 728.866 842.715 729.751C844.32 730.319 845.891 730.904 847.445 731.472C849.718 732.307 851.924 733.143 854.097 733.995C854.765 734.245 855.417 734.512 856.069 734.763C857.289 735.231 858.476 735.715 859.645 736.2C860.431 736.5 861.2 736.818 861.969 737.152C862.721 737.453 863.489 737.77 864.225 738.087C864.977 738.388 865.712 738.706 866.448 739.04C867.066 739.29 867.668 739.558 868.253 739.825C869.439 740.343 870.626 740.861 871.779 741.395C872.347 741.662 872.915 741.913 873.484 742.18L874.787 742.782C874.971 742.882 875.155 742.966 875.339 743.049C876.759 743.717 878.13 744.386 879.467 745.054C880.72 745.689 881.94 746.323 883.11 746.942C884.497 747.676 885.818 748.395 887.088 749.13C887.339 749.264 887.589 749.414 887.84 749.548C888.692 750.032 889.511 750.533 890.33 751.018C891.935 752.003 893.456 752.972 894.876 753.941C896.28 754.91 897.584 755.862 898.804 756.815C898.804 756.831 898.804 756.831 898.82 756.831C899.405 757.299 899.974 757.767 900.508 758.218C901.377 758.97 902.18 759.688 902.915 760.423C903.162 760.65 903.396 760.89 903.617 761.141C903.714 761.222 903.804 761.311 903.884 761.409C904.235 761.793 904.586 762.177 904.921 762.561C905.322 763.029 905.689 763.497 906.04 763.965C906.208 764.198 906.391 764.432 906.542 764.666C906.742 764.95 906.943 765.251 907.11 765.535C907.26 765.769 907.394 766.019 907.528 766.253C907.883 766.855 908.184 767.487 908.43 768.141C908.613 768.586 908.764 769.044 908.882 769.511C909.008 769.955 909.103 770.407 909.166 770.864V770.864Z" fill="black"/>
</g>
<defs>
<clipPath id="clip0_633_96">
<rect width="1315" height="956" fill="white"/>
</clipPath>
</defs>
</svg>
