<svg width="4327" height="3962" viewBox="0 0 4327 3962" fill="none" xmlns="http://www.w3.org/2000/svg">
<g clip-path="url(#clip0_424_2)">
<path d="M2772.21 3164.06L2813.79 3257.31C2779.99 3251.92 2748.56 3280.79 2747.85 3317.87C2747.15 3354.94 2777.29 3393.51 2811.09 3398.78C2804.63 3427.56 2776.76 3440.25 2752.56 3451.89C2728.36 3463.52 2702.28 3482.81 2704.08 3513.48C2705.53 3538.11 2725.89 3559.85 2747.52 3568.59C2769.14 3577.34 2791.83 3575.99 2813.73 3574.53C2780.54 3609.24 2777.31 3674.5 2806.45 3721.32C2835.59 3768.13 2893.8 3791.18 2937.38 3773.16C2906.58 3811.47 2913.27 3881.62 2951.49 3921.16C2990.01 3961.01 3045.84 3964.87 3094.65 3960.67C3218.94 3950.16 3337.37 3903.22 3435.12 3825.73C3472.43 3796.08 3507.29 3761.2 3528.57 3715.71C3549.86 3670.23 3556.13 3612.63 3536.3 3560.87C3541.65 3625.71 3606.55 3676.93 3664.93 3679.8C3723.31 3682.66 3774.28 3649.77 3817.6 3612.27C3875.21 3562.4 3928.54 3492.49 3920.64 3406.23C3916.72 3363.53 3898.07 3322.45 3879.78 3282.67L3844.32 3205.55C3830 3174.42 3815.36 3142.75 3793.81 3116.63C3772.27 3090.5 3742.36 3070.27 3712.43 3070.46C3719.27 3039.2 3726.15 3006.76 3720.41 2973.54C3714.68 2940.32 3692.72 2905.93 3662.85 2898.15C3624.85 2888.24 3592.63 2923.32 3554.41 2920.02C3517.63 2916.83 3487.24 2879.92 3451.52 2865.29C3436.82 2858.93 3420.58 2857 3404.79 2859.73C3389 2862.46 3374.35 2869.73 3362.64 2880.67C3340 2902.77 3330.56 2940.12 3338.68 2975.46C3345.8 3006.41 3364.74 3033.72 3376.24 3063.57C3387.73 3093.43 3389.52 3131.82 3367.44 3148.12C3340.8 3167.8 3300.24 3141.02 3279.43 3108.63C3258.61 3076.24 3246.66 3037.02 3220.34 3009.78C3189.27 2977.63 3140.64 2970.09 3108.65 2992.48C3076.66 3014.86 3064.43 3064.98 3080.56 3107.58C3093.74 3142.42 3123.95 3177.66 3113.47 3210.47C3102.4 3245.14 3053.95 3240.75 3024.73 3216.24C2995.51 3191.74 2976.1 3154.83 2947.24 3129.78C2917.92 3104.34 2879.64 3093.19 2846.03 3100.31C2828.98 3104.26 2813.2 3112.45 2800.15 3124.11C2787.1 3135.78 2777.2 3150.54 2771.36 3167.04" fill="#E6E6E6"/>
<path d="M3445.4 2902.04L3359.13 2942.12C3346.16 2948.53 3331.45 2950.51 3317.25 2947.77C3304.72 2944.81 3296.26 2937.15 3294.04 2926.75L3273.96 2832.98C3270.17 2815.29 3284.82 2794.36 3308.79 2783.22L3356.43 2761.09C3380.41 2749.95 3405.85 2752.25 3416.92 2766.55L3475.63 2842.37C3482.14 2850.78 3482.54 2862.19 3476.72 2873.67C3469.66 2886.29 3458.66 2896.26 3445.4 2902.04Z" fill="black"/>
<path d="M2805.22 1608.11C2752.78 1632.52 2751.92 1741.88 2768.36 1777.31L2798.16 1841.45L2988.08 1753.2L2958.28 1689.06C2941.81 1653.64 2857.69 1583.78 2805.22 1608.11Z" fill="black"/>
<path d="M2294.85 2528.9C2291.5 2528.9 2288.21 2528.1 2285.25 2526.55C2282.28 2525.01 2279.74 2522.77 2277.82 2520.03C2275.9 2517.3 2274.68 2514.14 2274.25 2510.82C2273.81 2507.51 2274.18 2504.14 2275.33 2501C2276.26 2498.43 2277.69 2496.08 2279.54 2494.07C2281.38 2492.06 2283.61 2490.44 2286.09 2489.3L3266.9 2033.55C3269.37 2032.4 3272.05 2031.75 3274.77 2031.63C3277.5 2031.52 3280.22 2031.94 3282.78 2032.88C3285.34 2033.81 3287.69 2035.24 3289.7 2037.09C3291.71 2038.93 3293.33 2041.15 3294.48 2043.63C3296.79 2048.62 3297.03 2054.33 3295.14 2059.5C3293.25 2064.67 3289.39 2068.88 3284.4 2071.21H3284.4L2303.58 2526.96C2300.85 2528.24 2297.87 2528.9 2294.85 2528.9Z" fill="black"/>
<path d="M3062.06 1794.1L2781.7 1924.37L3221.49 2871.05L3501.85 2740.78L3062.06 1794.1Z" fill="#E6E6E6"/>
<path d="M2009.61 602.387C1957.17 626.801 1956.31 736.155 1972.75 771.588L2002.54 835.723L2192.47 747.473L2162.67 683.338C2146.2 647.92 2062.08 578.056 2009.61 602.387Z" fill="black"/>
<path d="M3184.43 3010.87L3098.15 3050.95C3085.18 3057.36 3070.48 3059.34 3056.27 3056.6C3043.75 3053.64 3035.29 3045.98 3033.06 3035.58L3012.99 2941.81C3009.2 2924.12 3023.85 2903.19 3047.82 2892.05L3095.46 2869.91C3119.43 2858.78 3144.87 2861.08 3155.95 2875.38L3214.66 2951.2C3221.17 2959.61 3221.56 2971.02 3215.75 2982.5C3208.68 2995.12 3197.68 3005.08 3184.43 3010.87Z" fill="black"/>
<path d="M2919.18 3142.48L2832.91 3182.57C2819.94 3188.97 2805.23 3190.96 2791.03 3188.21C2778.5 3185.25 2770.04 3177.59 2767.81 3167.19L2747.74 3073.42C2743.95 3055.73 2758.6 3034.81 2782.57 3023.67L2830.21 3001.53C2854.18 2990.39 2879.63 2992.69 2890.7 3007L2949.41 3082.81C2955.92 3091.22 2956.31 3102.63 2950.5 3114.11C2943.44 3126.73 2932.44 3136.7 2919.18 3142.48Z" fill="black"/>
<path d="M2341.26 949.406L2060.9 1079.68L2949.88 2993.28L3230.25 2863.01L2341.26 949.406Z" fill="#E6E6E6"/>
<path d="M2632.16 1935.86L2600.7 1866.63L2618.81 1858.28L2650.18 1927.29L3104.32 2934.35L3086.23 2942.76" fill="black"/>
<path d="M2986.98 1878.32L2955.52 1809.09L2973.63 1800.73L3005 1869.74L3459.15 2876.81L3441.05 2885.22" fill="black"/>
<path d="M2473.59 1102.55L2093.71 1279.06C2069.53 1241.43 1996.62 1048.59 2012.99 991.38L2000.7 936.82L2263 814.939L2298.11 858.133C2350.22 874.125 2451.68 1055.25 2473.59 1102.55Z" fill="#E6E6E6"/>
<path d="M2273.96 817.275L2003.28 943.048C1993.29 947.69 1982.65 945.984 1979.52 939.236C1979.07 938.263 1978.79 937.22 1978.69 936.153L1964.68 786.69C1964.08 780.29 1969.56 773.037 1977.92 769.151L2157.43 685.741C2165.79 681.855 2174.87 682.348 2179.37 686.934L2284.55 794.033C2289.93 799.51 2287.01 808.887 2278.02 814.976C2276.73 815.849 2275.37 816.618 2273.96 817.275V817.275Z" fill="#E6E6E6"/>
<path d="M2486.26 1988.26C2483.33 1988.27 2480.41 1987.92 2477.56 1987.23C2473.55 1986.4 2469.78 1984.66 2466.54 1982.15C2463.3 1979.63 2460.68 1976.41 2458.88 1972.73L2293.39 1616.51C2286.55 1601.76 2295.74 1582.9 2313.89 1574.47L2556.2 1461.87C2574.36 1453.44 2594.69 1458.58 2601.55 1473.32L2767.03 1829.54C2768.69 1833.29 2769.46 1837.37 2769.29 1841.47C2769.12 1845.57 2768.02 1849.57 2766.07 1853.18C2761.82 1861.34 2754.94 1867.82 2746.53 1871.58L2504.22 1984.17C2498.6 1986.82 2492.47 1988.22 2486.26 1988.26Z" fill="black"/>
<path d="M2519.4 2042.18L2239.04 2172.46L2678.83 3119.13L2959.19 2988.86L2519.4 2042.18Z" fill="#E6E6E6"/>
<path d="M2174 832.888L2091.78 871.092C2075.91 878.464 2054.51 866.179 2044.07 843.711C2033.63 821.243 2038.05 796.961 2053.91 789.589L2136.13 751.385C2152 744.013 2173.4 756.297 2183.84 778.765C2194.28 801.233 2189.86 825.516 2174 832.888Z" fill="black"/>
<path d="M2268.03 1853.65C2215.59 1878.06 2214.73 1987.42 2231.17 2022.85L2260.96 2086.99L2450.89 1998.74L2421.09 1934.6C2404.62 1899.18 2320.5 1829.32 2268.03 1853.65Z" fill="black"/>
<path d="M3238.61 2184C3228.81 2188.55 3217.6 2189.01 3207.45 2185.3C3197.3 2181.59 3189.04 2174.01 3184.48 2164.21L3135.99 2059.84C3131.45 2050.04 3130.99 2038.83 3134.7 2028.69C3138.41 2018.55 3146 2010.29 3155.8 2005.74C3165.59 2001.19 3176.79 2000.71 3186.94 2004.42C3197.09 2008.12 3205.35 2015.7 3209.91 2025.49L3258.4 2129.86C3262.94 2139.67 3263.41 2150.88 3259.7 2161.03C3255.99 2171.17 3248.41 2179.44 3238.61 2184Z" fill="black"/>
<path d="M2413.89 2567.64C2404.08 2572.18 2392.88 2572.65 2382.73 2568.93C2372.58 2565.22 2364.32 2557.64 2359.75 2547.84L2311.27 2443.47C2306.73 2433.67 2306.26 2422.47 2309.98 2412.32C2313.69 2402.18 2321.28 2393.93 2331.08 2389.38C2340.87 2384.82 2352.07 2384.35 2362.22 2388.05C2372.36 2391.75 2380.63 2399.33 2385.19 2409.12L2433.68 2513.5C2438.22 2523.3 2438.69 2534.51 2434.98 2544.66C2431.27 2554.81 2423.68 2563.07 2413.89 2567.64Z" fill="black"/>
<path d="M3163.92 1955.96L2838.79 2107.03C2818.09 2074.82 2755.69 1909.78 2769.71 1860.82L2776.58 1806.04L2970.71 1710.79L3013.73 1746.78C3074.33 1726.28 3163.42 1876.48 3163.92 1955.96Z" fill="#E6E6E6"/>
<path d="M3012.97 1945.48L2930.75 1983.69C2914.89 1991.06 2890.75 1972.89 2876.95 1943.18C2863.15 1913.47 2864.83 1883.3 2880.69 1875.93L2962.91 1837.73C2978.78 1830.35 3002.92 1848.53 3016.72 1878.23C3030.52 1907.94 3028.84 1938.11 3012.97 1945.48Z" fill="black"/>
<path d="M2315.7 2142.07L2284.24 2072.84L2302.35 2064.48L2333.71 2133.49L2787.86 3140.56L2769.77 3148.96" fill="black"/>
<path d="M2626.72 2201.5L2301.6 2352.57C2253.64 2327.8 2180.33 2165.74 2232.51 2106.36L2239.39 2051.58L2433.52 1956.33L2476.53 1992.32C2521.14 2006 2607.97 2161.02 2626.72 2201.5Z" fill="#E6E6E6"/>
<path d="M2469.09 2176.62L2386.87 2214.82C2371 2222.2 2348.36 2207.25 2336.41 2181.52C2324.45 2155.78 2327.63 2128.84 2343.5 2121.47L2425.72 2083.27C2441.58 2075.89 2464.22 2090.84 2476.18 2116.57C2488.13 2142.31 2484.95 2169.25 2469.09 2176.62Z" fill="black"/>
<path d="M821.324 1476.24C1094.08 1476.24 1315.2 1255.1 1315.2 982.316C1315.2 709.527 1094.08 488.389 821.324 488.389C548.565 488.389 327.45 709.527 327.45 982.316C327.45 1255.1 548.565 1476.24 821.324 1476.24Z" fill="#FF6584"/>
<path d="M3611.32 974.225C3552.57 993.753 3487.43 1012.94 3415.92 1031.77C3046.02 1129.17 2550.2 1205.15 2019.81 1245.71C1489.42 1286.27 987.82 1286.56 607.412 1246.55C422.102 1227.05 275.533 1199.01 171.778 1163.2C61.9296 1125.29 4.20966 1079.6 0.218966 1027.42C-7.55231 925.76 193.034 836.283 362.674 779.124L367.269 792.757C134.308 871.251 9.04876 954.202 14.5638 1026.32C21.585 1118.19 238.219 1193.24 608.916 1232.24C988.488 1272.17 1489.16 1271.86 2018.72 1231.37C2548.27 1190.87 3043.17 1115.04 3412.26 1017.86C3772.71 922.957 3975.42 815.834 3968.4 723.972C3962.56 647.702 3812.24 582.457 3545.11 540.248L3547.36 526.039C3741.46 556.709 3974.55 615.753 3982.74 722.875C3986.73 775.058 3936.63 828.985 3833.82 883.157C3775.21 914.036 3700.75 944.5 3611.32 974.225Z" fill="black"/>
<path d="M4082.49 3240.92C4110.83 3240.92 4133.81 3217.94 4133.81 3189.6C4133.81 3161.26 4110.83 3138.28 4082.49 3138.28C4054.15 3138.28 4031.18 3161.26 4031.18 3189.6C4031.18 3217.94 4054.15 3240.92 4082.49 3240.92Z" fill="#F2F2F2"/>
<path d="M2332.36 3553.41C2387.61 3553.41 2432.41 3508.61 2432.41 3453.35C2432.41 3398.09 2387.61 3353.29 2332.36 3353.29C2277.1 3353.29 2232.31 3398.09 2232.31 3453.35C2232.31 3508.61 2277.1 3553.41 2332.36 3553.41Z" fill="#F2F2F2"/>
<path d="M3295.17 2295.89L3516.58 2353.21L3652.38 2619.97L3422.8 2628.97L3295.17 2295.89Z" fill="#E6E6E6"/>
<path d="M2784.13 1911.33L2905.99 2033.26L3215.48 2702.49L3158.5 2751.72L2784.13 1911.33Z" fill="#CCCCCC"/>
<path d="M2519.17 2021.86L2528.73 2194L2820.86 2870.98L2895.54 2861.36L2519.17 2021.86Z" fill="#CCCCCC"/>
<path d="M2511.2 2717.26L2391.95 2912.44L2479.86 3198.58L2651.1 3045.38L2511.2 2717.26Z" fill="#E6E6E6"/>
<path d="M3564.55 2837.19C3502.63 2837.19 3434.78 2834.85 3360.97 2830.17C2979.23 2805.93 2484.76 2721.64 1968.65 2592.84C1452.54 2464.03 976.442 2306.1 628.067 2148.14C458.364 2071.18 328.117 1998.34 240.95 1931.64C148.662 1861.01 108.295 1799.45 120.963 1748.68C145.647 1649.75 364.213 1628.11 543.221 1627.38L543.281 1641.76C297.456 1642.77 152.432 1681.98 134.922 1752.16C112.617 1841.55 294.527 1981.1 634.007 2135.03C981.616 2292.65 1456.84 2450.28 1972.13 2578.88C2487.43 2707.48 2980.99 2791.62 3361.88 2815.81C3733.87 2839.44 3960.01 2801.73 3982.32 2712.34C4000.83 2638.12 3878.76 2528.79 3638.57 2404.48L3645.19 2391.7C3819.71 2482.03 4022.28 2611.58 3996.28 2715.82C3983.61 2766.6 3919.05 2801.97 3804.41 2820.95C3739.06 2831.77 3658.79 2837.19 3564.55 2837.19Z" fill="black"/>
</g>
<defs>
<clipPath id="clip0_424_2">
<rect width="4327" height="3962" fill="white"/>
</clipPath>
</defs>
</svg>
